<?xml version="1.0" standalone="no"?>
<!DOCTYPE svg PUBLIC "-//W3C//DTD SVG 1.1//EN" "http://www.w3.org/Graphics/SVG/1.1/DTD/svg11.dtd" >
<svg xmlns="http://www.w3.org/2000/svg">
<metadata>
This is a custom SVG webfont generated by Font Squirrel.
Copyright   : Based upon Generation B by Harold Lohner as found in the MLPFiM logoOrignal Celestia Medium created by Purple Tinker redux by Mattyhex FontForge and Inkscape
</metadata>
<defs>
<font id="CelestiaReduxMedium" horiz-adv-x="3190" >
<font-face units-per-em="8192" ascent="6552" descent="-1640" />
<missing-glyph horiz-adv-x="4213" />
<glyph unicode=" "  horiz-adv-x="4213" />
<glyph unicode="&#x09;" horiz-adv-x="4213" />
<glyph unicode="&#xa0;" horiz-adv-x="4213" />
<glyph unicode="!" horiz-adv-x="2066" d="M67 5948q337 -40 1014 102q145 30 266.5 45.5t208.5 17t155.5 -9.5t112 -29.5t74 -46t45.5 -56.5t23 -65q7 -29 -13 -70.5t-57 -96.5t-78.5 -119t-84 -159.5t-66.5 -197.5q-88 -361 -131.5 -687t-47.5 -691t29.5 -754.5t106.5 -903.5q-74 -35 -174.5 -67.5t-220 -57 t-235 -34t-225 4.5t-183.5 54q-24 197 -34.5 385.5t-24.5 561t-32 718.5q-13 247 -62 560t-109 583.5t-119 505t-98 370.5zM1812 960q10 -167 -16 -306t-79 -235t-130 -161t-170 -94t-198 -26q-171 5 -301 52.5t-223.5 139t-143.5 234t-55 335.5q-2 100 24 194.5t72.5 171.5 t111 142t137.5 110t153.5 72.5t157.5 33.5q620 44 660 -663z" />
<glyph unicode="&#x22;" horiz-adv-x="3238" d="M1934 6984q123 127 269 192t294 65.5t295 -56t278 -167.5q75 -62 123 -157t62.5 -210t-2.5 -237t-76 -249.5t-153 -236.5q-65 -75 -124 -183t-100.5 -209.5t-81.5 -198t-84 -172t-90 -107.5q-58 26 -108.5 97.5t-89.5 166t-76.5 192.5t-87.5 195t-105 155 q-107 111 -176 242t-94 256t-18.5 244t44.5 215.5t101 162.5zM263 6836q123 127 269 192.5t293.5 65.5t295 -56.5t278.5 -166.5q74 -63 122.5 -158t62.5 -210t-3 -237t-75.5 -249t-152.5 -236q-65 -76 -124 -183.5t-101 -209.5t-81.5 -198.5t-84 -171.5t-90.5 -107 q-58 25 -108 97t-89 166.5t-76.5 192t-88 195t-105.5 154.5q-106 112 -175.5 243t-94 256t-18.5 243.5t44.5 215.5t101.5 162z" />
<glyph unicode="#" horiz-adv-x="3599" d="M1441 4131q1 -31 6 -137.5t8.5 -217t2.5 -237.5q0 -101 -3 -212.5t-6 -196.5t-10 -253q-7 -169 -10 -287q424 5 754 -9q3 23 4.5 50t0 80t-3 110.5t-5.5 179t-7 246.5q-4 281 -2.5 381.5t7.5 247t8 229.5q-97 7 -342.5 15.5t-401.5 10.5zM2718 2583q64 3 232 -5.5 t225 -9.5q210 -5 290.5 -5.5t140.5 8.5q-8 -67 2.5 -177t23.5 -199.5t12 -185.5t-27 -153q-42 -5 -145.5 9.5t-212.5 34.5t-246.5 35t-236.5 13q-4 -17 -4 -46t2.5 -70t7.5 -87t13 -108t15.5 -121t17.5 -137.5t17 -148.5q12 -104 33 -262q26 -144 23 -225.5t-38 -118.5 t-139 -72q-114 -38 -200.5 -49t-228.5 -13q0 25 3 118.5t3.5 142t1 128t-2.5 145.5t-7 125l-74 842q-395 17 -811 -5q-7 -252 31 -695q10 -117 27.5 -290t26.5 -287.5t14 -239.5q-20 -1 -73 -4.5t-73.5 -4.5t-67.5 -1.5t-79.5 0.5t-81.5 4.5t-101 9.5q-100 12 -168.5 35 t-106.5 57.5t-51.5 77t-4.5 97.5q7 48 41 247.5t67 443.5t54 505q-169 -9 -310 -35.5t-295 -70.5q-24 0 -52 469q-5 93 -6.5 160t2.5 109.5t9.5 67.5t18.5 37t24 15t31 3q39 0 163 -23.5t256.5 -46.5t195.5 -22q65 675 4 1530q-13 3 -47 2.5t-86 -3t-120.5 -11.5 t-143.5 -21.5t-166 -33.5t-177 -47q-13 75 -13 146t9 126.5t22 119.5t25 124.5t16.5 142t-1.5 171.5q120 5 250 -17.5t417 -96.5q-7 59 -35.5 210t-49.5 298q-4 34 -14 94q-34 170 -29 268t60.5 143t210.5 80q29 7 79.5 19t83 19.5t79 18t77.5 17t68 13.5t61 9.5t47 3.5 t36 -2t16 -10q10 -13 7 -42.5t-12.5 -60t-25 -73t-31 -78.5t-30.5 -79t-23 -75q-33 -139 -49 -293.5t-15 -281t12 -240.5l786 -45q3 107 21 387.5t17 401.5q-1 130 -13 253.5t-23 195.5t-19.5 130t-5.5 85t23 35q29 15 94.5 7.5t138.5 -27t165 -48t173.5 -54.5t165 -46 t138.5 -24q1 -42 -31 -131t-74.5 -189t-52.5 -135q-50 -162 -76.5 -342t-48.5 -528q320 21 579 73q16 -46 31 -135.5t22.5 -192t7 -196t-16 -154t-44.5 -59.5t-67.5 13.5t-84 29.5t-105.5 32.5t-153.5 25.5t-207.5 8q-18 -207 -27 -314t-20 -285.5t-11.5 -301t5 -279 t21.5 -302.5z" />
<glyph unicode="$" horiz-adv-x="3833" d="M2852 1754q0 111 -30 211t-99.5 198.5t-175 182t-264 157t-360.5 128.5q-142 38 -261 79t-239 93.5t-220 116t-190.5 141t-164 173.5t-130.5 209q-67 137 -105 295t-42.5 326.5t23.5 330t97.5 315.5t176.5 274q94 107 190 192t175.5 136.5t154 88.5t134.5 57.5 t106.5 33.5t79.5 24t47 24q0 228 -92 785q106 24 190 39t188 28t179.5 13t143 -16t101.5 -52q28 -29 47 -110.5t27 -174t11 -195t2.5 -162.5t-1.5 -87q4 -2 48.5 -22.5t86 -35.5t103.5 -32.5t136 -25.5t151 -2q73 5 134 16t100 22.5t81 33t64 35.5t62 43q13 10 21 15 q21 -71 31.5 -114.5t20.5 -116.5t7.5 -138t-17 -155t-44.5 -190q-74 -244 -95.5 -412t-18.5 -482q-40 1 -71.5 7.5t-71.5 26.5t-76 55t-79 95.5t-90 146.5q-69 130 -163 225t-216 154.5t-267 70.5t-316 -28q-117 -28 -222.5 -84.5t-184.5 -129t-140.5 -159t-91 -177.5 t-38.5 -181.5t19.5 -173.5t82.5 -152t150.5 -118t222.5 -69q225 -35 395 -66.5t326 -68t271 -76t216 -86t177 -103t138.5 -123t112.5 -150.5q135 -219 200 -548t32 -705q-13 -163 -39 -296.5t-70.5 -266t-108.5 -242.5t-158 -215t-214 -195q-53 -40 -115 -84t-95.5 -66 t-73 -53.5t-58 -50t-42.5 -51t-33.5 -60t-22 -75t-20 -98.5t-15.5 -126q-30 -284 -101 -547q-61 -10 -120 -11t-107 7.5t-100 19t-98.5 21.5t-104.5 14.5t-116.5 0.5t-135 -22t-160.5 -54q11 66 51 173t82.5 209.5t53.5 143.5q15 55 16 99t-8 74t-29 54t-43 37.5t-52.5 26 t-57 20t-58.5 18.5t-50 21q-36 18 -101 48.5t-112 53t-110.5 58.5t-112.5 70.5t-100.5 85t-90.5 105.5q-52 76 -90.5 146t-83 172t-88 241.5t-87.5 323.5q-11 46 -36 94.5t-56.5 92.5t-69 88.5t-73 83t-69.5 75t-59 67t-39.5 56t-13.5 44.5t22 30q127 69 243 97.5 t218.5 23.5t207.5 -24.5t233 -41.5t269 -33t342 7.5t426 73.5q-1 -29 -2.5 -45.5t-5.5 -47.5t-9.5 -51.5t-17 -51t-26.5 -54t-38 -52t-52 -53t-68 -51t-86 -49.5q-99 -50 -167.5 -125t-97 -155t-23.5 -162.5t43.5 -149.5t115 -114.5t181.5 -58.5q229 -25 412 18t314.5 151.5 t202.5 289t72 421.5z" />
<glyph unicode="%" horiz-adv-x="5534" d="M1033 4204q9 -85 38 -158t71.5 -126.5t100 -98t116.5 -74.5t128 -53t127.5 -35.5t122.5 -22.5q67 -10 127.5 -11.5t123 5.5t116.5 25t105 49.5t91 76.5t72.5 109.5t52.5 145.5q27 117 9 219t-79.5 185.5t-154 144t-212.5 95.5t-253 39q-232 7 -397 -53t-243.5 -178.5 t-61.5 -283.5zM422 4214q9 153 66.5 291.5t161.5 253t245.5 199.5t326 135t394.5 56q567 17 869 -239.5t336 -761.5q12 -179 -7 -326t-66 -258.5t-125 -197t-177 -143.5t-229.5 -95.5t-275 -55t-318.5 -21.5q-177 -3 -334 29.5t-279.5 94.5t-223 148t-170.5 190t-116.5 220 t-65.5 237t-12 244zM2646 2875q221 284 390 534.5t271.5 432t168 339t90.5 260t26 191t-11.5 135.5t-35.5 92q-66 129 28 169q80 34 336 16q60 -4 196 -15q438 -37 688 -35q382 4 684 82q-4 -24 -10 -77t-11.5 -94t-18.5 -100t-30 -105.5t-48 -99t-70 -91t-97.5 -71.5 t-131.5 -49q-86 -21 -169 -60t-192 -116t-236 -192.5t-297.5 -290t-380.5 -407.5t-482 -546q-293 -338 -513 -613t-354.5 -461.5t-229.5 -347.5t-140.5 -260t-84.5 -212q-23 -66 -24 -137t13.5 -135t37 -130.5t44.5 -134.5t37 -136.5t13.5 -147t-25.5 -155.5 q-120 36 -271 52.5t-299.5 16.5t-305 -7t-304 -16t-279.5 -13.5t-247.5 3.5t-191.5 33q-117 38 -42 198q59 124 195 258q100 99 162 122q150 59 465.5 363t755.5 813.5t931 1144.5zM4580 1201q13 165 -68 282t-247 173.5t-398 44.5q-133 -7 -252.5 -44t-210 -99.5t-151 -148 t-76.5 -187t13 -219.5q22 -80 56 -144t75.5 -108t93 -75t105 -47t116.5 -22t123.5 -3t128.5 14q63 10 122 24.5t127.5 39t126.5 55.5t114 76.5t97.5 100.5t69.5 128.5t35 158.5zM5189 1224q9 -123 -6 -244.5t-59.5 -238.5t-112.5 -222t-167 -194t-220 -153t-277.5 -100 t-331.5 -36q-177 0 -321 14.5t-275 49.5t-231.5 90.5t-180.5 139t-129.5 194.5t-72 257t-13.5 325q24 505 320.5 768.5t864.5 258.5q210 -2 395 -48t328 -128.5t250 -194t167 -248.5t72 -290z" />
<glyph unicode="&#x26;" horiz-adv-x="4751" d="M1089 2374q-151 -146 -199 -353.5t-16 -509.5q13 -118 50 -228t100.5 -209.5t148 -178.5t198 -135.5t244.5 -81.5q163 -30 335 -16t313.5 52t233 87t93.5 90q-297 434 -551 889.5t-502 984.5q-20 -16 -73.5 -59.5t-82 -67.5t-78 -66.5t-101.5 -90.5t-113 -107zM1696 3554 q257 185 454 359t284 303q163 241 69 783q-13 75 -37.5 141.5t-56.5 118.5t-71 96.5t-82 75.5t-90 54t-94.5 33t-95 13t-92.5 -5q-5 -1 -16 -4q-50 -8 -84.5 -14.5t-106.5 -30.5t-123.5 -54.5t-116.5 -87.5t-105.5 -128t-69.5 -178.5t-29 -236.5q0 -98 9.5 -192.5 t23.5 -172.5t39 -159t47 -140.5t58 -129t60.5 -113.5t64 -104t60.5 -89.5t59 -81.5q29 -38 42 -56zM141 1441q-10 190 15.5 365.5t76.5 322.5t134.5 286.5t177.5 252.5t215 224t238.5 199t258.5 180q-18 22 -105 173.5t-192 365.5t-149 348q-61 189 -77.5 377t7.5 350 t73 299.5t123 250.5q67 104 140 184t157.5 144t179 105.5t205.5 66t236.5 26t271.5 -13.5q172 -20 313 -77t243 -145t173.5 -206.5t110.5 -258.5t50 -305q8 -113 7.5 -212.5t-4.5 -182t-16.5 -158.5t-27 -135t-37 -117.5t-45.5 -103t-55 -95t-58.5 -88.5t-65.5 -87 q-153 -194 -344.5 -373t-389.5 -298q55 -94 116 -181.5t131.5 -180t152 -201t211 -293.5t275.5 -411q42 -77 151 -229t194 -237q71 62 120.5 111t96.5 111t73 122t38.5 133.5t3.5 155.5q-5 55 -27 114t-49 108.5t-71 107t-78 97t-86.5 90.5t-79 75.5t-70.5 64.5 q-11 10 -15 14q-63 56 -18 103q60 62 255 63q227 2 547 -81q136 -36 262 -50.5t226.5 -8.5t175.5 19.5t138 34.5q21 -59 27.5 -137.5t-2.5 -162.5t-46 -165t-97 -130q-77 -64 -171.5 -182t-190.5 -260t-189 -284t-197.5 -294.5t-185.5 -253.5q150 -165 288.5 -358.5 t202.5 -353.5q37 -90 93 -172.5t116 -142t123 -112t116.5 -90.5t96 -68.5t60.5 -54.5t10 -43q-81 -43 -240 -59.5t-330 -5t-335.5 40t-265.5 66.5q-75 28 -144 84.5t-119 121t-98.5 141t-80.5 140.5t-65.5 125.5t-55.5 91.5q-36 -25 -101.5 -61.5t-169.5 -83.5t-223 -91.5 t-264.5 -82t-290 -59t-303.5 -17.5t-301 39q-548 133 -846.5 531t-333.5 1028z" />
<glyph unicode="'" horiz-adv-x="1570" d="M263 6836q123 127 269 192.5t293.5 65.5t295 -56.5t278.5 -166.5q74 -63 122.5 -158t62.5 -210t-3 -237t-75.5 -249t-152.5 -236q-65 -76 -124 -183.5t-101 -209.5t-81.5 -198.5t-84 -171.5t-90.5 -107q-58 25 -108 97t-89 166.5t-76.5 192t-88 195t-105.5 154.5 q-106 112 -175.5 243t-94 256t-18.5 243.5t44.5 215.5t101.5 162z" />
<glyph unicode="(" horiz-adv-x="2067" d="M948 3627q-9 -347 20 -701t84 -668.5t142.5 -645t181.5 -609t217 -581.5t232 -541.5t242 -511.5q-107 22 -224 69t-256.5 131.5t-269.5 195t-262.5 272t-235.5 352.5q-153 278 -274 558.5t-218 585.5t-150 626.5t-55 634.5q-3 482 20 877t71 718.5t127.5 603.5t180.5 515 t240 472q269 458 648 861q273 292 468 417q150 94 166 30q10 -36 -34 -129q-84 -177 -170 -375t-190 -457.5t-198 -518.5t-184.5 -552t-157.5 -564.5t-110.5 -550.5t-50.5 -514z" />
<glyph unicode=")" horiz-adv-x="2240" d="M1060 3910q-8 207 -46 430t-92 423t-133.5 423.5t-155.5 405.5t-174.5 394t-174 364.5t-169 342t-145.5 302.5q92 -33 181 -72.5t200.5 -100.5t217.5 -131.5t225.5 -170.5t231 -214.5t227.5 -263t222 -316.5q142 -227 250.5 -466t189 -503.5t122.5 -543.5t52.5 -588 t-20.5 -637q-28 -308 -100.5 -639t-173.5 -638t-228.5 -609.5t-263.5 -564.5t-282 -496q-180 -286 -466 -545q-235 -213 -403 -287q-141 -61 -153 18q-8 51 47 158q388 780 565 1229q253 643 358 1273q127 760 96 1841q-2 89 -5 182z" />
<glyph unicode="*" horiz-adv-x="3512" d="M123 5063q47 162 114.5 281.5t200.5 259.5q172 -78 320 -166t237 -154t228 -172t248 -180q7 23 10 42t4.5 49.5t1 52.5t-3.5 75.5t-6 92t-10 127.5t-12 158q-8 100 -22 192.5t-32 168t-32 126.5t-32.5 107t-21.5 69q-3 16 -1.5 29.5t22.5 25t61 19t112.5 11.5t175.5 4 q101 0 177 -9t116.5 -22t65 -30t31 -30t3.5 -25q-1 -10 -24 -116.5t-45 -262t-38 -368.5q-27 -375 -22 -570q11 5 56.5 25t81 37t108 59.5t147 94t186.5 139.5t238 198q59 51 132.5 128t107.5 129q22 33 65 -9q56 -55 175 -256q49 -81 79 -147t41.5 -106t11.5 -67t-8 -37.5 t-19 -13.5q-47 -11 -125 -44.5t-248.5 -108t-343.5 -146.5q-163 -66 -251.5 -110.5t-151.5 -97.5q261 -200 582 -379.5t561 -261.5q-35 -144 -123.5 -311t-208.5 -289q-127 61 -347 248q-194 165 -371.5 325t-254 226.5t-118.5 89.5q-3 -73 27 -319q29 -247 79 -538 q3 -21 11 -60q52 -306 54 -381q2 -89 -36 -111q-29 -17 -130 -14q-10 0 -29 2q-78 4 -127 5q-73 1 -124 3t-96.5 9t-74.5 17.5t-52 29t-34.5 40.5t-17.5 55.5t-4.5 72.5t8.5 93q31 256 49.5 501t21.5 552q-44 -27 -82.5 -52.5t-78.5 -57.5t-64.5 -52t-75 -63.5t-77.5 -65.5 l-590 -524q-1 1 -5 -0.5t-13 2t-20.5 5.5t-28 11.5t-33.5 21t-39 33.5t-44 48t-48 64t-51 83q-44 79 -71 144.5t-32.5 101.5t-5 60.5t6.5 33.5l5 8q295 164 433 226q497 223 722 362q-140 99 -264 171t-237 122t-203.5 84.5t-221.5 84t-235 92.5z" />
<glyph unicode="+" horiz-adv-x="3655" d="M3607 2650q3 -107 -16.5 -199.5t-51 -150t-69 -97.5t-70.5 -56.5t-56 -11.5q-266 39 -478.5 54.5t-622.5 26.5q9 -105 55 -329.5t141 -557.5q21 -71 32.5 -122t11.5 -95t-1 -71t-24 -54t-38 -41t-63 -34t-80 -30.5t-104 -33.5q-59 -18 -91 -29q-86 -27 -149 -45.5 t-126.5 -33t-109 -19t-88 -2t-71.5 17t-51.5 39.5t-34.5 63q-29 85 -51 166t-36 164.5t-24 152t-12.5 158t-4 149.5t3 161.5t8 159t9.5 172.5q4 73 8 110q-222 17 -472.5 -27.5t-450.5 -113.5q-17 -4 -35 -4t-36.5 13.5t-37.5 36t-40 62.5t-41.5 94t-43 131t-45.5 173 q-13 60 -14.5 112.5t9.5 101t41.5 87t78 68.5t120 46.5t164.5 17.5q67 1 275.5 26t333 25t242.5 11q33 130 45 272.5t6.5 269t-23.5 278.5q-9 71 -47 303q-24 142 -9 192q18 62 102 83q98 22 409 0q22 -1 46 -3q508 -37 632 -176q-31 -81 -65.5 -145.5t-60 -105t-51.5 -88 t-51.5 -121t-50.5 -178.5q-39 -165 -56 -298.5t-10 -287.5q13 -1 44 -3q106 -9 161.5 -13t152 -7t163 2t151.5 18.5t162 38.5q75 24 138.5 34t114 8.5t91.5 -15.5t71.5 -37t54 -58.5t38.5 -76.5t25.5 -95t15.5 -110t7 -123z" />
<glyph unicode="," horiz-adv-x="1794" d="M1361 1191q50 -40 91 -85t80.5 -105.5t65 -133.5t41.5 -161.5t15 -200t-19 -237.5q-16 -110 -51 -208.5t-81 -177.5t-110 -154.5t-131 -136t-150 -124.5q-238 -178 -561 -265.5t-688 -72.5q74 48 220.5 139t232 149t148.5 118q107 100 175.5 169.5t124.5 139.5t81 127.5 t25 112.5q-76 -30 -165 -43t-182 -6t-181.5 47.5t-148.5 110.5q-72 85 -104 218.5t-21 270t67 266.5t147 207q172 145 360.5 198.5t372 11.5t346.5 -174z" />
<glyph unicode="-" horiz-adv-x="3500" d="M1741 3564q192 22 371 56.5t299 64t251 74t192 69t158 64.5q57 24 84.5 35.5t68 25.5t63.5 18t49 3t48 -8q55 -21 81 -69t25 -115.5t-16 -155.5t-42.5 -187.5t-53.5 -213t-48.5 -231.5t-28.5 -242.5t6 -245.5q-92 -10 -193 -1.5t-193 30.5t-205.5 48.5t-234 52 t-278.5 41.5t-336.5 17t-409.5 -21q-150 -15 -302 -45t-270 -61.5t-229 -61t-217 -47.5t-195 -17q-4 161 -23.5 406t-45.5 458q-22 185 6.5 296t100.5 182q21 20 70.5 5.5t127.5 -51t197 -76t277 -73.5t370 -43t476 19z" />
<glyph unicode="." horiz-adv-x="1768" d="M1576 942q11 -185 -17 -339t-87.5 -261t-144.5 -179t-188 -104.5t-219 -28.5q-190 7 -334.5 58.5t-248 153t-158.5 260t-61 372.5q-3 111 25.5 215.5t81 190t123.5 157.5t153.5 122t170 81t174.5 36q179 13 313.5 -30.5t223 -140t135.5 -236t58 -327.5z" />
<glyph unicode="/" horiz-adv-x="4084" d="M1721 3188q164 408 295.5 765.5t218 628.5t147.5 501.5t91.5 391.5t41 288t4 203.5t-24.5 127.5q-25 69 114 113q251 79 945 66q291 -5 500 -24q17 -159 -37.5 -349.5t-154.5 -347.5q-26 -40 -65.5 -83t-69 -70t-89.5 -79q-80 -69 -126.5 -110.5t-138.5 -140t-158 -190.5 t-163.5 -250t-180.5 -333t-183.5 -424.5t-195.5 -539.5q-112 -340 -231.5 -696.5t-201 -593.5t-161.5 -474.5t-129 -389.5t-87 -285t-51.5 -213.5t-6.5 -126.5q27 -209 143 -467q60 -131 66 -153q13 -49 -22 -51q-5 0 -11 1q-925 113 -1712 -93q4 126 30.5 234.5t61.5 183.5 t85.5 142.5t92 106.5t92.5 78q146 112 292 364q158 276 442 960q105 257 538 1329z" />
<glyph unicode="0" horiz-adv-x="3513" d="M876 3148q25 -328 46.5 -573t47.5 -476t52 -395.5t61 -314t72 -247t88 -181t106 -130t128 -79t152 -42.5t183 -8q168 3 261 37q183 67 302 296q234 455 295 1697q11 222 -7.5 449t-59.5 429.5t-100 398t-130.5 363t-149.5 317.5t-158 267.5t-156 208t-142.5 144 t-117.5 69.5q-75 23 -158 -2.5t-168 -100.5t-162 -202.5t-141.5 -309t-105.5 -420.5t-53 -537t15 -658zM2716 5410q117 -177 207 -348t171 -384.5t136.5 -450.5t93.5 -536t54 -649q55 -1257 -263 -2099q-50 -131 -110.5 -257t-133.5 -244t-149 -208.5t-160 -149t-162 -67.5 q-189 -22 -322.5 -27t-245 0.5t-334.5 22.5q-291 23 -525.5 214.5t-387.5 537.5q-78 178 -140.5 354t-107 340.5t-77.5 342.5t-54 340.5t-34.5 356t-18.5 368t-9 395.5q-4 367 12 638t66.5 541t134 525t220.5 578q56 132 123.5 242t136 187.5t145.5 137t150 95.5t151.5 57.5 t148 28.5t141.5 4q73 -3 138 -14.5t142 -39t150.5 -71t159 -111.5t171 -158.5t183 -214.5t199.5 -277z" />
<glyph unicode="1" horiz-adv-x="2578" d="M1955 602q15 -67 53.5 -136t101 -134t155.5 -122t207 -95q-43 -40 -90.5 -71t-125 -57.5t-180.5 -43.5t-256 -26.5t-352 -9.5q-138 0 -318.5 -2.5t-290 -4t-240.5 0t-214.5 8t-162.5 21.5t-132 39q28 60 114.5 135t197.5 140t216 104q105 40 129 211t31 743 q11 817 38 1453q27 622 114 1242q38 273 41 339q2 100 -41 131q-38 27 -151 24q-255 -8 -470 104q-148 77 -206 171q-55 90 3 144q22 20 57 31q120 39 219 82.5t207.5 111t212 159t222.5 219.5t248 296q36 47 68 83t66.5 65.5t62 50t67 37.5t69 28t79 23t86.5 19t102 18 q42 8 55 -57q18 -98 -38 -429q-3 -21 -11 -61q-5 -34 -8 -48q-44 -256 -70 -655.5t-52 -1357.5q-11 -384 -12 -705t7.5 -588.5t24 -486.5t41.5 -421t56 -369.5t70 -352.5z" />
<glyph unicode="2" horiz-adv-x="4052" d="M3048 3285q-178 -289 -321 -543t-285 -542.5t-269.5 -602.5t-242.5 -662q116 -31 220 -49t192.5 -25.5t183 -1t171 18t176.5 39t180.5 53.5t201.5 68q112 39 217 111t166 149q13 -105 51 -230.5t81.5 -239t106.5 -309t115 -400.5q114 -447 39 -553q-34 -48 -90 -13 q-13 8 -25 20q-44 44 -85 80t-111.5 89.5t-141 95.5t-169 86.5t-200 72.5t-230 45t-262.5 13q-187 -5 -411 -25.5t-406 -44.5t-401.5 -43.5t-414.5 -26.5t-427 8.5t-456 59.5q97 93 185 232t198 363.5t224 471t317.5 668.5t421.5 843q145 281 299 552.5t267 455.5t221 360 t178.5 297.5t122 234.5t68 206t2.5 179q-17 103 -59 202t-102 184t-139 154.5t-168 117t-191 66.5t-205.5 7.5t-215 -63t-216.5 -142.5q-99 -86 -182 -184.5t-139 -190.5t-103 -183t-80 -171.5t-61.5 -148t-58 -120.5t-58.5 -81q-98 -91 -180 7q-90 108 -122 388 q-21 184 -7 401q3 60 -3.5 123t-18 116t-36 120t-43.5 112.5t-54.5 115t-55.5 107.5t-61 108q-9 15 -11 23q49 23 121.5 34.5t151 14t189.5 12.5t228.5 26t278 58.5t326.5 106.5q189 73 373.5 109.5t344 37t309 -25.5t272.5 -74.5t230.5 -115t188 -143t140.5 -159.5 q386 -549 356 -1092q-21 -367 -239 -802q-101 -204 -334 -580h-1v-1l-1 -1v-1l-1 -1l-1 -1v-1l-2 -1v-1l-1 -1v-1l-1 -1h-1v-2l-1 -1v-1l-1 -1v-1l-1 -1l-1 -1v-1l-1 -1v-1l-1 -1v-1h-1l-1 -2v-1l-3 -1v-1v-1v-1l-1 -1l-1 -1v-1z" />
<glyph unicode="3" horiz-adv-x="4110" d="M108 6197q29 10 56 15.5t45 8.5t54 4t55 1h79.5h96.5q76 0 212 33.5t374 106.5q15 4 45 14q90 28 134.5 41.5t118.5 33t127 26.5t128 14.5t156.5 7t179.5 -7.5q153 -10 276 -32.5t219 -60.5t167.5 -79.5t149.5 -100.5q257 -196 410 -490.5t198 -659.5q35 -280 3.5 -579.5 t-121.5 -541.5q-44 -119 -103 -216t-131.5 -171t-155.5 -130t-185 -105q115 -33 210 -70t164 -72t138 -83t115.5 -87t112.5 -100q150 -137 263 -296t182 -322t105 -323.5t44 -323.5q8 -177 -19.5 -370.5t-83.5 -377.5t-147.5 -345.5t-205.5 -261.5q-98 -85 -187.5 -154 t-177 -124.5t-168 -97.5t-164.5 -73t-159.5 -52.5t-162 -32.5t-163.5 -17t-173 -4.5t-180.5 6.5t-194.5 13q-144 12 -276 43.5t-228.5 68t-188 71.5t-195 59.5t-211.5 26.5q-88 2 -161.5 8t-138.5 17.5t-114 30t-83 43.5t-50.5 56.5t-13 71.5t27.5 89q233 466 443.5 774 t444.5 498q53 -81 86 -158.5t45.5 -138.5t17.5 -119t7 -109t9.5 -99t31 -100t64.5 -101q81 -99 203 -166.5t257.5 -97t283 -24.5t282.5 43.5t255.5 115.5t200.5 182q121 161 175 366t39.5 417t-95.5 427t-221 400q-422 557 -784 419q-156 -60 -332 -72t-355 31 q38 130 58.5 250t15.5 254q-3 80 5.5 145t22.5 108.5t43.5 78t52 53t63 34.5t62.5 22t63 14q15 3 24 5q229 50 376.5 107.5t250.5 140.5q84 67 154 162.5t115 194.5t76 202t43.5 190t8.5 157q-8 168 -80 332t-191 288t-262 186q-113 49 -220 72t-194.5 21.5t-156 -15.5 t-126.5 -40q-117 -52 -211 -108t-155.5 -107t-105.5 -103t-66.5 -96t-30.5 -87q-15 -69 -37.5 -133t-46.5 -109t-48.5 -76.5t-46.5 -43.5t-38 -3q-106 162 -175.5 274t-143 246t-119.5 245.5t-84 240t-58 261.5z" />
<glyph unicode="4" horiz-adv-x="4096" d="M3705 1690q-213 157 -395.5 216.5t-441.5 57.5q-9 -47 -9.5 -102t6.5 -111.5t21 -120t31 -124.5t40 -130t45 -131.5t48.5 -132.5t49.5 -130t47.5 -127t41.5 -122q12 -37 30.5 -88t37 -99.5t39.5 -106.5t39 -108.5t36.5 -105.5t30.5 -97t21 -84t9 -66.5t-6 -42.5 q-37 -74 -90 -92q-60 -21 -212 11q-13 3 -360 89q-67 17 -132 32q-89 22 -207 32.5t-246.5 12.5t-231.5 0t-224.5 -6t-163.5 -5q-114 -1 -162.5 20.5t-30 72t110.5 132.5q18 16 57.5 50.5t61.5 54t61 56t62 63t56.5 67.5t55.5 77t47 84t41 96.5t30 107.5t21 121 q12 112 32 277.5t28.5 248.5t17.5 208.5t10 253.5q-114 -4 -290.5 -20t-328.5 -27t-348.5 -16t-438.5 10t-510 52q-91 13 58 341.5t492 870.5t780 1132q165 223 320.5 421.5t292.5 358.5t263 297t235.5 242.5t208 189.5t182 141t155 95.5t130.5 55t106 16t82 -16.5 q44 -21 56.5 -112.5t-6.5 -234t-52 -309t-82 -360.5t-93 -364t-88.5 -344t-65.5 -278q-42 -204 -83 -495t-73.5 -567.5t-37.5 -305.5q52 -8 139 11t179 53t200 72t201.5 67.5t183 39t144.5 -11.5q51 -20 55.5 -122t-26.5 -240t-79 -300.5t-95.5 -298.5t-82.5 -237.5 t-36 -114.5zM2125 2708q4 22 12 64l69 385.5t66 341.5t79.5 358t90.5 331.5t117 365.5q-215 -185 -430.5 -431t-389.5 -493.5t-306.5 -488t-197.5 -430.5q65 -42 163.5 -63t200.5 -21t206 11.5t186 30t134 39.5z" />
<glyph unicode="5" horiz-adv-x="3861" d="M1458 1969q77 -16 125 -59.5t62.5 -104.5t4.5 -132t-45 -144.5t-90 -140.5q-33 -40 -59 -83t-45.5 -98t-25 -107.5t9.5 -112.5t53 -114q57 -82 148 -141t194 -88.5t217.5 -23t215.5 50.5q201 90 344.5 261t217 401t74.5 500q0 126 -14.5 238t-35 194t-59.5 161t-69 127.5 t-81.5 106t-79.5 84t-80 74.5q-16 13 -24 21q-54 49 -95.5 82.5t-94 68t-101 54.5t-109.5 36.5t-128 19.5t-147.5 -1.5t-176 -23t-207.5 -49.5q-291 -78 -442 -115.5t-195 -44.5t-76 -5q-11 164 -41 350t-68.5 352t-77 324t-70.5 317t-43 279q-38 406 -78.5 743.5t-68 506.5 t-54 328t-33.5 218q138 -61 266 -93t333 -47t473 -9.5t702 28.5q178 10 361.5 36.5t333.5 61t290.5 74.5t245.5 78t184 68.5t119 49.5l40 19q2 -11 6 -30.5t6 -82t-4 -129t-29 -164t-65 -192.5q-24 -56 -39 -129.5t-20.5 -146t-6 -146.5t2.5 -137t5 -112.5t2 -77.5t-5 -28 q-3 0 -7 1q-174 34 -593 100q-300 48 -790.5 75.5t-640.5 15.5q-56 -287 -68 -551.5t36 -535t165 -479.5q580 101 1172 0q200 -35 358.5 -100.5t297 -180t239 -277.5t171.5 -392.5t108 -521.5q21 -170 31 -326t8.5 -315.5t-18 -302.5t-49.5 -284t-83.5 -264.5t-124.5 -239.5 t-167 -212.5t-214.5 -180t-266.5 -146.5q-108 -48 -243 -84t-284 -57.5t-305.5 -29.5t-313.5 4.5t-305 41.5t-281 82.5t-239.5 125.5t-183.5 175t-109 227q-18 69 -60 135t-89.5 119t-94.5 105t-87.5 115t-59.5 128q654 280 1238 829z" />
<glyph unicode="6" horiz-adv-x="4110" d="M1002 3141q126 94 321.5 175t435 131.5t461.5 50.5q177 0 342.5 -29t322 -89t296.5 -158.5t251 -229.5q44 -52 77.5 -100t61.5 -104t47 -106.5t32.5 -122.5t21 -138t9.5 -165.5t-1 -191.5t-11 -230t-18.5 -268.5t-26.5 -318.5q-23 -267 -107 -486t-227.5 -381.5 t-345 -264.5t-458.5 -135t-568 7q-159 22 -304.5 67.5t-263 105.5t-222.5 138t-186.5 159.5t-152.5 175t-121.5 178t-92.5 174.5q-66 139 -118 267.5t-109 305.5t-96.5 357t-71.5 413.5t-44.5 483.5t-5 560.5t37.5 649.5q24 267 62 497t85.5 413.5t109 338t127.5 271.5 t147 212t162 161.5t177.5 119t188 85t198.5 58.5q230 54 428 80t356 24.5t277.5 -17t236.5 -45.5q141 -36 249 -80t181 -91t128 -90.5t122.5 -97.5t130.5 -92q28 -17 119.5 -26.5t206.5 -16t162 -14.5q44 -7 72 -16t35 -25.5t7 -30t-20 -43t-37 -48.5t-55 -61 q-40 -46 -64.5 -73.5t-67.5 -80t-72 -99.5t-63 -107t-58.5 -127.5t-40.5 -137.5q-59 -259 -248 -447q-133 -132 -272 -174q-118 -36 -167 17q-46 49 -10 159q53 159 56.5 301t-35 256.5t-116.5 223.5q-76 107 -155.5 177.5t-184.5 113.5t-232.5 48t-293 -26t-373.5 -102 q-94 -33 -174.5 -84t-140.5 -106.5t-110 -138t-83.5 -153.5t-62 -180.5t-45 -189.5t-32 -211t-22.5 -215t-19 -229q-16 -213 2.5 -387.5t61.5 -374.5zM2085 865q150 -29 287.5 0t241 105t175.5 193.5t99 261.5q49 295 36 560t-72 381q-59 114 -142 197t-181.5 131.5 t-204.5 71.5t-224 23q-150 -1 -339 -44t-343.5 -112t-202.5 -137q-27 -39 -36.5 -101.5t-0.5 -142.5t24 -160t43 -178.5t51.5 -170.5t54.5 -164q2 -7 7 -20q22 -63 33.5 -95.5t36 -93t45.5 -95.5t55.5 -87.5t70 -86t86.5 -74.5t108.5 -68t131.5 -52.5t160 -41.5z" />
<glyph unicode="7" horiz-adv-x="4000" d="M479 551q89 52 171.5 127.5t158 162t158.5 224.5t154 267.5t164 340t169.5 392.5t189 475t205 537t233.5 628q168 456 386.5 859t415.5 634q-85 -10 -176 -11.5t-219 5.5t-245.5 16t-337 24.5t-411.5 28.5q-136 9 -250.5 10t-199 -4t-153 -16.5t-114 -25t-80 -33 t-52.5 -38t-29 -41t-14 -40.5t-3 -40q0 -18 -2 -43t-9.5 -56.5t-18 -57t-30 -39.5t-43.5 -10.5t-60.5 37t-79.5 95.5q-62 91 -124 341t-97.5 553t-28.5 533q3 102 70 101q56 0 195 -94q144 -97 161 -106q30 -18 55 -30q175 -84 433.5 -148t498 -96.5t468.5 -45.5 q499 -27 880.5 -27t634 19.5t516.5 60.5q2 -49 -46.5 -162.5t-131 -267.5t-206 -388t-253.5 -489t-291 -608t-303 -710q-842 -2104 -635 -2894q16 -63 53 -128t80 -118.5t89.5 -107t83 -99.5t59 -88t20 -81.5t-34.5 -72.5q-17 -17 -69.5 -34.5t-148.5 -31.5t-215 -16.5 t-286.5 16.5t-345.5 63q-201 49 -367 74.5t-324.5 33.5t-299.5 2t-326 -25q21 116 48 209t68.5 181.5t102 157t139.5 115.5z" />
<glyph unicode="8" horiz-adv-x="3695" d="M2751 1854q-33 230 -72 405t-92.5 317.5t-121 238t-157.5 161t-200.5 94.5t-251.5 29q-85 0 -153 -5.5t-134 -20t-119.5 -38.5t-103.5 -61t-90 -85.5t-78 -114.5t-68.5 -148t-59 -185t-52.5 -224.5t-46 -269.5q-72 -476 -3 -789.5t301 -466t644 -146.5q206 2 365.5 60.5 t267.5 167t171 268t74.5 363.5t-21.5 450zM1045 4686q0 -110 30.5 -208.5t85.5 -172.5t125.5 -129t152 -83t163.5 -28q138 0 309 47.5t313.5 120t218.5 147.5q139 139 211.5 314.5t65 364.5t-97.5 360q-40 77 -117.5 134t-181 87t-222 34.5t-252.5 -24.5t-263 -90 q-127 -60 -220 -128.5t-154.5 -145t-99 -170.5t-52.5 -197t-15 -233zM1813 13q-139 1 -272.5 15t-269.5 47t-260 82.5t-241 123.5t-214 166t-178.5 215t-136 267.5t-83.5 325.5t-25 387q4 232 19 423t44 347.5t62 279t86 227t103.5 182t127 155t143.5 134t165 131.5 q-253 239 -377 458.5t-151 461t8 544.5q25 232 99.5 424.5t204 352t324 280t451.5 200.5q133 40 255.5 65.5t222 38.5t199 8t171 -12t155.5 -33.5t135.5 -46t126 -60t112 -63.5t110.5 -68q9 -5 11 -6q112 -69 203.5 -190.5t159 -285.5t101.5 -380.5t25 -460.5 q-4 -110 -20 -208t-40.5 -176t-62.5 -151t-75.5 -127.5t-90 -110.5t-98.5 -95t-106.5 -84t-109 -77t-112.5 -76t-107 -77q161 -8 327.5 -76t267.5 -182q79 -89 133.5 -164.5t102 -171.5t77 -201t50 -246.5t27.5 -314.5t4 -400q-3 -242 -32.5 -448.5t-81.5 -370t-129.5 -299 t-170.5 -237t-211 -178t-245 -127t-278.5 -81.5t-304.5 -44t-330 -12z" />
<glyph unicode="9" horiz-adv-x="3320" d="M1179 2557q-106 29 -200.5 74t-193.5 121.5t-185 179t-168.5 251t-149.5 334.5q-92 254 -134 517q-37 227 -36 445q0 36 1 72q7 252 51.5 489.5t127.5 464.5q39 108 85.5 199t111 176.5t144 154t183 127.5t228 101.5t281.5 71.5t342 42q163 11 291 10h22 q137 -1 226 -12.5t165 -26.5t131.5 -32t123 -28.5t140.5 -15.5t184 6t253 37q40 8 61 -60q18 -63 18 -206q0 -214 -41 -606q-24 -238 -147 -1257q-9 -72 -17 -134q-42 -353 -169 -837.5t-338 -1074.5q-64 -178 -111 -455t-64 -551q-9 -137 -9 -251q0 -116 10 -210 q8 -86 28.5 -165.5t57 -155.5t94 -143.5t132.5 -116.5q182 -120 -15 -145q-50 -7 -116 -6q-104 0 -248 15q-418 43 -725 55q-120 4 -244 4q-193 0 -396 -11q8 54 21 102t32.5 91t38 75.5t47.5 71.5t49.5 63.5t56.5 66.5t56 66q75 91 116 170.5t64.5 174.5t39.5 193t58 276 t105 374q48 148 116 308.5t124 274t114.5 247t88.5 236.5q-151 -206 -372 -263q-90 -24 -195 -24q-155 0 -345 50zM2440 4547q36 233 40 414q1 26 1 51q0 148 -23 258q-27 129 -83.5 216t-141.5 133t-198 59q-48 5 -101 6q-72 0 -153 -11q-179 -22 -317 -73.5t-252 -148.5 t-185.5 -237.5t-108.5 -339.5q-33 -178 -34 -403q0 -27 1 -54q3 -181 26.5 -329.5t60.5 -254t92 -185.5t114 -130.5t132.5 -83t142 -47.5t149.5 -20q22 -1 42 -2q54 0 105 10q72 13 144.5 51.5t138 100t126.5 156t112 217t95.5 287t74.5 360.5z" />
<glyph unicode=":" horiz-adv-x="1834" d="M1599 3158q-44 -784 -731 -736q-87 7 -175.5 37t-170.5 80.5t-153 123t-122.5 157.5t-80 189.5t-26.5 215.5q5 214 60.5 372.5t159 259.5t248 153t334.5 59q116 4 219 -28.5t188 -104.5t144 -179t88 -260.5t18 -338.5zM1659 1007q-25 -131 -66 -242t-92.5 -193.5 t-114 -145t-131.5 -99.5t-144.5 -55t-153 -15t-158.5 26q-145 42 -255 104.5t-189 150t-119 199t-43.5 252t35.5 308.5q18 81 53.5 155.5t81.5 134.5t103.5 111t121 88t132.5 65.5t138 41t138 15.5t133 -10q678 -120 530 -891z" />
<glyph unicode=";" horiz-adv-x="1940" d="M1510 2350q-124 -139 -252.5 -227.5t-245.5 -122.5t-229 -24t-207 60t-175 136q-129 139 -194.5 277.5t-66.5 283.5t71.5 295.5t221.5 306.5q91 94 207 152.5t234.5 73.5t236 0t221.5 -60.5t182 -113.5q520 -451 -4 -1037zM1475 1240q50 -40 91.5 -85t80.5 -105.5 t65 -134t42 -162.5t14.5 -199.5t-19.5 -237.5q-16 -110 -51 -208t-81 -178t-109.5 -154.5t-130.5 -135.5t-151 -124q-238 -178 -560.5 -265.5t-688.5 -73.5q74 48 221.5 139t232 149.5t147.5 116.5q107 100 175.5 170t124.5 140t81.5 128t25.5 112q-76 -30 -165.5 -42.5 t-183 -5.5t-181.5 47t-148 111q-72 85 -103.5 218t-20.5 270t66.5 267t146.5 207q172 145 361 198.5t372 11.5t346 -174z" />
<glyph unicode="&#x3c;" horiz-adv-x="3551" d="M3305 1523q28 -26 43.5 -65.5t20.5 -121t-9 -220t-46 -342.5q-13 -88 -13.5 -178.5t9 -157t21.5 -120t22 -82.5l10 -27q-64 24 -129 63t-115.5 78t-133.5 98t-167 107q-153 90 -344 190t-357 183.5t-357 183t-381 211.5t-392 245.5t-424 308.5t-445 378q298 210 533 371 t432.5 286.5t339 212t312.5 179.5t290.5 155t334 173t384.5 203q229 121 598 301q-5 -84 -1.5 -162.5t14.5 -139t23 -129t24.5 -131t19 -143t6.5 -167t-13.5 -204.5t-40.5 -253q-25 8 -50.5 33t-46.5 57t-49 69t-59 67t-77.5 53t-103.5 26.5t-136 -12.5 q-131 -31 -290.5 -105.5t-326.5 -176t-323 -203t-340 -220t-316 -193.5q421 -306 851 -556.5t781 -387.5q47 22 104 62t104 78.5t90.5 73t74.5 49t44 2.5z" />
<glyph unicode="=" horiz-adv-x="3576" d="M1758 3571q192 22 370.5 55.5t298.5 64t251 75t192.5 68.5t158.5 65q57 24 84 35t68 25t63.5 17.5t49 3.5t48.5 -8q63 -24 89 -64t20.5 -93.5t-26 -124.5t-51.5 -157.5t-55 -191t-35.5 -225.5t4.5 -262q-155 -17 -339.5 -15t-376 14.5t-488 18.5t-678.5 -3 q-226 -7 -462 -23t-411.5 -28t-311.5 -11q-50 181 -88 505q-9 55 -6.5 99t7 77.5t17.5 58.5t27.5 42t37 29t45 17.5t50.5 10.5q23 3 61 -5.5t93.5 -23.5t129.5 -32t185.5 -30t245.5 -19t324.5 2t407.5 33zM1882 1529q-162 -8 -309.5 -22.5t-261 -33.5t-217 -42t-179 -46.5 t-144 -46.5t-118.5 -42.5t-94.5 -35t-78 -24t-64 -8.5t-57.5 11q-63 24 -96.5 64.5t-39.5 92.5t0.5 118t24 140t31 157.5t21.5 172t-5 182.5q86 10 175.5 23t147 22t143.5 20.5t167 17.5t217 11.5t291.5 4.5t393.5 -4q235 -5 538 -30t557 -47t385 -23q7 -44 24 -119.5 t30.5 -130t20 -128t0 -132.5t-36 -123t-82.5 -116q-21 -21 -61 -18.5t-105 21t-167.5 42t-247.5 45.5t-344 30t-459 -3z" />
<glyph unicode="&#x3e;" horiz-adv-x="3393" d="M235 2909q-28 26 -43 66.5t-20 121t8.5 219t46.5 344.5q13 88 13.5 178t-9.5 156t-22 120t-21 82l-10 28q64 -24 129 -63t115.5 -78t133.5 -97.5t166 -107.5q153 -90 344 -190.5t357 -183.5t358 -182.5t381.5 -211.5t391 -246t424 -309t445.5 -378q-298 -210 -533 -370.5 t-432.5 -286.5t-339.5 -211.5t-312.5 -179t-290 -156t-334 -173.5t-385.5 -202q-229 -121 -597 -302q5 84 1 162.5t-14.5 139t-22.5 129t-24.5 130.5t-19 143t-6 168t13.5 204.5t40 253.5q25 -8 50.5 -33.5t46 -56t49 -68t59 -68.5t77.5 -54t104.5 -27t136.5 14 q131 31 290 105t326 176t322.5 203t339.5 219.5t316 193.5q-421 306 -850.5 557t-779.5 388q-47 -22 -105 -62.5t-104.5 -79t-90 -72.5t-75 -49t-44.5 -3z" />
<glyph unicode="?" horiz-adv-x="3481" d="M1326 5720q888 143 1409 -196q135 -88 247.5 -230.5t189 -311t122.5 -353.5t57 -369q7 -112 -9 -229.5t-55.5 -245.5t-102 -250.5t-157.5 -247t-213 -230.5q-106 -94 -185.5 -186.5t-140.5 -193.5t-94.5 -210.5t-40.5 -229.5q-3 -49 13.5 -107.5t41.5 -110t52 -109 t45 -102t19.5 -91t-23.5 -75.5q-25 -12 -48.5 -9t-64.5 17.5t-81 35.5t-97 44.5t-113.5 44t-130 34t-146.5 14.5q-101 1 -210 -19t-184 -45.5t-161.5 -54.5t-129.5 -39q2 135 35.5 276t89 268.5t132.5 257t160.5 240t179.5 219t182.5 193t175.5 161.5q79 67 142 147.5 t104 157.5t70 161t43 158.5t20 151.5t5 136t-6 118q-13 132 -33 231.5t-51.5 182.5t-76.5 141.5t-107.5 100.5t-144.5 69q-136 44 -285 59t-313.5 -8t-300.5 -91q-104 -52 -176 -123t-111.5 -161t-55.5 -192.5t-11 -229.5q4 -108 24.5 -194t53 -138.5t75 -85t89.5 -40.5 t97 0t98 31.5t91 60t77 82.5q20 -94 31.5 -174t14 -144.5t1 -116.5t-16.5 -94.5t-28 -74t-43.5 -59t-53.5 -45.5t-67 -38t-76 -32t-89 -31q-112 -37 -212 -44t-179.5 13t-149.5 61.5t-123 97.5t-98 126t-75 140.5t-54 146.5t-37.5 140t-22.5 126q-20 146 -21 299t17.5 304.5 t64.5 289t116 234.5q43 61 109 126t163 139t207.5 136.5t252.5 113.5t288 75zM2475 693q11 -185 -17.5 -338.5t-87.5 -260.5t-144.5 -179t-188.5 -104.5t-219 -28.5q-190 7 -334 59t-248 152.5t-159 259t-61 373.5q-3 111 26.5 215.5t81 189.5t122.5 157t153 122.5t170 81 t175 37.5q179 13 314 -31t223 -140.5t135.5 -236.5t58.5 -328z" />
<glyph unicode="@" horiz-adv-x="5385" d="M1984 2700q11 -130 39 -243.5t70 -198.5t95 -153.5t111 -113.5t121.5 -73.5t125 -39.5t120.5 -7q80 7 146.5 35t112.5 71t81 102t55.5 123t33.5 136q-18 356 32.5 667t166.5 618q-364 94 -695 76q-143 -9 -254.5 -60.5t-185 -139t-118 -210.5t-57.5 -269t0 -320z M1520 894q61 -81 131.5 -152.5t158 -138.5t191 -121.5t225 -100t264 -75t304 -46t351.5 -15.5t398 21q162 15 305 48t248.5 75.5t200.5 97t159.5 108t126.5 114t101 108.5t82.5 99t71.5 78q24 -65 32 -137.5t6 -145.5t-5 -151t3.5 -183.5t28.5 -212.5q44 -229 0 -466 q-34 -179 -95 -240q-60 -60 -113 33l-2 4q-4 8 -12 22q-28 52 -43 77.5t-41.5 67.5t-44 61.5t-44 42t-50.5 28.5t-54.5 4t-63.5 -17q-318 -154 -696 -224t-914 -64q-300 4 -576 63t-515.5 169t-433 278t-321.5 381q-236 397 -392.5 785.5t-247 807.5t-113.5 877t7 993 q16 279 82.5 526.5t175 448t255.5 368.5t324 292t380.5 212.5t425 137t458.5 59.5q329 15 612 4.5t534.5 -66.5t480.5 -165.5t450 -293t442 -446.5q129 -155 236.5 -378t178 -460.5t116.5 -492t63 -483.5t10 -423q-10 -248 -58.5 -470t-136 -407t-208 -324t-279.5 -225 t-343 -107q-144 -16 -276 6.5t-219.5 60t-180.5 112t-135.5 119t-110.5 123.5q-71 81 -100 106q-8 -30 -19 -60t-31.5 -62.5t-46.5 -61.5t-64 -57t-84 -50t-106.5 -39t-131 -25.5t-159.5 -7.5t-189 13q-181 22 -329 88.5t-255 168t-185 240t-123.5 295t-68.5 340.5 q-36 300 -32.5 533t68 423t200.5 349q85 99 198 177.5t245 132.5t285.5 74t307.5 0q150 -20 392 -76.5t293 -64.5q43 -7 108 2.5t128 22t128 22t125 2.5t100 -36q-59 -73 -122.5 -192.5t-122 -274.5t-102.5 -319t-64 -339.5t-5 -322.5q9 -93 33 -183.5t58 -167t78 -144.5 t93.5 -119.5t104 -89t109 -55.5t109 -17t103.5 25q111 52 193.5 138t140 219.5t81 308.5t12 410.5t-62.5 519.5q-42 235 -126.5 454t-200.5 405.5t-265.5 345.5t-321 277t-367.5 197t-403 108q-254 37 -465.5 38.5t-390 -32.5t-327.5 -96t-292 -159q-137 -91 -247 -200 t-199 -244t-149 -290t-97.5 -341.5t-43 -399t14.5 -461.5q31 -358 101 -687.5t164.5 -594.5t202 -475.5t227.5 -371.5z" />
<glyph unicode="A" horiz-adv-x="3991" d="M2013 1423q-113 -3 -238.5 -30t-153.5 -57q-57 -61 -48 -225q4 -73 8.5 -118t16.5 -116t30 -126t50.5 -122t77.5 -130q33 -46 63 -84t49 -60.5t43 -46.5t32 -31t29 -24t24 -19q34 -29 11 -82q-8 -18 -51 -35t-107 -28q-90 -16 -373.5 -26t-505.5 4q-204 15 -351.5 34.5 t-238.5 44t-138 43t-97 46.5q-8 4 -12.5 27.5t-0.5 68t19 98.5t52.5 126t94 144t144.5 175t139.5 165.5t113 159.5t104.5 200q113 270 223 583t171 569q217 920 206 1401q-1 43 -3 80t-7.5 68.5t-10.5 56t-15.5 47.5t-18 39.5t-23 35.5t-25 30.5t-31.5 29t-35 28t-40 31.5 q-4 3 -5 4q-50 38 -112.5 69t-138.5 59.5t-94 37.5q-39 18 -72.5 42t-48.5 43.5t-8 28.5q13 18 28 32.5t48.5 35.5t75.5 34t112 23t156 10q129 0 210 3.5t191 15.5t203.5 34.5t215 64t259.5 101.5q153 67 263.5 102.5t175.5 40t101 -8t57 -41.5q43 -56 85.5 -308.5 t71.5 -635.5q65 -871 232 -1960q43 -284 88 -518t107.5 -486.5t146.5 -492t189 -463.5q42 -90 104.5 -183.5t118 -161.5t129 -159.5t120.5 -158.5q16 -23 7.5 -50.5t-33.5 -35.5q-43 -13 -122.5 -16t-143 1t-160.5 13t-125 12q-266 17 -472 -4.5t-506 -85.5 q-81 -17 -192.5 -53.5t-170.5 -59.5q-35 -13 -88 -19.5t-74 3.5q-62 40 36 183l193 278q270 400 269 882q-1 222 -20 428.5t-45 317.5q-132 22 -245.5 26.5t-293.5 0.5zM2378 3499q-105 -31 -223.5 -226.5t-201.5 -484.5q-60 -207 -111.5 -398t-73.5 -279l-23 -87 q204 0 367 3q257 5 374 25q-15 241 -55 722.5t-53 724.5z" />
<glyph unicode="B" horiz-adv-x="4196" d="M1788 2452q-62 -601 101 -1103q409 -108 681 0q120 49 258.5 157.5t246 234t152.5 227.5q40 92 5.5 175t-124 150t-224 114t-291.5 65q-349 43 -805 -20zM1810 3185q142 9 265 32t213.5 51.5t179 72.5t150 84.5t139.5 97.5q92 67 145 142t65.5 143.5t-4.5 139 t-52.5 129.5t-90.5 118q-63 67 -197.5 138t-299.5 122.5t-340 72t-318 -12.5q67 -295 106 -642t39 -688zM2960 5131q128 -54 239 -110.5t225 -127t216 -155.5t185 -181q50 -57 77 -125t32.5 -133.5t-7 -140.5t-34.5 -141t-57.5 -141t-68.5 -133.5t-76 -123.5 q-104 -163 -248 -322q-145 -159 -315 -299q241 -100 436.5 -204.5t356.5 -236.5q69 -57 104.5 -135t39 -156t-16 -167.5t-51 -164.5t-73.5 -152q-82 -150 -162.5 -280t-179.5 -267.5t-200.5 -255t-223 -229.5t-249.5 -202q-11 -8 -30 -22q-154 -108 -228 -157.5t-198 -125.5 t-206 -108t-209 -75.5t-252 -60t-290.5 -30t-368.5 -15.5q-91 -1 -308 -67q-190 -59 -248 -66q-103 -13 -103 48q0 35 30 95q35 69 90.5 162t100 167.5t88.5 161t70 179.5t29 187q11 374 26 1081.5t22 1012.5q4 165 6 283t-0.5 264.5t-11 260t-24.5 246t-41 248t-62.5 241 t-87.5 249.5q-39 94 -77 172.5t-94 168t-115 157t-137.5 126t-166.5 89.5q-178 64 -58 113q130 53 510 65q221 8 420 -3q114 -7 273.5 -27t373 -59.5t430.5 -91t456.5 -126t441.5 -160.5z" />
<glyph unicode="C" horiz-adv-x="3869" d="M3644 5380q33 -44 39.5 -99t-8 -144.5t-36.5 -192.5t-51.5 -291.5t-46.5 -394.5q-16 -192 -37.5 -338.5t-43 -237.5t-45.5 -147t-46.5 -75t-46.5 -12q-36 11 -56 32.5t-35 54.5t-32 70.5t-59.5 96t-104.5 117.5q-154 148 -325.5 245t-339.5 120q-88 12 -168.5 12.5 t-168 -11t-172.5 -40t-172 -73.5t-175.5 -114t-174.5 -159q-50 -51 -91.5 -113t-72 -124.5t-54 -136t-39.5 -138.5t-26.5 -144.5t-17 -140.5t-10 -138t-4.5 -127.5t-1 -117.5q0 -215 71 -477.5t190 -486.5q133 -249 306.5 -429.5t367.5 -257.5q116 -46 233.5 -74.5t248 -43 t266.5 1t262 59.5q89 31 157 66t109 66t76.5 69.5t56 69t50 73t55.5 74.5q24 28 67 81.5t67.5 83t56 59t56.5 38.5q38 13 39 -6q0 -13 -32 -105q-106 -309 -112 -661q-1 -31 -1 -63q1 -108 7 -288q7 -127 4.5 -219t-15.5 -150.5t-52 -84t-106 -20.5t-176 40 q-71 23 -156.5 21.5t-178.5 -18t-226 -32t-299 -21.5t-398 15q-87 8 -154.5 17t-147.5 24.5t-148 37.5t-147 56t-153.5 78t-159 106t-172.5 138q-114 100 -217 228t-174.5 248t-130.5 245t-93 216.5t-52 164.5q-28 111 -47 199.5t-44.5 239t-37.5 328.5t-9 370q3 172 17 315 t47.5 297t88.5 297.5t141 299.5t203 318q256 355 527.5 574t575.5 297q162 40 336.5 52.5t307.5 0t224 -40.5q271 -86 435 -83t238 94q74 90 155.5 160.5t141.5 98.5t76 5z" />
<glyph unicode="D" horiz-adv-x="4057" d="M1778 3921q-30 -140 -50.5 -271.5t-33 -305.5t-18 -298.5t-16.5 -384.5q-1 -17 -5 -121t-5.5 -142.5t-4.5 -138.5t-2 -153.5t3 -142.5t7.5 -147.5t14 -126t21.5 -119.5q78 -323 201 -497t262 -176q86 -1 172 29t160 82t145 123.5t129 150.5t110 166.5t90 168t66 155.5 q47 125 55.5 368.5t-16 517t-79.5 559t-129 490.5q-42 117 -120 209.5t-170.5 146t-195 83t-200 23.5t-179.5 -32t-139 -83t-73 -133zM94 5286q15 38 55.5 63t93 37.5t124.5 14.5t144.5 -3t160.5 -17t163 -25.5t163 -32t148 -32.5t130 -30.5t101 -23.5q436 -97 1131 -353 q294 -108 500.5 -239t352 -297.5t262.5 -399.5q114 -226 185 -467t97 -470t17.5 -459.5t-50 -439t-108 -403.5t-154 -360.5t-190.5 -300.5q-125 -164 -254 -298t-250 -233.5t-251 -177.5t-249.5 -130.5t-254.5 -91t-255.5 -60.5t-261.5 -39q-609 -67 -1365 -201 q-98 -16 -148.5 -5t-62 44t6.5 75.5t57 87.5t89 81q69 50 122 97t113 124t108 170t94.5 229.5t84.5 305.5q25 115 30 396t-3.5 745t-8.5 612q0 60 2 176v253t-4.5 246.5t-12.5 240t-26 234t-43.5 230.5t-64.5 227.5t-90 225.5q-75 159 -149.5 285t-123.5 189t-89 106.5 t-55.5 62.5t-10.5 31z" />
<glyph unicode="E" horiz-adv-x="4044" d="M3724 5185q46 -28 90.5 -246.5t90.5 -683.5q91 -906 -38 -990q-13 -8 -37.5 25.5t-83.5 121t-122 162.5q-40 48 -87 88t-94 70t-116.5 63t-129.5 57.5t-158 61.5q-163 61 -447.5 122t-578.5 92.5t-449 8.5q39 -152 54 -564q3 -73 6.5 -208.5t6 -240t5.5 -140.5 q94 -22 202.5 -25t207 10.5t181 33t148.5 44.5q79 29 146 70.5t104.5 76t66.5 64.5t47.5 42t33.5 3q23 -16 42.5 -65.5t30 -125t0 -186.5t-44.5 -232q-32 -111 -38 -225t6.5 -201.5t29.5 -160t28.5 -126.5t5.5 -77q-2 -11 -14 -12t-31 6.5t-44 20.5t-56 31t-63.5 37t-70 39 t-73.5 37.5t-75 31.5t-73 21q-110 23 -239.5 33.5t-211 10.5t-176 -3t-97.5 -3q-7 -71 -19 -203t-21 -229.5t-26.5 -234t-38.5 -245.5t-55.5 -231.5t-76.5 -223.5q84 -24 236.5 -31t348 0t513.5 26q98 6 197.5 36.5t184.5 76t167.5 106t148.5 123t126 130t102.5 124.5 t74.5 110q93 149 194 223q78 57 103 24q2 -3 3 -6q29 -61 41 -154t8.5 -209t-11 -206.5t-21.5 -211.5q-4 -34 -15 -116.5t-17 -136t-13 -137.5t-5.5 -151t7 -145t23.5 -151t46 -139q-195 -25 -360.5 -33.5t-499.5 1t-888 43.5q-677 42 -1057.5 44.5t-603.5 -33.5 q-204 -33 -268 5q-26 16 -15 41q22 52 77.5 173.5t100 220.5t106.5 259t110 311t95 352.5t77 406.5q52 361 56.5 820t-44.5 909t-144 741q-12 37 -29.5 82t-57.5 129.5t-89 171t-127 202.5t-168 229q159 0 363 -15t581 -58q456 -53 702 -79t691 -67q101 -10 191 -12.5 t161 -1t138.5 10.5t115 17.5t98.5 26t81.5 29.5t71 34.5t60 34.5t56.5 36q13 8 20 13q18 12 42 32t45 39t45 39.5t46.5 35.5t44.5 25t44 10t42 -12z" />
<glyph unicode="F" horiz-adv-x="3545" d="M2569 3665q102 127 159 -57q65 -210 57 -725q-7 -320 -41 -580t-80 -425q-46 102 -86.5 177t-92 145.5t-112 127t-136.5 103.5q-185 114 -306 168.5t-243 73.5q0 -17 -11 -129.5t-20 -310t-5 -431.5q4 -270 27 -471t60 -342.5t102 -294.5q47 -106 119 -218.5t129 -182.5 q9 -11 25 -28.5t26.5 -29.5t21.5 -27t13.5 -26t-2.5 -21.5t-20 -19t-45.5 -14.5t-73.5 -9q-128 -8 -290 -33.5t-369 -63.5t-360 -60q-240 -34 -487 -38.5t-351 23.5q-28 8 -34 35.5t10 75t44.5 105.5t70 136t84 154t90 174.5t84.5 183.5q124 294 193.5 695t63.5 768 q-2 146 -4.5 250.5t-8.5 247.5t-15.5 250.5t-23.5 242.5t-33.5 242t-48.5 229t-64.5 226t-83.5 210.5t-105 201.5q-40 69 -118 196q-165 269 -197 339q-28 67 -1 72q381 50 913 12q93 -7 241.5 -22t257 -23.5t256 -14.5t318.5 1t364 28q188 20 331.5 41t225 38.5t148 41 t91.5 36.5t65 37q9 5 12 7q10 -66 29 -146t32.5 -139.5t27 -161.5t17.5 -222q8 -175 4 -293.5t-13 -180t-21 -69.5q-20 -15 -89.5 18.5t-191.5 107.5q-99 62 -214 92t-262.5 34t-348.5 -6q-177 -8 -329 -23.5t-237 -27t-119 -11.5q-9 -72 -5.5 -154.5t13 -143.5t25.5 -142 t31 -151t31.5 -169.5t26.5 -197.5h8q249 -2 535 151q43 23 79.5 52t67.5 65t54.5 67.5t56.5 77.5t58 76z" />
<glyph unicode="G" horiz-adv-x="3856" d="M1413 5151q190 50 345 66.5t320 -0.5t352 -72q94 -28 195.5 -61t163.5 -55t129.5 -44t112 -32t95 -15t92.5 3t89.5 25.5t100.5 49.5q37 22 83 62.5t84.5 79t74.5 73t61 51.5t35 7q15 -15 22 -83.5t4 -170.5t-25 -249t-61 -295q-189 -713 -446 -868q-108 207 -326 422 q-276 271 -807 325q-111 11 -204.5 11.5t-192.5 -13t-194.5 -48t-186.5 -89.5q-185 -115 -277 -284t-129 -462q-9 -72 -13.5 -145t-5.5 -132.5t4 -142t9 -133t16.5 -146.5t19 -142t24 -161t23.5 -165q13 -94 30 -184.5t42 -202t54 -210t70 -203.5t86.5 -190.5t105 -162 t125.5 -126.5q93 -71 219.5 -114.5t251 -55t247.5 -5t220.5 29.5t159.5 54q66 35 134 133t120 220t90.5 243.5t54.5 217.5q38 226 -248 403q-108 67 -346 167q-172 73 -216 105q-53 40 -20 74q25 26 73 47.5t100 35.5t130 24.5t136.5 16.5t146.5 10.5t133.5 6t123.5 2.5 q24 1 35 1q172 4 353.5 -2t252.5 -12.5t218 -19.5q-1 -50 -17.5 -113.5t-37 -119t-41.5 -142.5t-30 -175q-7 -71 -17 -179.5t-15 -171.5t-15.5 -157.5t-20 -154.5t-24.5 -143t-33 -141.5t-43.5 -132t-55 -134.5t-70 -128t-87.5 -131q-99 -132 -235.5 -234.5t-288 -164 t-322 -97.5t-338.5 -43t-334 7t-313.5 47t-270.5 81q-132 51 -249.5 126t-212 163t-176 194t-143 217.5t-112.5 236t-87 245.5t-60 250q-158 803 -136 1618q18 713 418 1264q136 188 277 315.5t288.5 203t332.5 124.5z" />
<glyph unicode="H" horiz-adv-x="4434" d="M2044 5232q174 0 460 21.5t609 61.5q102 13 152 19t153 17.5t161.5 16t152.5 11t153.5 5.5t136 -4.5t128.5 -12.5t102.5 -25t86.5 -38q23 -15 24 -50.5t-20.5 -87t-63 -112.5t-109 -132t-151.5 -139q-373 -302 -422 -2161q-12 -435 -4 -791.5t27.5 -626t51.5 -471 t68 -327t75 -194.5q74 -127 171 -231.5t184.5 -160.5t152.5 -63q40 -4 76.5 -28t58.5 -57t35 -67.5t12 -60.5t-14 -34q-48 -27 -155 -62.5t-248.5 -69.5t-321 -59t-344.5 -27q-65 -1 -193 -4q-371 -11 -654.5 -6.5t-300.5 38.5q-9 16 4 42t49.5 64.5t68 69t88 82t83.5 76.5 q69 65 119 167.5t79 230.5t46 284t19.5 330t-0.5 367q-9 371 -19.5 636.5t-17 375t-6.5 151.5q-116 -8 -275 -9t-277.5 0t-282.5 -13.5t-323 -48.5q9 -221 90 -654q48 -257 139.5 -468t242.5 -426q86 -123 139 -215t70.5 -149t14.5 -89.5t-24 -50.5q-27 -23 -187 -43 t-356.5 -22.5t-374.5 27.5q-132 24 -265 39.5t-225 23t-214 8.5t-175.5 0.5t-169 -4t-137.5 -4.5q2 44 36 90.5t88 93t111.5 90t123.5 98.5t107 102q73 84 128.5 241t87.5 335.5t52 399t27 408t7 386.5q0 398 -85.5 768t-252.5 681q-47 86 -118 186.5t-138.5 182t-129 151 t-99.5 109.5l-38 39q1 1 13 10.5t17.5 12.5t27 13.5t43.5 16.5t65 17t94 19.5t129 21t169.5 24t215.5 25t269 27.5q111 11 783 81q271 28 330 19q46 -9 42 -43q0 -4 -1 -9q-18 -81 -63 -171t-102 -174.5t-115 -167t-117 -178.5t-95 -180q-75 -174 -127 -350t-74 -313 t-30.5 -227t-7.5 -147q138 0 295.5 19.5t283 44.5t296.5 49.5t322 33.5q0 162 -6.5 439t-20.5 432q-11 129 -27.5 248.5t-46 246.5t-67.5 229t-93.5 186t-121.5 127q-85 55 -140 97.5t-103.5 91.5t-72 99t-24.5 103z" />
<glyph unicode="I" horiz-adv-x="2502" d="M377 4163q111 -8 200 -20.5t132.5 -23.5t109 -21.5t129 -12t191.5 3.5q464 26 950 139q150 42 196.5 23t27.5 -147q-40 -259 -349 -663q-119 -156 -196.5 -516t-82.5 -835q0 -218 -2.5 -390t7.5 -316.5t20 -254.5t34.5 -204.5t51.5 -165t72 -136.5t94 -119.5t119 -112.5 q108 -94 150.5 -187.5t18.5 -164.5q-226 -11 -375 -14.5t-541 -11.5q-223 -3 -461 -17t-371 -23.5t-172 -3.5q-26 3 -46.5 7t-41 11.5t-31.5 16t-15.5 20.5t3.5 27t29 35q60 53 97.5 89.5t92 97t114 142.5t131.5 196q64 100 111.5 196.5t93 238t72.5 303t39 385t4 489.5 q-9 261 -29.5 461.5t-43.5 327.5t-70 255.5t-80 195.5t-104 196q-9 16 -14 26q-34 62 -68 115.5t-60 87.5t-50 64.5t-40.5 50t-29.5 39t-18.5 36.5t-5.5 38t7 47zM1738 5926q92 -94 143.5 -180t78.5 -197t32 -268q3 -114 -3.5 -194t-25.5 -141.5t-45 -105.5t-70 -97 q-105 -128 -234.5 -187.5t-313.5 -70.5q-232 -15 -395 24.5t-277 158.5q-84 87 -139.5 189t-79.5 203t-26 204.5t17 197t53 178.5q73 171 181 270t291 166q242 88 450 48.5t363 -198.5z" />
<glyph unicode="J" horiz-adv-x="4157" d="M2819 5057q328 -9 572 -20t394 -25.5t212.5 -22.5t140.5 -21q4 -24 6 -39t1 -38t-7.5 -39.5t-19.5 -40.5t-35 -44t-55 -47t-77.5 -54.5t-104 -60.5t-134.5 -69q-72 -35 -131.5 -90t-103 -114t-78.5 -150t-58 -164t-40 -189.5t-26.5 -193.5t-16.5 -210.5t-8.5 -205.5 t-5.5 -211q-2 -113 -4 -168q-20 -708 -51.5 -1130.5t-85 -681.5t-143.5 -441q-47 -93 -115 -187.5t-151.5 -179.5t-184 -147.5t-197.5 -83.5q-86 -18 -235 -31t-327 -16t-368.5 15.5t-324.5 59.5q-106 33 -202 83t-173 110t-149 137.5t-129.5 157t-114.5 174.5 q-69 114 -112.5 235t-60.5 235t-14.5 243.5t18 245.5t44.5 257q24 114 72 226t105.5 200t132 176t135 148t131.5 122q60 52 134 84t153 36t154 -19.5t142 -84.5t110 -156q73 -157 91.5 -374.5t-18 -417.5t-116.5 -316q-12 40 -27.5 167t-33.5 198q-13 54 -41 98.5t-63 75 t-78 42t-85.5 3t-86.5 -46t-81 -100.5q-71 -123 -107 -318t-11 -363q11 -74 33.5 -138t47 -110.5t66.5 -91t73.5 -72t86.5 -60.5t85.5 -48.5t89.5 -45.5q15 -8 23 -12q141 -69 312 -77.5t319.5 43.5t224.5 153q123 161 164 493q42 333 31 957q-10 579 -38 962.5t-65 522.5 q-56 217 -213 400t-434 357q-215 136 -313 268q-78 105 -33 148q11 11 28 15q92 27 186 47t228.5 38t290.5 26t373.5 12t476.5 -5z" />
<glyph unicode="K" horiz-adv-x="4108" d="M1073 4956q178 9 316 10t229.5 -5.5t152.5 -16t94.5 -26t48 -32.5t19.5 -38q3 -16 3.5 -32.5t-3.5 -43.5t-16.5 -64t-34 -86t-56.5 -117t-83 -150q-73 -126 -139 -339.5t-104 -425t-41 -359.5q67 -8 185.5 49t226.5 154q35 31 63.5 60.5t50.5 53.5t43.5 55.5t34.5 51.5 t33 57t31 57t34.5 67l36.5 73q165 325 160 656q-1 111 -33 240q-20 62 -7.5 80t89.5 12q204 -20 321 -48t447 -127q137 -40 256 -62.5t194 -25.5t184.5 -14.5t215.5 -32.5q-11 -31 -21.5 -55t-29.5 -46.5t-34.5 -39.5t-48.5 -38.5t-59 -38t-79 -43t-96 -47.5t-122 -61 t-145 -72q-69 -36 -144 -106.5t-147.5 -162.5t-148 -199t-160.5 -226.5t-170.5 -233t-191.5 -230t-211 -206.5q353 -138 598.5 -267.5t472.5 -295.5q77 -56 117 -87t94 -76.5t77 -72.5t54.5 -72t39.5 -79.5t19 -90t6.5 -107t-12.5 -128.5t-23.5 -157.5t-39.5 -189.5 t-38 -177.5t-33 -166t-28 -160t-16.5 -143.5t-4.5 -134t10 -113.5t26 -100.5t46 -78t67.5 -61t92.5 -35q132 -29 286 -92t283.5 -137t233.5 -147.5t154 -132t27 -82.5q-26 -27 -71.5 -33.5t-112.5 -1.5t-145.5 9t-193 -5.5t-231.5 -40.5q-126 -34 -258.5 -33t-311.5 39 q-161 34 -273 100t-202 187q-55 75 -97 185.5t-66 235.5t-37 230.5t-19 218.5q-4 89 -4 195.5t3 196.5t-5.5 229t-30.5 293q-24 158 -71.5 286t-115.5 221.5t-148 159.5t-180 116q-85 42 -193 71.5t-212 43t-182.5 19t-142.5 5.5q-10 -172 -0.5 -342.5t41.5 -447.5 q12 -107 30.5 -204t37.5 -171t46 -146.5t48 -121t52.5 -106t51 -88t51.5 -81t46 -71.5q16 -27 56.5 -93t58.5 -96t50 -82.5t49.5 -82t36 -62.5t30.5 -56q-86 -29 -201 -35t-397 -5h-93q-131 0 -425 -26t-442 -47q-89 -12 -176.5 -29.5t-136 -28.5t-91.5 -19t-66 -3t-37 24 q-24 31 7.5 77t151.5 178q25 27 38 40q69 75 118 147.5t98 182.5t93 263.5t90 372.5q67 323 91.5 636t19.5 822q-2 195 -7.5 346t-19 282t-22.5 198.5t-30.5 204.5t-30.5 192q-27 184 -53.5 287.5t-67 185.5t-122.5 201q-30 44 -62 86t-55.5 70.5t-45.5 54.5t-35 43 t-22 33.5t-7.5 29.5t9.5 26q27 37 129.5 49t522.5 31q151 7 239 11z" />
<glyph unicode="L" horiz-adv-x="3744" d="M93 5193q152 81 519.5 88.5t831.5 -62.5q468 -72 854.5 -179.5t610.5 -213.5q94 -44 11 -80q-51 -22 -263 -66q-217 -46 -303 -80q-126 -49 -230 -189t-194 -398.5t-165 -637.5q-43 -222 -77 -442t-55 -395t-34.5 -376.5t-19.5 -334.5t-7.5 -324.5t-1 -290.5t3.5 -286 q89 -2 173.5 -14.5t137.5 -25.5t126.5 -24.5t140 -12t177.5 12.5q98 13 182.5 43t151 71.5t127.5 98t108.5 117.5t96.5 139q33 52 119 248q93 215 145 278q61 75 108 22q62 -71 106 -151t79.5 -195t53 -275t16.5 -363q0 -91 -1.5 -169t-2.5 -138t-4.5 -119t-5 -95.5 t-7.5 -84.5t-7.5 -69t-10 -67t-10.5 -60t-12 -65.5t-13 -67.5q-59 0 -145.5 15t-194 37t-238.5 43t-323.5 35.5t-405.5 13.5q-240 -1 -435.5 -18t-309 -37.5t-279 -49t-311.5 -43.5q-153 -16 -260 -23t-170 -2t-91 10.5t-63 18.5q7 22 37 91.5t66 154.5t88.5 236t101.5 318 q364 1266 201 3170q-15 174 -85.5 371t-168 346.5t-186.5 193.5q-110 55 -210 150q-130 119 -99 178q8 14 26 24z" />
<glyph unicode="M" horiz-adv-x="5207" d="M311 4698q64 0 191 -24t247.5 -48.5t285 -36t304.5 10.5q252 37 432 35t289 -51.5t139 -147.5q23 -76 45 -155.5t38.5 -138.5t42 -159.5t39 -155.5t47 -190t50.5 -205q11 -46 38.5 -156.5t38 -150.5t33 -126t36.5 -133t35.5 -118.5t44.5 -135.5t49 -134q212 364 317 694 t117 682q4 125 -2.5 296.5t-14.5 294.5t-6.5 236.5t20.5 159.5q20 48 48.5 80.5t68.5 50t82.5 26t102.5 12t116 5t135 6t148 13.5q111 15 218 42t181 50.5t147 45t146.5 30.5t148.5 2q-13 -20 -52 -70t-57 -75.5t-51.5 -72.5t-53.5 -82.5t-45 -83t-43.5 -96t-32.5 -100.5 q-38 -136 -58.5 -244.5t-35.5 -290t-19 -439.5q-7 -388 40.5 -849t150.5 -1097q52 -316 111.5 -566t136 -445.5t159.5 -275.5q171 -169 223 -235q92 -117 37 -155q-61 -42 -281.5 -66.5t-534.5 -24.5q-307 0 -532.5 32.5t-555.5 124.5q131 227 307 612q67 150 115 316 t72.5 335t34 322.5t9.5 323.5q0 87 -2 175.5t-8.5 201t-11 184.5t-17 217.5t-17.5 204t-21 239.5t-21 232q-31 -177 -64.5 -329.5t-76.5 -301t-69.5 -232t-82 -248.5t-73.5 -224q-21 -64 -51 -152.5t-51 -150t-46 -139t-41 -134t-31 -119t-21.5 -109.5t-6 -91t8.5 -75 q13 -50 31.5 -101t39 -98t34.5 -78.5t33.5 -72t21.5 -46.5q-9 -10 -27 -23.5t-52.5 -32t-80 -32.5t-110 -27t-141.5 -13.5t-175 8.5q-103 11 -188.5 32t-139 43.5t-99 51.5t-67.5 50.5t-47 46.5t-37 34q11 24 41 79t54 103.5t50.5 112t43 134.5t18.5 140q4 119 -23.5 316.5 t-75.5 397.5q-43 185 -157.5 476.5t-269.5 574.5q15 -297 -18 -617t-111 -792q-55 -329 -80.5 -634t-8.5 -528q7 -85 35.5 -180t76.5 -225.5t72 -210.5q-307 -88 -529 -107.5t-568 12.5q-90 8 -164 23.5t-133 39t-98.5 45t-89.5 52.5q-47 29 -52 94.5t23.5 135t74.5 123.5 q5 5 17 18q48 55 78 93t82.5 112t102.5 169.5t98 208.5q49 119 91.5 229t86.5 230t81 233.5t72 232.5t63 234.5t51.5 233.5t39 234.5t24 232.5t8.5 232.5t-7 230.5q-10 126 -24 221t-37.5 190t-57 168.5t-84 143t-118.5 129.5q-102 89 -178 166t-121.5 135t-65 86.5 t-40.5 65.5q-6 8 -8 11z" />
<glyph unicode="N" horiz-adv-x="4601" d="M2262 5154q7 11 15.5 16.5t32.5 11.5t54 9t94 6t135.5 5.5t194.5 5.5q343 8 799.5 -31t904.5 -114q-1 -3 -12.5 -56t-14 -63.5t-15 -60.5t-21.5 -74.5t-26 -76.5t-35 -95t-44 -103.5t-57 -124.5q-66 -138 -115 -268t-95.5 -307t-73 -370t-38.5 -448t-1 -549 q15 -421 36.5 -721t56 -569.5t89.5 -469.5t133 -358q24 -49 58.5 -103.5t70 -104.5t74 -101.5t73.5 -96t66.5 -86.5t55 -76.5t36 -61.5t11 -45t-17.5 -24q-38 -13 -84 -16.5t-111 1t-145 8.5t-214.5 0t-288.5 -20q-350 -38 -568.5 -47.5t-352.5 3.5q13 103 20 200t8 211.5 t-8 221t-31.5 223t-57 223t-89 216.5t-126.5 206q-102 139 -200 302.5t-198 359.5t-182 371t-194 425q-121 -278 -136 -816q-5 -206 1.5 -348.5t31 -278t71.5 -251t123 -244.5q36 -60 86.5 -125.5t97.5 -115.5t88.5 -91t66.5 -63l26 -23q-341 -115 -684 -175t-802 -73 q-661 -18 -655 78q1 16 21 37q18 17 66.5 58t94.5 80t107.5 103.5t114 132.5t105 165.5t87.5 203.5q46 137 70.5 212.5t61.5 212t54 237t35.5 251.5t20 293t-9 325.5t-36.5 381.5q-111 839 -431 1236q-61 75 -171 162t-310 231q241 67 501.5 110.5t587.5 58.5q46 2 139 6 q103 5 155.5 7.5t148 5t149.5 0.5t137 -7t134 -15t115 -28t107 -43t84 -59t68 -78q64 -100 109 -218t68 -229.5t40 -246t25 -249t23.5 -258.5t36.5 -255q40 -228 92 -390t143 -340.5t254 -432.5q27 168 33 433t-1 621q-2 209 -10.5 379.5t-26 310t-30 215.5t-34.5 198 q-7 34 -10 50q-97 516 -434 889q-76 85 -148 155t-116.5 108t-79.5 65t-47.5 39.5t-9.5 17.5z" />
<glyph unicode="O" horiz-adv-x="3468" d="M1227 3427q-17 -94 -31 -190.5t-21 -193.5t-11 -169t-4.5 -173t-0.5 -147t1.5 -148t2.5 -125q5 -446 393 -724q78 -56 169.5 -95.5t193 -55t200.5 -6.5t198 52.5t180 118.5q82 77 143.5 166.5t102 183t67 208t38.5 229t17 256.5q1 30 4.5 130.5t4.5 128t3 112t1 113.5 t-3 101.5t-6.5 107.5t-10.5 97.5t-16 107.5t-23 102t-29 112q-40 136 -83 237.5t-87.5 168.5t-82.5 108t-88 82q-46 36 -114.5 59t-156.5 30.5t-196.5 -12.5t-215.5 -69q-97 -44 -174.5 -109.5t-133 -145.5t-100 -184.5t-75 -214.5t-56.5 -249zM1732 5356q97 10 182.5 9.5 t148.5 -7.5t128.5 -24t110.5 -33t106 -42q75 -31 137 -63.5t135.5 -80t144.5 -113.5t136 -148q142 -177 221 -322t159 -388q42 -129 65 -205.5t49.5 -188.5t39.5 -215t23.5 -248.5t13.5 -327.5q9 -477 -22.5 -770.5t-130.5 -694.5q-43 -177 -91.5 -311.5t-113.5 -255.5 t-149 -217t-194 -180t-253 -158q-174 -90 -440 -129t-658 -27q-265 9 -472 110.5t-423 318.5q-89 89 -181.5 239t-152 289.5t-74.5 226.5q-59 330 -78.5 664.5t-1.5 815.5q13 379 66 678t146 562q88 248 221 452t350 407q89 84 173.5 144.5t160.5 100t162.5 66t167 41 t188.5 25.5z" />
<glyph unicode="P" horiz-adv-x="3967" d="M1654 3472q30 -241 45.5 -440.5t22 -322.5t16.5 -192q355 30 580 102q100 31 190 73.5t175 99.5t149.5 123t108.5 148.5t57 172.5q23 165 -7 340t-104.5 320.5t-177.5 220.5q-187 135 -441.5 211.5t-552.5 95.5q-118 8 -148 -99q-25 -91 10 -337q8 -53 27 -172 q35 -219 50 -344zM2252 54q-47 -20 -76 -30.5t-74 -25t-83.5 -23t-94.5 -18t-117 -13.5t-140 -7t-175 -2.5t-212 3.5q-163 5 -292 21.5t-200.5 33t-146 29t-170 12t-228.5 -20.5q27 65 66 126.5t82.5 114.5t88.5 108.5t96 130.5t92 159q76 152 123.5 297.5t77 326t34.5 417 t-6 534t-42 712.5q-29 386 -71 689.5t-89 513.5t-112.5 380t-128 280t-148.5 223q-180 235 -206 290q-20 42 10 52q13 4 57 5q34 0 124.5 -15t204 -34t318.5 -40t433 -31q1057 -47 1618 -372q246 -143 429.5 -333t323.5 -435q121 -213 170 -386t51 -369q0 -99 -16 -191 t-43 -170.5t-69 -154.5t-89.5 -139t-110.5 -126t-123 -114t-136 -104.5t-142 -96t-149 -89.5q-55 -33 -115 -62t-129 -54t-127 -45t-139 -41t-134.5 -34.5t-144 -31.5t-137 -27t-144.5 -27t-136 -24q0 -436 49.5 -752t153.5 -546q35 -77 152 -255.5t142 -218.5z" />
<glyph unicode="Q" horiz-adv-x="3713" d="M975 3665q-46 -61 -84 -142.5t-70 -191.5t-50 -240t-22.5 -286.5t12.5 -332.5q13 -150 73 -334.5t143.5 -342t161.5 -222.5q12 51 13.5 107.5t-0.5 89t9 65t41 54.5q75 13 133 37.5t100 51.5t87 54.5t118 55t168 47.5q69 -77 118.5 -147t75.5 -125.5t43.5 -107t30 -99.5 t28 -95t44 -101t71.5 -108q99 22 178 64.5t136 100.5t105 140t80.5 171t62.5 205q93 362 70 845q-8 150 -41 288.5t-94 301.5q-33 87 -62.5 148.5t-72 123.5t-98.5 113t-132 97q-148 89 -343 125.5t-366 10.5q-105 -16 -205.5 -56.5t-184 -98.5t-152.5 -124.5t-125 -141.5z M2160 5245q168 -24 315 -80t263.5 -136t214.5 -187t171 -227t130 -260q46 -114 69 -173t58 -153.5t53 -155t42 -154t38 -176.5t29.5 -194t26.5 -235t21 -276q11 -177 12 -336.5t-8.5 -294t-28.5 -258.5t-44 -227.5t-58.5 -201.5t-70 -179.5t-79.5 -162.5q-35 -64 -54 -98 t-47 -84.5t-45 -76.5t-43.5 -65.5t-46 -63t-48.5 -56t-56 -56t-62 -53t-73.5 -57.5t-84.5 -58q48 -74 77 -123.5t84.5 -151.5t122.5 -251.5t150 -353.5q40 -102 82 -182.5t92.5 -151t103 -113t116 -63t131.5 -10.5t149 55t169 127q24 25 23 51.5t-20 62t-48.5 70t-60 73.5 t-55.5 73.5t-36 70t-2 63.5q1 0 23.5 -0.5t30.5 -1t34 -3t42 -5t45 -7.5t52.5 -12t55.5 -17t62 -22.5t65 -30t71 -38.5q46 -26 80 -58.5t54.5 -65t33.5 -72t17.5 -73t4 -75.5t-4.5 -73.5t-10 -70.5q-24 -144 -190 -277.5t-455 -239.5q-130 -48 -279 -67t-280.5 -10 t-241.5 33.5t-183 60.5q-55 28 -106 67.5t-108.5 105.5t-111 152.5t-113 212t-115.5 281.5q-104 286 -231.5 489.5t-255.5 317.5q-329 22 -657 143q-74 27 -136.5 57.5t-136 81.5t-140 116t-141 162t-147.5 220q-71 118 -123.5 228t-105.5 273.5t-87 345t-55.5 434 t-19.5 548.5q1 259 34.5 500t87.5 435.5t132 374t162 319t184 265.5q106 136 266 241.5t354 170t416.5 86t454.5 -12.5z" />
<glyph unicode="R" horiz-adv-x="3697" d="M1419 4170q1 -4 6 -14q18 -52 31 -94.5t35.5 -127t40.5 -193.5t29 -233q16 -191 25.5 -350t11 -228t2.5 -176q180 5 363.5 79t311.5 205q129 133 175.5 267t38.5 288q-8 140 -58.5 263.5t-140.5 201.5q-50 43 -93.5 70.5t-99.5 48.5t-124 29t-157 5q-84 -3 -146.5 -9 t-143 -17.5t-107.5 -14.5zM900 5155q428 -67 745 -148t702 -229q794 -306 1120 -902q40 -75 67.5 -156.5t39 -179.5t2 -197t-49 -209t-106.5 -211q-47 -72 -115 -143t-139 -129t-146 -111.5t-141 -92.5t-118 -68t-83 -45l-30 -14q49 -13 75 -21t66 -22t66.5 -30t60 -40 t64 -56t61.5 -74q39 -53 64.5 -103.5t37 -104t16 -94t7.5 -104.5q12 -260 6 -436q-10 -283 72 -606q25 -94 60.5 -193.5t89.5 -221t98.5 -213t126.5 -254.5q65 -131 111 -217.5t91.5 -157.5t78.5 -112.5t80 -82t87 -67.5t108 -66q60 -35 133.5 -47.5t136.5 -6t111 17.5 t72 24q52 28 94.5 109.5t64.5 200.5q12 65 9 155.5t2 92.5q2 1 13.5 1.5t34 -2t50.5 -9t67 -23t79 -39.5q94 -56 156 -131t99 -192q40 -126 21 -262.5t-90 -238.5q-12 -18 -29 -34.5t-34 -29.5t-47.5 -27t-52 -24t-66 -23.5t-72 -21.5t-88 -24t-95.5 -24t-111 -25 q-150 -36 -251.5 -55t-204.5 -26.5t-194.5 1.5t-194.5 35q-42 11 -65 17t-61 18.5t-62 23.5t-60 29.5t-62.5 39t-62 50t-67 65t-68.5 81.5t-75 100q-216 313 -355.5 568t-246.5 536q-64 167 -104.5 282.5t-83.5 262t-70.5 291.5t-42.5 303q-21 206 -61.5 352.5t-95.5 239 t-139 172.5q-56 54 -116.5 93t-112 58.5t-90.5 28t-70 8.5q0 -11 4 -264q4 -306 45 -548q28 -162 66.5 -259t153.5 -291q36 -62 71.5 -119t54.5 -87t34.5 -56t22.5 -40t10 -25q9 -30 -7.5 -48t-69.5 -17q-17 0 -44 6t-58 11.5t-110 8.5t-191 0q-239 -5 -362.5 -24.5 t-338.5 -83.5q-287 -86 -471 -85q-49 0 -96.5 11.5t-81.5 37.5t-33 59q0 25 7 53.5t33 88.5t55 123t92 204.5t125 285.5q67 157 110 268.5t79.5 249.5t52.5 266t25.5 316.5t6.5 404t-13 525.5q-9 263 -33.5 482t-57 380.5t-84.5 316t-101.5 266.5t-121.5 255 q-71 137 -148.5 269t-113.5 194.5t-39 82.5q85 5 260 -16.5t550 -81.5z" />
<glyph unicode="S" horiz-adv-x="3617" d="M2992 5479q76 59 137.5 95.5t110.5 52.5t82 19.5t73 2.5q-7 -37 -29 -99.5t-42 -126t-36 -140.5t-13.5 -170t29.5 -188q36 -127 49.5 -237t6.5 -218.5t-26 -204t-55 -223.5q-28 20 -53 52.5t-49 71t-53 80.5t-79.5 89t-115.5 88q-221 136 -487 185q-266 50 -502 -8 q-141 -37 -257 -104.5t-187 -148t-99 -171.5t-3 -174q27 -92 76 -167t116 -132t159.5 -103t198 -79.5t239.5 -62.5q123 -26 257.5 -68t279.5 -103.5t279.5 -146t226.5 -179.5q218 -225 299 -526.5t49 -697.5q-11 -136 -22 -232.5t-31.5 -207t-48.5 -202t-71 -192 t-102.5 -202.5t-137.5 -213q-85 -117 -178 -203t-195 -144.5t-227.5 -93.5t-261.5 -51.5t-310 -17.5q-125 -1 -231.5 13t-216.5 50.5t-215.5 105t-204.5 168.5q-98 98 -165 197.5t-110 201.5t-81 204.5t-106 247t-156 290.5q-36 60 -86 113t-97 88t-96 74t-88 73t-70 80.5 t-44 99.5q24 4 127.5 27t169.5 34t191 28t282 27t351 15q400 -9 511 -41q84 -24 84 -75q0 -46 -81 -155q-13 -18 -32 -44q-157 -210 -181.5 -385t83.5 -299q62 -72 167.5 -109t229 -31t230.5 59q59 29 115.5 74.5t113.5 118.5t100 160.5t71.5 207.5t30.5 252q1 82 -11 152.5 t-30.5 127.5t-58.5 109t-77.5 92t-106.5 82t-125.5 72t-155 70.5t-175.5 68.5t-203 74q-183 65 -328.5 127t-275.5 135t-225 151.5t-167 169.5t-114 195q-62 153 -86 343.5t-7.5 384.5t78 389t164.5 348q67 100 140 183.5t148.5 146t152 111t155.5 80.5t156.5 53t158 29.5 t154 8.5t150.5 -9q144 -16 245.5 -41t153.5 -51.5t86.5 -51.5t72.5 -47.5t85 -31.5q100 -21 202.5 13t250.5 147z" />
<glyph unicode="T" horiz-adv-x="4290" d="M4088 5611q28 2 56 -66.5t49 -189.5t37 -285.5t19 -354t-3 -397.5q-1 -17 0 -51q-9 -230 -14.5 -347t-14.5 -277.5t-22 -241.5t-30 -103q-36 37 -91 104t-105 130.5t-121 142t-143 145t-168.5 133t-198.5 113.5q-129 59 -275 96.5t-269 47t-207 -17.5t-94 -91 q-63 -426 -84 -1091.5t-3 -1174.5q7 -177 30 -338.5t54.5 -280.5t69.5 -217t72 -157t65 -89q82 -81 148 -164.5t107 -155t68 -137.5t37 -119.5t10 -95t-11 -68.5q-142 22 -248 23.5t-210 -11.5t-294 -49q-104 -20 -172.5 -31.5t-161.5 -25t-172 -21.5t-175.5 -13 t-200.5 -4.5t-222 5.5q-61 3 96 299q38 71 120 220q82 148 111 206q46 89 81 202t64.5 278t44 370.5t19 478.5t-9.5 603q-8 205 -17 370t-23 326t-31.5 284.5t-43 233t-55.5 185.5t-69.5 128.5t-87.5 74.5q-67 31 -149.5 27t-168 -32t-171 -75t-159 -102t-132.5 -113 q-42 -42 -95.5 -114t-95 -132.5t-87 -116t-77.5 -74.5q-52 114 -92 296.5t-61 501.5q-50 727 -1 946q67 -36 108 -57t97 -46.5t93.5 -38t92 -28t99.5 -20t109.5 -9t127.5 -1t149 9t178 16.5t209 27q277 38 536.5 57.5t441 22t356.5 2.5t302 -1t258.5 12t243.5 42 q88 23 157 60.5t109.5 79t72.5 86.5t55.5 86.5t47 75t57.5 55t78 23.5z" />
<glyph unicode="U" horiz-adv-x="4438" d="M46 4740q18 4 29 2t37.5 -4t52 -6.5t72.5 -4.5t99.5 2t134 12t173 26t219.5 44.5t271 66.5q912 244 1147 199q112 -22 45 -112q-24 -33 -67 -89t-69 -91t-65 -89.5t-64.5 -96.5t-56 -100t-51.5 -110.5t-40 -117t-31 -131.5q-56 -317 -84 -626.5t-23.5 -643t48.5 -638 t141.5 -605.5t245.5 -549q46 -76 116.5 -128t150 -71.5t164 -2t150.5 73.5q43 37 76 79.5t67 119.5t55.5 180.5t40 265t25.5 370t5 497.5t-16 647q-22 542 -54.5 918t-81 621t-107.5 382.5t-142 214.5q-63 60 -118.5 116t-116 124.5t-88 119t-8.5 68.5q49 49 159 78 t244.5 35t284 -1.5t283 -24.5t238.5 -40q131 -29 291.5 -41t331 -19.5t285.5 -24.5q-72 -42 -120 -80.5t-93 -95.5t-78 -135.5t-60 -187.5q-34 -135 -53 -220.5t-45 -230t-40.5 -285t-28.5 -348t-21 -456.5q-4 -151 -12 -468t-13 -478.5t-13 -395.5t-19.5 -411t-26.5 -332 t-37.5 -292.5t-61.5 -281.5t-90 -266t-125.5 -236t-165.5 -201q-82 -78 -207 -150t-272.5 -123.5t-298 -81t-299 -23.5t-260.5 52q-116 47 -214 128.5t-188 213.5t-166 315t-143 433.5t-124 566.5q-97 542 -160 870t-131.5 623t-134.5 508t-157 451q-27 69 -93.5 166 t-134 178t-164.5 196.5t-149 182.5z" />
<glyph unicode="V" horiz-adv-x="5284" d="M3114 5109q-3 26 20 47t72.5 36.5t123 24t175.5 9.5t223.5 -6t274 -24t321.5 -45q126 -20 270 -25t260 1t214 14.5t152 17.5l55 9q-9 -13 -39.5 -55.5t-41 -56.5t-39 -52.5t-45 -59t-47 -60.5t-57.5 -72t-63.5 -75.5t-77.5 -92t-89 -102.5q-51 -59 -100.5 -130 t-91.5 -137t-96.5 -180t-93 -194.5t-105 -247t-108 -271t-126.5 -334.5t-136 -369.5t-160 -438.5q-67 -189 -106 -289q-131 -361 -297.5 -747t-322.5 -700t-289 -513t-193 -192q-52 7 -189 295t-291.5 685t-301 816t-224.5 691q-94 329 -186 606t-169 475.5t-157.5 363.5 t-142 271.5t-132.5 199.5t-120.5 145t-113.5 110q-21 18 -67 60t-61.5 56.5t-51.5 48.5t-50.5 50.5t-43 49t-44.5 58t-40.5 63t-45.5 78t-45 87.5q210 -5 398.5 10.5t678.5 77.5q623 78 817 86q253 11 275 -50q5 -15 0 -35q-5 -16 -43.5 -82t-84.5 -146t-99 -200t-83 -230 q-31 -115 -47 -223.5t-19.5 -205t9.5 -203.5t30.5 -198.5t55 -212t73.5 -222.5t91 -250q34 -89 91 -241q38 -103 56.5 -150t48 -125t43 -111t36.5 -89t35.5 -80t33 -63.5t34.5 -58.5t33.5 -46t38.5 -46t42 -40q59 39 115 102.5t107 151.5t95 174t88 204t74.5 203.5t68 212 t55.5 191t50 175.5q13 50 19 74q54 194 88.5 359.5t51 283.5t15.5 227t-7 174.5t-30 141.5t-39.5 113t-47.5 104q-13 29 -20 44q-39 84 -76.5 142.5t-58.5 80t-36 40.5t-17 37z" />
<glyph unicode="W" horiz-adv-x="6079" d="M4099 5365q62 11 140 12t162 -3.5t294 -14.5t427 -18q155 -5 399 -10q386 -11 485 -25t109 -70q7 -40 -26 -106t-135 -197t-281 -332q-130 -145 -225 -308.5t-177 -400.5t-146 -554t-122 -758q-76 -571 -106 -909.5t-20 -561t64 -357.5q17 -44 40 -95.5t40 -86t33 -74 t24.5 -67t13 -55.5t-1.5 -48.5t-21 -39.5t-42 -34q-145 -80 -324 -145t-466 -128q-252 -54 -488.5 -67t-495.5 14q2 35 20.5 74.5t45.5 82.5t57.5 90t62.5 114.5t55 137.5q33 105 43 185.5t0 189t-49.5 242.5t-112.5 333q-43 117 -110 359t-135 507.5t-85 328.5 q-101 -135 -253.5 -511.5t-256.5 -752.5q-28 -100 -46.5 -184.5t-30 -147t-14.5 -123t-3 -98.5t6.5 -89t13 -78.5t18.5 -84.5q2 -11 4 -15q13 -55 36 -114t43 -98t35 -75.5t15 -63.5q-2 -27 -22 -44q-103 -57 -294.5 -113t-409 -92t-432.5 -43t-362 32q-12 25 -14.5 65 t3 118t14 161.5t24 242t28.5 313.5q23 289 25 546.5t-26.5 591.5t-91.5 703q-30 177 -53 297t-51 249t-54.5 219t-61.5 183t-74.5 163.5t-88.5 138t-110 129.5q-430 436 -502 551q202 22 595 44t540 34q88 8 193.5 26t191.5 35t183 36t168 30.5t147 16.5t119 -6 q94 -18 98 -63q3 -39 -67 -138q-15 -21 -51 -69q-55 -75 -87 -118q-47 -65 -84 -143t-73 -196t-58 -258.5t-32 -338t-1 -426.5q11 -271 24.5 -478.5t24 -320t26 -196t23.5 -109.5t20 -56q13 31 54.5 160t90.5 276.5t148.5 387t219.5 478.5q90 180 170 325t144 247.5 t118.5 177t97 117t77.5 63t60.5 20t48.5 -17.5q59 -46 149 -280.5t256 -757.5q56 -177 89.5 -281t73.5 -216t66.5 -177t59 -130t63.5 -107.5t69 -81.5q180 553 255.5 889.5t110.5 764.5q20 243 21.5 431t-16.5 333t-47 253.5t-76 216.5q-33 75 -72 159t-51 113t-23.5 67.5 t-16.5 82.5z" />
<glyph unicode="X" horiz-adv-x="5012" d="M2940 5424q269 -144 525.5 -240.5t669.5 -201.5q63 -16 157 -31t172 -25t167 -29.5t155.5 -44t121.5 -67t80 -100.5q5 -12 -4 -23t-38.5 -25t-66 -29t-101 -45.5t-128.5 -64.5q-39 -21 -78 -46t-84 -62t-79.5 -64.5t-89 -81.5t-86.5 -84t-97 -98.5t-96.5 -102 t-110 -117.5t-112.5 -121q-271 -290 -495.5 -607.5t-357.5 -616.5q51 -105 85 -173t98.5 -181t136 -223t185 -270t256.5 -349q116 -154 268.5 -327t275 -302.5t230 -242.5t161.5 -182.5t42 -90.5q-33 -53 -277.5 -94t-624.5 -57q-120 -4 -261.5 -20t-245.5 -33t-198.5 -30 t-153 -11.5t-75.5 22.5q-7 8 1.5 27.5t29 56t42.5 81.5t45.5 114t36.5 142q9 53 9.5 110t-4.5 106t-20.5 112t-28.5 107.5t-38.5 113t-41 106t-44.5 109.5q-11 26 -16 38q-13 33 -42 103t-44.5 108.5t-41 98.5t-42.5 98t-37 81t-36.5 71.5t-29.5 47.5q-34 -63 -58.5 -114 t-59.5 -140t-61 -180.5t-53 -225t-44 -284.5q-18 -164 -3 -288.5t47.5 -223t68 -162.5t57.5 -106t14 -56q-33 -64 -145 -73.5t-450 36.5q-17 2 -306 41q-217 29 -671 32q-313 1 -385 11q-60 9 -58 29q0 3 2 7q93 172 211 339.5t229 301t215 251.5t203 237t159 212 q259 399 400 637.5t209 393.5q-64 154 -150 287.5t-288 399.5q-559 732 -958 1012q-131 91 -243.5 164.5t-169 106t-97.5 57t-53 35t-11 22.5q1 18 20 33.5t120 63t266 115t506 206.5q415 168 626.5 251t272.5 103t104 27q0 -16 -14.5 -55.5t-45 -133.5t-62.5 -209 q-25 -92 -27.5 -186t11 -178.5t49 -188.5t76 -194t104.5 -217q64 -129 137 -245t153 -231t119 -178q9 18 55.5 117.5t63.5 138t62 145t76 192.5t77 223t92 289q40 139 59 280.5t16 251t-18 211t-34 164.5t-39 106z" />
<glyph unicode="Y" horiz-adv-x="5245" d="M2829 5272q132 40 281 58.5t309 15.5t316.5 -18t339.5 -44q260 -42 483.5 -64t338.5 -24t199 -2.5t112.5 -7t32.5 -30.5q13 -64 -91.5 -158.5t-319.5 -206.5q-40 -22 -106 -53t-117 -55.5t-121 -61.5t-127.5 -72t-128.5 -86t-131 -105t-128 -127t-127 -154.5t-121.5 -185 t-116.5 -219.5q-76 -162 -127.5 -275t-109 -246t-94.5 -232.5t-75 -215t-59.5 -212.5t-41 -208t-26 -218.5t-6.5 -226.5q0 -120 9 -248q65 -911 482 -1137q180 -98 265.5 -191.5t51.5 -147.5q-13 -20 -57 -26.5t-138 -8t-214.5 -6t-326 -28.5t-433.5 -68 q-399 -76 -825 -94.5t-544 38.5q49 78 99 144t91.5 113t100.5 102.5t102.5 92t123.5 105t139 119.5q56 50 104 115.5t82 136t60.5 149t41.5 154.5t23 150.5t7.5 139t-8.5 117.5q-18 133 -47 250.5t-72 223t-87.5 195t-110.5 198.5t-125.5 200.5t-149.5 233t-165 266.5 q-43 72 -124 207q-85 142 -125.5 209.5t-110.5 183t-105.5 170t-93 142t-91 129.5t-81 102.5t-81 90t-75 63.5t-78 51.5t-76.5 27.5q-227 57 -355 142q-100 65 -71 103q5 7 15 12q26 13 72 18.5t128 8.5t190.5 10.5t297.5 35t409 72.5q168 35 313.5 49.5t246 12t181.5 -15.5 t130 -32.5t82 -41.5t45.5 -38t13.5 -27q1 -15 -1 -26.5t-14.5 -35t-36 -48t-70.5 -61t-115 -79.5q-38 -24 -65 -47.5t-46.5 -52t-30 -57t-11.5 -66.5t4 -76t22 -90.5t37.5 -104.5t54 -124.5t69.5 -143.5t86 -166q46 -88 86.5 -162t76 -132.5t63 -102t57 -82.5t46.5 -61 t44.5 -49.5l37.5 -37.5t38.5 -35.5t36.5 -31.5q150 528 294.5 865.5t355.5 602.5q12 15 33.5 42.5t34.5 43t31 42t25.5 45.5t14.5 47t3.5 51.5t-14.5 55t-34 61.5t-58 66.5t-84 74.5q-135 106 -220.5 185.5t-124.5 150.5z" />
<glyph unicode="Z" horiz-adv-x="4937" d="M487 5438q30 -12 87 -49t143.5 -87.5t181.5 -89.5q49 -21 102.5 -36t107 -26.5t143.5 -21t166 -16t226.5 -16t271.5 -16t354.5 -19.5t425.5 -23q689 -40 972.5 -54t435 -14t249.5 14q86 13 112.5 17.5t92.5 17t99 22.5t79 26.5t82 37.5q0 -24 -1 -52t1.5 -53.5t-1 -57.5 t-8.5 -64t-19 -73.5t-34 -86t-53.5 -100.5t-77 -117t-105.5 -137t-138 -161q-60 -66 -143.5 -143.5t-165 -145t-182.5 -158t-197 -181.5t-207 -215.5t-216 -261t-220 -318t-221 -384.5q-146 -281 -269.5 -506t-208.5 -367.5t-137.5 -226.5t-102.5 -158t-57 -86 q10 -1 52.5 -8.5t103 -16t184 -17t294 -9.5t434.5 6q151 4 240 8t196 11.5t168.5 17.5t134.5 27t117.5 40t94.5 56.5t88.5 75t77.5 98.5q5 8 15 21q47 66 68.5 96.5t57.5 80t53.5 70.5t45 54.5t45 49t42 35.5t46 32t46.5 23q38 -51 76.5 -276.5t44.5 -436.5 q10 -323 0.5 -589.5t-41.5 -512.5q-306 -16 -523 -21.5t-776 -10.5q-300 -3 -551.5 6t-432 24t-350.5 31t-387.5 27.5t-461.5 12.5q-585 2 -797.5 -3t-385.5 -24q-4 100 26 244t59 189q16 25 66.5 57.5t154.5 90.5t154 89q61 37 105 65.5t100 69t101.5 82.5t103 100.5 t113 127t123 158.5t140.5 198.5t159.5 243.5t185.5 297.5t213 356.5q120 205 237 390.5t213.5 327.5t194.5 271.5t170.5 219.5t150 174.5t126.5 134t107 101t82.5 71.5t62.5 50q43 34 54 46.5t0 22.5q-34 33 -331.5 35.5t-645.5 -16.5t-573 -46q-20 -2 -59 -7 q-110 -13 -161.5 -19t-139 -18t-130 -20.5t-108.5 -23t-100 -30t-81 -36.5t-75 -46t-57.5 -57t-51.5 -70q-131 -221 -233 -331t-199 -155q-17 56 -28 102.5t-23.5 138t-16 197t1.5 273t22 371.5q13 158 32 298t37 232t41.5 179t36.5 129.5t31.5 91t21.5 58.5z" />
<glyph unicode="[" horiz-adv-x="2425" d="M1463 796q13 -133 44 -235.5t75 -171t99 -121.5t117 -94t126 -79.5t130.5 -89t126 -111.5t116.5 -155t98 -214q-127 15 -251.5 11.5t-254.5 -9.5t-253 -19.5t-247 -20t-238 -8.5t-223.5 15t-205.5 48.5t-183.5 92.5t-156.5 150q43 203 74 447.5t49 479t27 505.5t11 499.5 t-2.5 490t-10 449t-15.5 404.5q-10 245 -21 589t-18.5 578t-21.5 541.5t-29 533.5t-40 493.5t-56.5 484t-77.5 445t-103 430.5q324 -77 977 -68q112 1 334 9q503 13 682 -2q293 -23 309 -128q7 -42 -28 -97q-91 -148 -182.5 -261.5t-166.5 -178t-148 -112.5t-132.5 -72.5 t-113.5 -47.5t-95 -49t-75 -67t-57 -108t-35 -167q-60 -476 -88.5 -991t-30 -994.5t21 -1014.5t57.5 -1002t86 -1008z" />
<glyph unicode="\" horiz-adv-x="4065" d="M1580 2903q-116 269 -228 516t-204.5 442.5t-186.5 383.5t-163 321t-147.5 274t-127.5 224t-114 189.5t-95 152t-83.5 129t-68.5 105.5q-24 37 -47 97t-40.5 142t-17.5 167.5t23 173.5q94 -25 191 -29.5t183.5 6.5t175 28t183 32.5t190 24t209.5 -0.5t231 -39 q65 -17 90.5 -75t26.5 -183t-19 -332q-8 -91 -10.5 -144t0.5 -156.5t17 -186.5t44 -222t78.5 -279.5t124 -341t176 -423t238.5 -510.5t309 -617q213 -411 388 -733.5t293.5 -522t211 -342t156.5 -225.5t111.5 -139t94.5 -115t88 -123q47 -74 76.5 -167.5t40.5 -189.5 t10.5 -184t-9.5 -176q-423 155 -807 27q-205 -61 -355.5 -35t-228 107.5t-40.5 169.5q17 40 19 100t-14 153t-49.5 210.5t-90.5 281.5t-133 360t-181.5 453.5t-231.5 553.5t-287 667z" />
<glyph unicode="]" horiz-adv-x="2438" d="M1062 898q62 644 94 1243.5t36 1218t-31 1236t-109 1213.5q-12 101 -34 171.5t-56 119t-74 82.5t-94 68t-114 65.5t-138 85.5t-158 120.5t-181 174.5t-203 244q-80 105 -10 133q60 26 308 1q40 -3 128 -13q466 -49 748 -48q588 2 1016 179q-92 -321 -154 -691t-92 -743 t-36 -815t5 -863.5t39 -931.5q22 -374 52 -779.5t76 -870.5t111 -920.5t137 -803.5q-46 -68 -140 -110.5t-216 -58t-274 -19.5t-315 7.5t-337 22t-342 23t-331 12t-299 -13.5q40 119 99 212t122 154t133 110.5t139 88.5t136 79.5t126 92.5t106 120.5t80 170t47 233.5z" />
<glyph unicode="^" horiz-adv-x="3751" d="M865 4419q-99 -22 -291 -36t-334 -17l-142 -3q107 33 217.5 93.5t202 133t164.5 148.5t117 147q13 21 43 64q157 242 232.5 356t196 292.5t205.5 295t200.5 265t241.5 299.5q93 -111 175 -216t164.5 -222.5t141.5 -204.5t147.5 -229t139 -224.5t159.5 -263.5t167 -277 t239 -225t407 -230q-120 -4 -213.5 -4.5t-178 4t-153 17t-131 30.5t-121.5 47t-115 63.5t-120 82.5q-342 255 -705 727q-133 -165 -233 -282t-196 -217.5t-170.5 -166.5t-152.5 -117.5t-150 -81.5t-154 -48z" />
<glyph unicode="_" horiz-adv-x="4025" d="M172 -207q-12 42 -46 282.5t-50 398.5q-20 219 -1 420.5t66 318.5q48 1 95.5 -8.5t107.5 -27t135.5 -40.5t202.5 -50.5t286.5 -55t410 -55.5t551.5 -50q219 -16 416.5 -18t349 6.5t287 26.5t232.5 40t181.5 50t138 54t99 53t68.5 46t41.5 35.5t21.5 18.5 q-13 -67 -11 -154t18.5 -178t35.5 -192t40 -197t32.5 -192.5t12.5 -179t-19.5 -156t-63.5 -122.5q-38 -43 -85.5 -48.5t-123.5 18.5t-201.5 57t-321 65t-481 44.5t-680.5 -5.5q-290 -15 -537.5 -33t-417.5 -36.5t-302.5 -36.5t-219.5 -35.5t-138 -28.5t-88 -22.5t-42 -12.5z " />
<glyph unicode="`" horiz-adv-x="2263" d="M469 7606q-36 -42 -116 -114t-141.5 -133t-76.5 -93q-15 -36 -22 -65t-8.5 -79t13.5 -126q12 -63 46 -182q43 -151 82 -238q41 -94 114.5 -204t206.5 -272q204 -250 399 -391t430 -193q99 -22 291 -36q209 -15 335 -16l142 -2q-85 24 -188.5 86t-197.5 137t-186 160 t-159 156t-110 127q-132 168 -226 294t-173.5 248t-133 214t-111 215t-101 230t-109.5 277z" />
<glyph unicode="a" horiz-adv-x="3997" d="M716 1744q31 -166 74.5 -304.5t94.5 -241.5t112.5 -182.5t126 -130.5t137 -82.5t144 -42t148.5 -4.5q129 10 231 57t168.5 122.5t102 174t38.5 212.5q4 206 10.5 338t20.5 267t39 247.5t63 236.5t96 278q-66 17 -124 30.5t-132.5 28.5t-147 24.5t-152 16t-164.5 6 t-169 -7.5q-107 -10 -205 -46t-176 -93.5t-144 -134t-109 -165.5t-70.5 -188.5t-29 -204t16.5 -211.5zM3843 1459q38 -64 60 -118.5t28.5 -107.5t5 -97t-15.5 -105t-28.5 -112t-38 -136.5t-40.5 -160.5q-10 -41 -10 -108t6.5 -139t12 -157.5t9 -166t-4 -160.5t-25.5 -144 t-57.5 -115t-98.5 -75q-18 64 -40.5 117t-45 92t-54 69t-56 49.5t-63.5 33t-64.5 20.5t-71 10.5t-70.5 4t-75 0.5q-65 1 -99 2t-95.5 9t-100 22.5t-92.5 44.5t-93.5 72.5t-83.5 108.5t-80 151q-12 -50 -35 -95t-65.5 -90.5t-100.5 -83t-144 -69t-191.5 -51.5t-247 -28.5 t-306.5 -1.5q-167 7 -314 52t-263 120t-214 180t-170.5 228.5t-128.5 270t-91 299.5t-55 322q-29 241 -38.5 429t2.5 368t51 326.5t110 283.5t177 261q108 126 252.5 227t313.5 169.5t365 94t394 0.5q145 -19 325.5 -58.5t330.5 -75.5t218 -45q56 -8 144.5 10t178.5 46 t205.5 53.5t226 33.5t240.5 -16q-122 -99 -237 -271.5t-204.5 -379.5t-160.5 -436.5t-114 -454t-56 -421.5q-15 -177 -11 -330t24.5 -268.5t72.5 -189t134 -91.5q61 -13 115 -15t95.5 2t80 23.5t65 36.5t54 53t43.5 60.5t38 73.5t33 76.5t32 83.5q34 90 55 139.5t62.5 121.5 t89.5 123z" />
<glyph unicode="b" horiz-adv-x="3754" d="M1302 5094q27 -72 36.5 -285t7 -454.5t3.5 -557t27 -535.5q81 97 215.5 161.5t289.5 90.5t328 20t331.5 -42.5t299.5 -105t232 -160.5q168 -168 290.5 -376.5t189 -428t90 -454t0 -458.5t-89 -436.5t-169.5 -393.5q-106 -183 -289.5 -329t-404.5 -235t-470.5 -126.5 t-489.5 -13.5q-167 17 -273 25.5t-243 14t-251.5 0t-261.5 -20.5t-311 -43t-366 -71q8 87 28 159.5t47 123.5t59.5 91.5t68.5 69t72 51.5t72.5 43t67.5 39.5t58.5 45.5t44.5 56q103 182 133.5 617t13.5 1327q-2 129 -10 987q-5 554 -33 761q-33 243 -122 304 q-90 62 -279 -37q-29 -16 -62 -35q-9 51 -13 91t-4 83t7 76t22 67t39 60.5t59 52t82 45.5t108.5 38t137.5 32q56 10 116 35t107 54t96.5 59t88.5 52t79 30t72.5 -3t64 -51t58.5 -110zM3004 1898q-4 112 -29 220.5t-66 204.5t-99.5 179.5t-128 149t-152.5 108.5t-171.5 61.5 t-187 4.5t-197 -58.5t-204 -131t-205.5 -209.5q-48 -59 -81.5 -165.5t-49.5 -235.5t-17 -277.5t11.5 -294t40 -283t65.5 -245t91 -180t113 -88.5q85 -22 175 -25.5t179 11.5t177 48.5t170.5 82.5t158 116.5t139.5 146.5t116 176t87.5 203t52.5 229t12 252z" />
<glyph unicode="c" horiz-adv-x="3104" d="M2901 3827q40 -40 48 -84.5t-6.5 -99t-32 -138t-27.5 -201t7 -288.5q11 -102 5 -183t-21.5 -143.5t-39.5 -108t-50.5 -76.5t-53 -48t-47.5 -23t-34 -3q-148 42 -254 311q-26 66 -79 119.5t-119 86.5t-139.5 49.5t-147.5 15.5q-108 -1 -203 -16t-200 -50t-210.5 -101 t-206.5 -161q-75 -72 -128.5 -159t-88 -208t-39 -262t27 -324t101.5 -390q44 -129 113.5 -239.5t151 -189.5t175.5 -141t189 -98t189.5 -55.5t178 -19t153.5 16t117 46.5q18 12 51 43.5t71.5 72t85.5 89.5t96 96.5t99 92t98 76.5t91 50t80 13.5t61 -34.5q22 -27 19 -83.5 t-20.5 -125.5t-33.5 -156t-19.5 -174t21.5 -182q75 -261 67 -394.5t-95.5 -156t-251.5 45.5q-78 32 -168 42.5t-181.5 4.5t-192 -18t-216.5 -22t-237 -12t-270 17t-300 61q-133 36 -247.5 105t-203 157.5t-162 203t-126 237.5t-93 265.5t-65.5 282t-41 292.5 q-24 202 -20 383t28 335t74 295.5t119.5 265.5t164.5 245q100 127 228.5 231.5t284 184.5t342.5 125t386 46q126 0 245 -13t194 -31t145 -32.5t114 -18.5t84 11.5t72 57.5q51 67 116 118t113.5 69.5t63.5 3.5z" />
<glyph unicode="d" horiz-adv-x="3715" d="M2115 2150q-19 52 -37 95.5t-46 97t-58 96t-72.5 87.5t-89.5 76.5t-108.5 58t-130.5 38t-155.5 9t-182.5 -21.5q-217 -43 -348 -165t-188.5 -340t-43.5 -550q13 -321 134.5 -543t330.5 -346q83 -49 177.5 -85.5t199 -55.5t202.5 -17t191.5 34t162.5 94q88 78 140 202.5 t66 269.5t0.5 311.5t-51 331t-93.5 323.5zM1754 5166q100 -55 197 -84.5t229 -40t301 5.5t400 57q338 62 423 -14q59 -52 20 -191q-17 -62 -99 -264q-40 -99 -64 -167q-65 -181 -102.5 -371.5t-55.5 -462t-7.5 -638.5t48.5 -868q49 -659 137 -1100.5t218.5 -699.5 t316.5 -371q157 -95 109 -160q-51 -71 -308 -79q-47 -1 -100 0q-56 1 -113.5 19.5t-106 46.5t-102 63t-101.5 68.5t-105 63t-111.5 47t-122 20.5t-135.5 -16q-243 -66 -549.5 -92.5t-615.5 -5.5t-538 90q-107 32 -200 107t-161.5 177.5t-125 230.5t-94 265.5t-64.5 283 t-40.5 282.5t-18.5 265t-2 229.5t12 176.5q27 227 100.5 437.5t187 390.5t272.5 317.5t346 209.5q115 44 237.5 69t258 26.5t260.5 -25t245.5 -93t213.5 -169.5q0 86 3 194.5t7 195.5t7 187.5t2 182t-6.5 165.5t-20 151t-37.5 126t-59 102.5t-84 70.5q-98 53 -171 148.5 t-108 211.5t-23 229z" />
<glyph unicode="e" horiz-adv-x="3524" d="M848 1934q567 -48 1060 30q457 73 657 228q204 157 78 359q-20 32 -48 65q-107 123 -251 216.5t-304 144t-331 58.5t-332 -39q-149 -42 -259 -120t-175 -178.5t-96.5 -225t-30 -258t31.5 -280.5zM885 1308q12 -60 29.5 -124.5t47.5 -145t67 -151.5t90.5 -139.5 t114.5 -116t141.5 -72.5t169.5 -17q195 19 324.5 35t268 44t230.5 59.5t199.5 86t190 119t186.5 163.5t203.5 213t228.5 274q61 -285 45 -778q-15 -477 -90 -788q-67 -278 -155 -271q-22 2 -44 23q-214 197 -434.5 263.5t-464.5 9.5q-81 -19 -144.5 -33t-151.5 -29.5 t-160 -24t-160.5 -14t-164.5 -2t-161.5 15t-160 34t-151.5 58t-146 83.5q-134 95 -258.5 258t-217.5 355.5t-156.5 406t-85.5 413.5q-15 143 -23 266.5t-9 261.5t9.5 257t34.5 245t62.5 233.5t97.5 215.5t136.5 198.5t182 174t230.5 150.5q144 76 304.5 116.5t308.5 45 t300 -15t282.5 -56.5t252 -86.5t211 -98t158.5 -97.5q177 -125 302 -249t196 -237.5t98 -227.5t16 -216.5t-58 -208.5t-116 -199.5t-165 -192.5q-130 -134 -329 -229.5t-461 -152t-569 -82t-682 -23.5z" />
<glyph unicode="f" horiz-adv-x="3585" d="M145 1649q-33 24 -46 81t-11 128t18.5 170.5t36.5 188t49 201.5q178 -103 380 -152.5t327 -13.5q-53 303 -73 584.5t-8 517t49.5 444t97.5 372t139.5 293t172.5 216t198 133.5q155 69 314 108.5t304 49.5t288 -3t269 -45.5t244.5 -82.5t217.5 -109.5t184 -129.5 q78 -64 131.5 -129.5t80.5 -126t38.5 -125t6.5 -124.5t-16 -127.5t-28 -131t-31.5 -137.5t-25 -144.5t-9.5 -154.5t17 -166q-124 28 -219 62t-155 69t-103 78.5t-64 83.5t-36 92t-21 96t-18.5 103.5t-27.5 107.5q-22 63 -80.5 122t-137 102t-173.5 70.5t-187 33t-179.5 -16 t-148.5 -71.5q-104 -83 -168 -240t-84.5 -376t15.5 -511t129 -621q196 45 382 62t348 -3.5t236 -85.5q64 -57 107 -169t50 -246t-34 -269q-63 34 -129.5 53t-125.5 25.5t-125.5 2t-120.5 -14.5t-119.5 -28t-114.5 -34.5t-113.5 -37.5t-107.5 -34q27 -124 70 -302.5 t74.5 -309.5t69.5 -304t63.5 -310t48 -300.5t30.5 -303.5t4 -291.5t-24 -288.5q-24 -158 -80.5 -291t-136 -226t-177 -155t-205.5 -85t-219 -8q-276 37 -522.5 21.5t-611.5 -91.5q-56 -10 -104 -5.5t-85 26.5t-63 54t-38.5 76.5t-12 94.5t17.5 108.5t50 117.5 q46 83 70.5 176.5t27 179t-5 170t-23 160t-29 138.5t-21 116.5t-1.5 83.5q101 1 194 -25.5t164.5 -71t138 -98.5t125.5 -107.5t114.5 -97.5t117.5 -70t123 -24q277 13 313 338q28 249 -91 757q-16 67 -135 534q-69 270 -96 422q-127 -12 -318.5 15t-362.5 79.5t-244 107.5z " />
<glyph unicode="g" horiz-adv-x="3818" d="M2333 1504q21 168 22 336t-22 333.5t-68.5 304.5t-123 249t-180.5 167q-81 45 -179 56t-194.5 -8t-194 -60t-182 -97t-154.5 -122q-177 -167 -247.5 -410t-13.5 -559q58 -327 161 -527.5t257.5 -291.5t375.5 -86q98 3 183 19.5t150 42.5t119.5 65t93.5 80t70.5 94 t51.5 101t35.5 106.5t24 104.5t15.5 102zM166 -10q99 -33 180.5 -75.5t140.5 -91.5t107.5 -100.5t92.5 -110t83.5 -112.5t91.5 -115t107 -110q93 -84 263.5 -163.5t364 -135.5t401.5 -82.5t368 -8.5q229 25 289 282q50 214 -13 665q-13 98 -93 579q-9 54 -16 100 q-50 -87 -115 -159.5t-138.5 -126t-156.5 -93.5t-169 -64t-176 -35.5t-177 -10.5t-172 14q-158 24 -311 102t-281.5 193.5t-241.5 263t-199 310.5t-147 336q-34 94 -59.5 198.5t-43.5 236t-21 264.5t15.5 282t58 290t113.5 288.5t177 276.5q298 374 708.5 532.5t955.5 112.5 q110 -9 289 32t362 106.5t351.5 133t294 117t153.5 52.5q8 1 24 2q115 10 126 0.5t-36 -76.5q-30 -41 -49.5 -70.5t-56.5 -93.5t-68 -131q-27 -58 -73.5 -144t-81.5 -150t-78 -165.5t-71.5 -198t-51.5 -238.5t-28.5 -296.5t7 -363t46.5 -445.5q38 -261 93 -547.5t104 -506.5 t98.5 -450t80 -415t44.5 -361.5t-4 -330t-69 -281.5q-58 -146 -137.5 -263.5t-167 -199t-193.5 -141.5t-209 -95t-222 -54t-224 -23.5t-224 -0.5q-172 7 -332.5 29.5t-282 53t-236 67t-204.5 71.5t-177 66t-164.5 50t-156 24.5t-162.5 -11t-173 -56.5q-112 -50 -176 166 q-69 228 -63 639q5 387 70 642q19 75 41 125z" />
<glyph unicode="h" horiz-adv-x="3940" d="M1624 5352q8 -43 4.5 -88t-14 -78.5t-28.5 -74t-40 -74.5t-47 -79.5t-50 -90.5t-50 -106t-46 -127t-37.5 -153.5t-25.5 -183.5q-50 -538 -65 -796.5t-9 -386.5q65 114 206 202.5t335.5 136.5t407.5 43q229 -5 434.5 -68t366.5 -170.5t289 -255.5t209 -322t118.5 -370.5 t24.5 -399.5q-21 -355 -4 -657t70 -552.5t134 -441t187 -322.5q20 -24 -31 -31q-55 -6 -326 14q-441 33 -674 22q-144 -7 -255 -29q87 231 126.5 567t54.5 1012q4 79 1 161t-7 164t-18 163t-32 156.5t-49.5 145.5t-70 130.5t-94 110t-121 85t-151 56t-184.5 21.5 q-141 3 -262 -36t-206.5 -106t-153.5 -158.5t-110 -190t-69.5 -206.5t-37.5 -202t-9 -181q5 -334 44 -586.5t127 -559.5q22 -77 69 -197q50 -111 50 -178.5t-92 -104.5t-335 -63q-200 -20 -409 -21t-418.5 22t-352.5 66q66 25 121.5 56.5t97.5 62t77 71.5t58.5 73t43.5 79.5 t31.5 79t22.5 83.5t16 80t13 81q0 4 1 6q86 562 64 2287q-3 161 -4 456q-2 585 -18 802q-28 366 -122 509q-100 153 -312 123q-17 -2 -35 -6q10 100 33.5 178.5t57 131.5t79.5 89.5t96.5 55t111.5 23t121 -1.5t128 -22q122 -29 207 -45t165 -19t127.5 -1t123 22.5t122 37.5 t150.5 58q32 13 49 19z" />
<glyph unicode="i" horiz-adv-x="2331" d="M461 3613q42 28 81 43t111 24t186.5 1t281.5 -32q98 -13 196.5 -17t186 2.5t147.5 14.5t131.5 20t88.5 14q81 11 96 -47q25 -94 -112 -421q-73 -171 -115.5 -293.5t-74 -255t-42 -264.5t-7.5 -295q2 -144 21 -281.5t46 -245.5t64 -210t72 -174t73 -139q39 -65 67 -120.5 t49.5 -107.5t30 -95t6 -79.5t-21 -62.5t-53.5 -42q-228 -105 -955 -103q-151 0 -272 8t-190 19t-117 25.5t-67 25.5t-29 22q-11 13 29 57t113.5 117t111.5 123q64 82 103.5 165.5t70 219t50 316t35.5 466.5q8 136 10.5 254t1.5 212t-9 179t-16.5 147.5t-24 125.5t-28 104.5 t-35.5 93t-38 83t-43 82.5q-28 53 -65.5 105t-65 83.5t-50 67.5t-29.5 65zM1913 4807q-1 -159 -29 -279.5t-80 -203t-132 -135.5t-179.5 -78.5t-228.5 -29.5q-156 -6 -287.5 42t-226 141t-148 236.5t-54.5 321.5q0 145 27.5 257t81 191.5t134.5 133.5t180.5 82.5t223.5 37.5 q125 9 235 -15t199 -81t152.5 -144t97.5 -208.5t34 -268.5z" />
<glyph unicode="j" horiz-adv-x="2541" d="M1431 4532q218 32 384 -19t274 -189.5t142 -355.5q58 -370 -71 -587.5t-443 -266.5q-92 -14 -174 -16t-160.5 10t-145 40t-126 75t-106 113.5t-82 157.5t-57.5 204q-33 176 -9.5 319.5t97 250t195 173.5t282.5 91zM191 1924q53 24 98.5 62.5t74 74.5t59 95.5t45 95 t39.5 103.5q19 52 29.5 78t31 71t36 68t42 56.5t52 48.5t62.5 32t78 19.5t94 -1.5t114 -19q98 -25 193 -43.5t208.5 -32.5t219 -17.5t220 5.5t217.5 33t205 68.5t188 107.5q3 -41 1 -90.5t-4 -100.5t-14 -105.5t-28 -106.5t-46 -103.5t-68 -96.5t-94 -84.5t-124 -68.5 q-27 -11 -43.5 -82.5t-22.5 -203.5t-8 -260t-3 -325t-5 -326q-6 -204 -11.5 -449.5t-8 -385t-8 -307.5t-13 -271t-19.5 -219t-31 -209.5t-45 -186.5q-20 -71 -48 -130t-61.5 -105.5t-78 -84t-90.5 -64.5t-106 -47.5t-119 -34t-134.5 -22t-147 -13t-161.5 -6.5 q-216 -6 -488 36q-365 55 -442 148q-31 38 -9 79q58 112 86.5 255t27 277t-19.5 265.5t-45 229t-56 159.5q66 20 129 11t120 -37t110.5 -77t99.5 -109t87 -133t74.5 -149t60.5 -156q16 -49 50.5 -88t78 -62.5t94 -33t101 -5t97 26t82.5 57t58 91.5t24 125q0 25 3 183.5 t4 265.5t2 297t-1 417.5t-7 487.5q-11 607 -72 826q-49 180 -151 199q-74 14 -191 -51q-98 -54 -205.5 -83t-203 -28t-168 41.5t-95.5 117.5z" />
<glyph unicode="k" horiz-adv-x="3420" d="M844 4094q147 7 261.5 8t190 -4t126.5 -13.5t78 -22t39.5 -26.5t15.5 -31q7 -28 1.5 -63.5t-44 -125t-113.5 -219.5q-90 -157 -161.5 -447.5t-74.5 -483.5q57 -5 154 41t188 128q32 29 57.5 54.5t47.5 55t36 47t34 53.5t28 52.5t32 63.5t36 68q136 268 132 541 q-1 92 -28 200q-16 51 -6 65.5t74 9.5q168 -16 266 -39.5t369 -104.5q113 -35 212.5 -52.5t161.5 -21t152.5 -12t179.5 -26.5q-10 -26 -19 -45.5t-24.5 -39t-28.5 -33t-40 -31.5t-49 -30.5t-66 -35.5t-79 -40.5l-101 -50.5t-121 -60q-57 -29 -119 -87.5t-121.5 -134.5 t-122 -164.5t-132.5 -187.5t-141.5 -193t-158.5 -190.5t-175 -171.5q292 -114 495 -221.5t391 -244.5q80 -57 119 -88t88.5 -77t68 -74.5t39.5 -80.5t22 -96t-3 -118t-19 -152t-40 -191q-18 -91 -30.5 -147.5t-28.5 -137t-22 -132.5t-13.5 -119t-4.5 -110.5t8.5 -95 t21.5 -84t38 -63.5t55.5 -50t76.5 -29q108 -25 236 -77t236 -113t194 -122t127.5 -109t20.5 -67q-22 -23 -59 -29t-92.5 -1.5t-120 8t-159.5 -5t-193 -33.5q-105 -28 -214 -27t-259 31q-132 28 -224 82.5t-167 156.5q-151 205 -182 721q-3 74 -2 162t3 162t-6 189t-24 242 q-19 132 -59 237.5t-97 183t-123 132t-149 95.5q-70 36 -159.5 60t-175.5 35.5t-151 16t-118 4.5q-8 -143 -0.5 -284t35.5 -370q10 -89 25 -169.5t30.5 -141.5t38 -121t40 -100.5t43.5 -87.5t42 -72.5t41.5 -66.5t39.5 -61q202 -331 231 -390q-70 -24 -165 -29t-328 -5 q-51 0 -78 2q-109 0 -352.5 -21.5t-365.5 -39.5q-74 -11 -146 -25.5t-112 -23.5t-76 -15t-55 -2t-30 19q-19 26 6.5 64.5t126.5 146.5q21 22 30 33q57 63 97.5 123t81 150.5t77 218t74.5 309.5q57 267 76.5 526.5t14.5 679.5q-1 162 -5.5 287.5t-15.5 233.5t-18.5 164.5 t-26.5 168.5t-24 158q-23 152 -45 238t-55.5 154t-99.5 168q-26 36 -52.5 71t-46.5 57.5t-38 44.5t-29 36t-18.5 27.5t-6 24.5t9.5 22q23 30 107 39.5t432 27.5q125 5 198 8z" />
<glyph unicode="l" horiz-adv-x="3303" d="M2874 11q-196 -77 -469 -113.5t-546 -32.5t-532 38.5t-445 94.5q-125 39 -225.5 170.5t-168 329t-108 456t-49 549.5t13 612.5t74.5 641.5q152 920 175 1313q27 431 -65 595q-79 143 -271 137q-88 -2 -209 -34q23 134 71 256t109 210.5t129 153.5t134.5 95t122.5 23 q93 -10 181.5 5.5t154.5 46.5t127.5 68.5t109.5 68.5t91 48.5t81 7.5t71 -53q60 -80 79 -259t5 -403t-48.5 -533t-74.5 -602t-80.5 -659.5t-58.5 -659.5q-10 -170 -16 -296t-8 -308t6 -318t29.5 -298.5t58 -278t95.5 -228.5t137.5 -178.5t190 -99t247.5 -17.5q103 12 181 45 t127 81.5t83.5 108.5t57 129.5t41.5 141t43 146.5t55 142.5t84 133t124 113.5q40 -32 86 -88.5t93 -131.5t89.5 -165t78.5 -187t58 -199.5t29.5 -201.5t-9.5 -193.5t-55 -174t-111 -145t-174 -104.5z" />
<glyph unicode="m" horiz-adv-x="5207" d="M3272 3581q162 322 248 407q74 74 141 28q55 -38 146 -196q23 -41 75 -136q46 -83 71 -128q145 -258 263.5 -584.5t258.5 -850.5q60 -221 129 -500.5t111 -452t89 -341.5t87.5 -260.5t81.5 -117.5q60 -38 103.5 -95.5t68 -126.5t37 -131.5t19.5 -136.5q-129 9 -255.5 8 t-235.5 -11t-216 -17.5t-196 -10t-176 10.5t-156 44q-45 20 -71.5 53.5t-32.5 74.5t-2.5 83.5t19.5 89.5t31.5 83.5t35.5 73.5q25 47 40 103.5t22 117t4 145t-10.5 164.5t-25.5 200t-36.5 227.5t-48.5 268.5q-41 229 -103.5 454t-122.5 367.5t-95 143.5q-32 1 -140.5 -212 t-218.5 -473t-181.5 -488.5t-37.5 -255.5q45 -34 78 -101.5t37.5 -139t-35.5 -127.5q-23 -30 -51 -41t-61 -7.5t-71 15t-86.5 26t-103 27.5t-125 16.5t-147 -4t-174.5 -36.5t-203 -79q-9 42 -13 68t-6 61t3 60.5t16.5 58.5t32.5 64.5t53 70t75 81.5q32 32 -33.5 268.5 t-166 503.5t-200 482.5t-128.5 210.5q-14 -2 -30 -21t-32.5 -56t-32.5 -81t-35 -109t-35 -127t-37 -148t-37.5 -159t-39.5 -172q-70 -311 -104.5 -595t-30.5 -469.5t41 -249.5q35 -59 61.5 -112.5t47 -112.5t26 -106t-8 -87.5t-49.5 -62.5q-55 -34 -124.5 -47.5t-147.5 -10 t-165 13.5t-192 20t-213.5 13.5t-243.5 -10t-269 -46.5q13 106 26.5 176t32 125t47 90.5t64.5 61t91 49.5q33 14 62 55.5t52 100.5t45.5 148t41 181.5t40.5 218.5t41.5 242t46.5 268t52 282q36 180 75.5 343.5t74 287.5t80 253t76.5 211.5t82 195t79 170.5t82 168 q15 30 22 45q64 130 116 212t104.5 126t99.5 48t101.5 -32.5t110 -106t125.5 -182.5q145 -231 346 -702.5t359 -951.5q136 358 325 804t340 748z" />
<glyph unicode="n" horiz-adv-x="4223" d="M2470 -25q-80 24 -6 116q90 112 345 257l42 24q62 33 105 96t69.5 159.5t39.5 228.5t16 303.5t-2 384.5q-3 142 -11 273.5t-28.5 286t-50 276.5t-79 226.5t-112.5 155.5q-78 62 -224.5 92.5t-307.5 25t-323.5 -49.5t-266.5 -121q-221 -162 -280 -588q-21 -153 -29 -458 q-1 -28 -2 -82q-7 -150 -5 -287.5t16 -261.5t56.5 -264.5t115.5 -296.5q198 -417 113 -499q-31 -31 -104 -23q-43 5 -108.5 20.5t-119.5 26t-170.5 10.5t-273.5 -18q-123 -15 -225.5 -22t-175 -8.5t-136 5t-100.5 13t-78.5 22t-60.5 25t-55 29.5q8 30 40.5 70.5t71 77.5 t90 94.5t87.5 113.5q15 25 46 71q32 48 48 73t44 73.5t42.5 84t37 95t35 116.5t28.5 138.5t25.5 171.5t18 205t13.5 248q10 296 5.5 509t-33 370.5t-78.5 264.5t-132 190q-5 6 -17 18q-48 48 -75 77.5t-70 92.5t-64.5 121.5t-35 147.5t-5.5 188q133 -50 242 -77.5 t179.5 -33.5t134.5 -0.5t104 17t92 24t95 15.5q53 4 110.5 -31.5t102.5 -92t78 -121t44 -119.5q47 38 96 70t111 64.5t127.5 56t146 44.5t167 31t190 14t215.5 -6q126 -9 238.5 -31.5t199 -50.5t165.5 -72t134 -81t109 -94.5t86 -96.5t69.5 -101t54.5 -94.5t46 -91.5 q3 -7 5 -11q45 -91 79 -189t54 -179t36.5 -193.5t24.5 -188.5t21 -211t22 -217q15 -134 21.5 -274.5t6 -239.5t1 -198t8.5 -169.5t25 -134.5t54.5 -111t93.5 -82q62 -39 123 -118.5t96.5 -169.5t24.5 -151q-46 -7 -117.5 1t-146 21.5t-188 17.5t-244.5 -12 q-166 -21 -254 -31.5t-202 -21.5t-179 -12.5t-143.5 1t-139.5 13.5t-125 30z" />
<glyph unicode="o" d="M1426 872q180 -11 344.5 19t296.5 93t240 157t181 208t113.5 249t44 278t-33.5 297t-115 303q-58 112 -166 197.5t-240 134t-284 72.5t-298.5 18.5t-283 -36t-239.5 -82.5q-72 -37 -131 -113t-99.5 -176.5t-64 -223t-28 -252t13.5 -263t54.5 -257.5t100.5 -234.5 t146.5 -193.5t197.5 -135t250 -60zM1462 158q-205 -2 -393.5 49t-343 145t-286 227.5t-228.5 293.5t-164.5 345t-98.5 379.5t-26 400.5t47.5 404t128.5 393t211 366q90 124 211.5 216t253 145t279.5 83.5t292.5 34t291.5 -7.5t277 -35.5t247.5 -56t204.5 -63.5t147 -62 q140 -71 255 -171t196.5 -214.5t142.5 -246.5t95 -269t50.5 -280.5t13.5 -281.5t-20 -271t-46.5 -251t-69.5 -220q-48 -121 -81.5 -199t-86.5 -179.5t-102.5 -166t-124.5 -141.5t-157.5 -124.5t-196 -97t-247 -77t-303 -46t-369.5 -21.5z" />
<glyph unicode="p" horiz-adv-x="3904" d="M1713 1223q18 -52 36.5 -95.5t46 -97.5t57.5 -96.5t72.5 -87t89.5 -76.5t108.5 -58t130.5 -37.5t155.5 -9t182.5 21.5q217 43 348.5 165t188.5 340t43 550q-13 321 -134.5 542.5t-330.5 346.5q-83 49 -177.5 85.5t-198.5 55.5t-202.5 17t-192 -34.5t-162.5 -93.5 q-88 -78 -140 -202.5t-66 -270t-0.5 -312t51 -330.5t94.5 -323zM2188 -1570q-46 -19 -75.5 -30t-74.5 -26t-83.5 -23t-94.5 -17.5t-117 -13.5t-140 -7t-175 -2.5t-212 4.5q-163 5 -291.5 21t-200.5 32t-146 29t-169.5 12.5t-229.5 -19.5q27 65 66 126t82.5 114t89 108 t96 131t92.5 159q76 151 122.5 296.5t76.5 326.5t35.5 417.5t-5.5 534t-43 711.5q-29 387 -71 690.5t-89 513.5t-112.5 380t-128.5 280t-148 222q-181 236 -206 292q-20 43 9 51q14 4 58 4q25 0 109.5 -32t194.5 -77t248.5 -94.5t270.5 -85t261 -48t220 17.5 q520 163 956.5 97t807.5 -366q129 -104 233 -232t173.5 -257t119.5 -270.5t76 -272t37 -262.5t8.5 -240t-14.5 -207q-22 -182 -70.5 -359.5t-127 -346.5t-179 -309.5t-232.5 -249.5t-282 -167q-111 -43 -238.5 -61t-262.5 -7t-264 48.5t-250.5 111.5t-214.5 177 q0 -887 211 -1351q35 -77 152 -255t142 -219z" />
<glyph unicode="q" horiz-adv-x="3927" d="M2271 1317q57 160 94.5 324t51 330.5t-1 312t-66.5 270t-139 201.5q-70 62 -163.5 94t-191.5 34t-202 -17t-199 -55t-177 -85q-210 -125 -331 -346.5t-135 -542.5q-13 -332 44 -550t188 -340.5t348 -165.5q96 -19 182.5 -21t155.5 9.5t121 24.5t109 58t99 89.5t72 87 t58 96t46 97t37 95.5zM3568 -1675q-19 5 -57 18q-55 18 -84 27t-85 24.5t-92.5 22t-93.5 14.5t-101.5 7t-103.5 -6t-111.5 -18.5t-113.5 -36t-121 -54.5q-66 77 -122 238.5t-93 358.5t-63 423t-38 433.5t-12 388.5q-128 -74 -341.5 -107t-441.5 -23.5t-431 53.5 q-131 29 -250 102t-213.5 177.5t-174.5 233.5t-138 274.5t-97 296t-57 302.5q-12 97 -13.5 208t9.5 242.5t35 264t69 273t105 268.5t148.5 250.5t195.5 218.5q84 76 200.5 141.5t249 114t280.5 79.5t294 42t290.5 -3.5t269 -52t230 -107.5t173.5 -167q22 114 69.5 204.5 t112.5 148.5t143 88.5t164 31.5q53 0 106.5 -7.5t113 -27.5t115 -50.5t111 -79.5t101.5 -110.5t86 -147t66 -186.5q-90 39 -150 60t-127 33t-109.5 2t-90 -42t-77 -91t-61.5 -152t-52 -217.5t-41 -296t-35.5 -378.5t-28.5 -473q-36 -665 -37 -1103t25 -694.5t83 -465.5 q9 -36 44.5 -86t91.5 -101.5t126 -87.5t149 -44.5t162 28.5q76 34 158.5 84.5t151 97.5t148.5 99t169.5 97t194 84t241 66.5t294.5 38.5q-76 -49 -130 -104.5t-82 -108t-44.5 -107.5t-22 -105t-10 -97.5t-13 -87.5t-27 -72.5t-56 -56t-95.5 -34.5q-76 -15 -158 -47.5 t-152 -72t-144 -86.5t-135.5 -90t-127 -82t-117.5 -63.5t-107.5 -34.5t-96.5 6z" />
<glyph unicode="r" horiz-adv-x="3544" d="M1525 889q10 -145 31 -253.5t64 -220.5t114 -219.5t178 -226.5q-76 33 -190.5 41t-237.5 -4t-258 -31.5t-263.5 -37t-241.5 -25t-204 8t-140 59.5q-37 33 -45 63.5t9 59.5t47.5 58.5t70 68t76 81t66.5 105.5t40 132q57 382 93.5 793.5t27.5 768.5q-4 150 -7 245.5 t-9 220.5t-13 205t-19 170t-27.5 146.5t-37.5 104t-49 70.5q-11 12 -25.5 4.5t-25.5 -27.5t-28 -49t-33 -61.5t-41 -63.5t-52 -55.5t-65 -38.5t-82 -11q-43 3 -64 22.5t-25.5 52t-2 74t2 93t-8 103.5t-37.5 112t-83 112q83 75 192.5 126.5t229.5 76.5t234 34t236 5 q368 -12 485 -427q12 12 36 35q72 69 113 105t127.5 91.5t169.5 81t212.5 41t281.5 4.5q103 -8 209 -32t181.5 -51t153.5 -51t137 -35t119.5 1t112.5 54q125 98 173 -39q48 -135 8 -424q-40 -291 -133 -506q-46 -104 -94 -160q-37 50 -82.5 115.5t-74.5 108.5t-69 95.5 t-72.5 86t-77 68.5t-90.5 55.5t-106 34.5t-130 17q-126 4 -242.5 -8t-233.5 -48t-211 -94t-169 -150t-113 -211q-19 -57 -32.5 -124.5t-22.5 -130t-13 -153t-6 -157.5t2 -182.5t7 -189t12 -215.5t15 -224t18 -250q1 -18 2 -24z" />
<glyph unicode="s" horiz-adv-x="2867" d="M2327 4162q58 45 105 73t84.5 40.5t63 15t55.5 1.5q-5 -28 -22 -76t-32 -96.5t-27.5 -107t-10.5 -129.5t23 -144q27 -97 37.5 -181t5 -167t-20 -156t-42.5 -171q-21 15 -40 40t-37.5 54.5t-40.5 61.5t-60.5 68t-88.5 67q-169 104 -373 142q-203 38 -383 -7 q-108 -28 -196.5 -79.5t-143 -113t-76 -131t-1.5 -133.5q20 -70 57.5 -127.5t89 -101t122 -78.5t151 -60.5t183.5 -47.5q94 -20 196.5 -52.5t213.5 -79.5t214 -111.5t173 -136.5q167 -172 228.5 -402.5t37.5 -533.5q-8 -104 -16.5 -177.5t-24.5 -158t-37 -154.5t-54 -147 t-78.5 -155t-105.5 -163q-65 -89 -136 -155t-149 -110.5t-174 -71.5t-200 -39.5t-237 -13.5q-95 0 -176.5 10.5t-165.5 38.5t-164.5 80.5t-156.5 128.5q-75 75 -126 151t-84 154t-62 156.5t-81 189t-119 221.5q-28 46 -66 86.5t-74 67.5t-73.5 56.5t-67.5 55.5t-53.5 61.5 t-33.5 76.5q18 3 97 20.5t129.5 26t146 21.5t215.5 20.5t269 11.5q306 -7 390 -31q65 -19 65 -58q0 -35 -62 -118q-10 -14 -25 -34q-120 -160 -138.5 -294t63.5 -229q48 -55 128.5 -83t175 -23.5t176.5 44.5q45 23 88 57.5t86.5 90.5t76.5 122.5t54.5 158.5t23.5 193 q1 63 -8.5 116.5t-23.5 97t-44.5 83.5t-59 70.5t-81.5 62.5t-96 55t-118.5 54t-134.5 52.5t-155 56.5q-140 50 -251 97.5t-210.5 103t-172 115.5t-127.5 129.5t-87 149.5q-48 117 -66 262.5t-5.5 294t59.5 297.5t126 266q51 76 106.5 140t113.5 111.5t116.5 84.5t119 61.5 t119.5 40.5t120.5 22.5t117.5 6.5t115 -6q110 -13 188 -32t117.5 -39t66 -39.5t55.5 -36.5t65 -24q76 -16 154.5 10t191.5 112z" />
<glyph unicode="t" horiz-adv-x="3246" d="M111 3228q74 55 217 97.5t304 60.5t290 5q103 812 54 1119q-35 223 -158 264q-108 35 -328 -61l-4 -2q-10 133 26.5 239t106.5 173t163.5 114t197 66t208 24t195 -6.5t158 -31.5t97.5 -45q58 -48 96.5 -142t55 -213.5t23.5 -265.5t1 -297t-12 -308t-16 -299.5 t-11.5 -270.5t3.5 -221l21 -6q62 -17 94.5 -26t93.5 -24t99 -21.5t97.5 -14t103 -6.5t101.5 5.5t108 17.5t107 33.5t112 49.5q41 -134 34 -268t-50 -246.5t-107 -168.5q-119 -104 -329.5 -130t-494.5 36q8 -642 29 -916q42 -535 177 -736q101 -148 263 -143q86 2 156.5 25 t119.5 59.5t90 83.5t75 99.5t67.5 105t74 102t88.5 89t117.5 67t154.5 35.5q-65 -251 -30 -626q6 -65 21 -188q28 -243 23 -334q-8 -158 -101 -201q-92 -42 -286 12q-76 21 -164 27t-170 0.5t-170.5 -16.5t-172 -22t-168 -17t-165 0t-156 26t-149 65t-136.5 113 q-134 147 -227.5 361.5t-151 520.5t-84 686.5t-28.5 887.5q-125 36 -327 -13.5t-379 -152.5q-29 113 -49 201.5t-36.5 188t-19 170.5t11 128.5t45.5 81.5z" />
<glyph unicode="u" horiz-adv-x="3747" d="M31 3695q50 -2 145 -6.5t148.5 -5t135.5 1.5t165 14t178 34q310 70 536 34q157 -24 188 -89q18 -35 -12 -75q-34 -46 -82 -93.5t-86 -84t-77 -82.5t-68 -109t-45 -143q-34 -172 -60 -325.5t-47.5 -330t-31 -334t-7.5 -327t19.5 -321t54 -304t92.5 -287.5 q29 -68 78.5 -114t107.5 -66.5t127 -25.5t133.5 3t130 24.5t113.5 34t87 35.5q40 19 71.5 41.5t59 56.5t48 70t38.5 93.5t31 115.5t24.5 146.5t19 175t15 213.5t13 250.5t11.5 295.5q16 376 14.5 603.5t-29 343t-98.5 193.5q-76 82 -131.5 189.5t-28.5 135.5q46 45 137 68.5 t199.5 24t217 -11t207.5 -33.5q76 -16 184.5 -21t201 -2.5t201.5 1.5t180 -11l-289 -357q-34 -42 -58.5 -82t-45.5 -92.5t-35 -105t-26 -132t-19 -159.5t-12.5 -202.5t-8.5 -245.5t-7 -303q0 -27 -1 -80q-8 -262 -6 -496.5t15 -413.5t56 -293t117 -136q52 -12 95.5 -11 t82 21t71 50.5t61.5 77.5t53 101t45 122q13 -80 22 -169.5t13 -196.5t-5 -204.5t-29 -181.5t-62.5 -139.5t-102.5 -67.5q-126 -27 -245.5 -31t-218.5 13.5t-166 63.5t-83 116q-27 -61 -121.5 -104.5t-228 -65.5t-295 -32t-326 -7t-317 12.5t-272 24.5t-187.5 31 q-66 15 -134 47t-141.5 86.5t-140 126t-125.5 171t-101.5 215.5t-65.5 266.5t-19 316.5q6 271 24.5 540t36 443.5t30.5 339.5t9 300t-30 254q-24 110 -114.5 270t-201.5 303z" />
<glyph unicode="v" horiz-adv-x="3763" d="M2213 3571q-3 24 27.5 41.5t97 27t161.5 9.5t229 -12.5t291 -37.5q84 -13 189.5 -17.5t196.5 -1.5t170 7.5t125 9.5l45 5q0 -12 -1 -48.5t-2 -56.5t-4 -58.5t-7.5 -62.5t-13.5 -60.5t-20 -61t-28.5 -55t-39 -52t-51 -42.5t-64.5 -35q-64 -26 -111.5 -79t-84 -137.5 t-67 -186.5t-71 -249.5t-85 -302.5t-119.5 -369t-165 -426q-76 -182 -188 -386t-225.5 -376.5t-220.5 -314.5t-187.5 -221.5t-113.5 -75.5q-36 5 -168 172.5t-285 395t-301 487.5t-210 426q-66 179 -127 360t-99.5 306t-77.5 248.5t-66.5 206t-60 159.5t-65 128t-74.5 92.5 t-95 69.5q-203 110 -160 522q106 -1 202 -2.5t257 9.5t359 36q429 54 532 59q168 8 191 -36q5 -10 5 -22q-3 -109 -56 -227t-151 -212q-41 -40 -70 -85t-46.5 -87t-22.5 -97.5t-6 -97.5t12.5 -107t23.5 -107t35.5 -117t41 -116.5t46.5 -123.5q20 -53 30 -79 q150 -397 245 -601t175 -276q81 61 159 154.5t138 193.5t113 211t88 206t58 179q69 249 98.5 416t20.5 282.5t-48.5 184t-116.5 121.5q-39 26 -84.5 117.5t-72.5 170.5t-30 105z" />
<glyph unicode="w" horiz-adv-x="5979" d="M3414 163q-34 45 -80 111t-128 190.5t-154.5 246t-147.5 269.5t-120 270q-61 -195 -128 -355t-131 -275.5t-139 -215.5t-143.5 -170t-154.5 -142q-109 -92 -217.5 -117t-225.5 14t-258 144q-205 151 -373.5 368t-282.5 465t-179 520.5t-72 541.5q-4 174 0 319.5t11.5 264 t15 212t9.5 164.5t-4.5 122t-27 83.5t-58.5 49.5q-65 29 -103.5 51.5t-87.5 72.5t-74 114t-40 172.5t-9 251.5q134 -35 279.5 -44.5t271.5 1t251.5 29.5t233.5 38t203 29.5t175 1t135 -44.5q38 -24 61.5 -71.5t24.5 -111.5t-21.5 -132.5t-83.5 -141.5t-155 -131 q-92 -57 -156.5 -188.5t-94.5 -313t-28 -407t37 -470.5q23 -156 82.5 -331.5t131 -314.5t150 -228.5t136.5 -84.5q55 5 121 72t129 173t123 242.5t108 280.5t78.5 287.5t38 262.5t-16 206.5t-79.5 118.5q-73 40 -123.5 104t-72 126.5t-30 129.5t-6.5 111t9 72 q105 -52 206.5 -80.5t187.5 -34t169.5 1t158.5 22t147.5 31.5t144.5 26.5t142 10.5t147 -19.5t152 -60.5q-14 -149 -76.5 -299t-145.5 -234q-36 -37 -39 -120.5t22.5 -191.5t68.5 -235.5t97.5 -253t112 -243t108.5 -206.5t90.5 -143t55.5 -53q34 1 119.5 177.5t177 409.5 t175.5 475q114 327 163.5 600.5t30 445t-103.5 217.5q-75 41 -129.5 109.5t-74.5 137.5t2 132.5t90 95.5q59 27 153.5 33t206.5 -3t239.5 -24t266.5 -27t273.5 -15t274 16t254.5 62q-15 -65 -21.5 -135.5t-6.5 -119.5t-2 -99.5t-10 -85.5t-28 -66t-59.5 -53.5t-101.5 -36.5 q-50 -13 -95 -40t-82.5 -64.5t-73.5 -95.5t-66.5 -119.5t-64.5 -149.5t-63.5 -173.5t-67.5 -203.5t-72 -227t-82.5 -256.5t-94.5 -280.5q-169 -488 -347.5 -889t-342.5 -660q-63 -99 -132.5 -165.5t-149.5 -97.5t-162 -18.5t-172.5 78.5t-179.5 186z" />
<glyph unicode="x" horiz-adv-x="4022" d="M2256 3702q218 -97 427 -163t545 -137q51 -11 127.5 -21t140 -17t135.5 -20t126.5 -29.5t99 -45.5t64.5 -68q4 -9 -3 -16.5t-31 -17t-54 -19.5t-82 -30.5t-105 -43.5q-31 -15 -63 -32t-68.5 -42t-64.5 -43.5t-72.5 -55.5t-70.5 -57t-78.5 -66.5t-78.5 -69.5t-89.5 -80 t-91.5 -82q-221 -197 -403.5 -412.5t-290.5 -418.5q42 -72 69.5 -118t80 -122.5t110.5 -151.5t150.5 -183.5t208.5 -236.5q94 -105 218.5 -222.5t224 -205.5t187 -164.5t131.5 -124t34 -61.5q-27 -36 -226 -64t-508 -38q-98 -3 -213 -14t-199.5 -22.5t-161.5 -20.5 t-124.5 -8t-61.5 16q-5 5 2 18.5t23.5 38t34.5 55t37 77.5t29 97q8 36 8.5 74.5t-4 72t-17 76t-23 73t-31 77t-33.5 71.5t-36 74l-13 26q-11 23 -34.5 70.5t-36 73.5t-33.5 66.5t-34.5 66.5t-30 55t-30 48.5t-23.5 32.5q-28 -43 -48 -77.5t-48.5 -95t-49.5 -122.5 t-43 -152.5t-36 -193.5q-14 -111 -2 -195.5t38.5 -151.5t55.5 -110.5t46.5 -72t11.5 -38.5q-27 -43 -118 -49.5t-366 24.5q-14 2 -249 28q-176 20 -546 22q-254 0 -313 7q-49 6 -47 20q0 2 2 5q75 116 171 230t186.5 204.5t175 171t165 161t129.5 143.5q211 271 325.5 433 t169.5 267q-52 105 -122 195.5t-234 271.5q-455 497 -779 687q-107 62 -198.5 112t-137.5 72t-79 38.5t-43 23.5t-9 15q1 13 16.5 23.5t97.5 42.5t216 78t412 140q337 114 509 170.5t221.5 70t84.5 18.5q0 -11 -11.5 -37.5t-36.5 -90.5t-51 -142q-20 -63 -22 -126.5t9 -121 t40 -128t61.5 -132t84.5 -147.5q53 -87 112 -166t124 -157t97 -121q7 12 45 79.5t52 94t50.5 98.5t61.5 130.5t62.5 151.5t75.5 196q32 95 47.5 191t13 170.5t-14.5 143.5t-27.5 111.5t-31.5 71.5z" />
<glyph unicode="y" horiz-adv-x="4615" d="M2345 2784q107 62 276.5 98.5t355 45t362 1t331.5 -28.5q150 -20 280 -29t209 -9t151.5 8t100 13.5t63.5 14.5q28 8 38 6.5t13 -18.5q5 -22 -4 -59.5t-35 -86t-63.5 -97.5t-97 -100t-129.5 -88q-63 -34 -113 -74t-92.5 -88.5t-78.5 -114t-66.5 -139t-60.5 -177t-57 -214 t-60 -262.5q-42 -196 -95.5 -393t-124.5 -414t-124.5 -371.5t-145.5 -408.5q-45 -127 -80.5 -220t-81 -201t-86 -188.5t-92.5 -167t-105 -153t-117.5 -129.5t-135.5 -114q-101 -70 -206 -117t-232 -73.5t-278 -20t-320 47.5q-81 18 -146.5 11.5t-116.5 -30t-92.5 -49 t-74.5 -47t-61.5 -23t-55 23t-54.5 90.5t-59 180q-27 98 -45 226.5t-30.5 238.5t-32.5 227.5t-63 233.5t-110 216q48 -10 91.5 -22.5t79.5 -25.5t75.5 -34.5t67.5 -37.5t68 -47t64.5 -51t69 -61t70 -65.5t78.5 -75.5q6 -5 9 -8q246 -238 508 -204q200 25 359 201 q148 165 200 391q57 254 -38 463q-40 90 -107 162q-150 162 -252.5 280.5t-214.5 265.5t-219 312.5t-236 386.5q-85 147 -161.5 292.5t-122.5 243t-90.5 190.5t-75.5 151t-66.5 106t-74.5 74.5t-89 40.5q-50 13 -102.5 48.5t-96 82.5t-85 102t-68 107.5t-45 100t-17 77.5 t16.5 41q20 10 64 11t102 -4t150 -7t195.5 0.5t252 20.5t306.5 51q143 30 273 45t228 15t183 -9.5t143.5 -26t102 -36.5t66 -39.5t29.5 -37.5q25 -71 -199 -217q-5 -3 -14 -9q-47 -30 -72.5 -47.5t-72 -53.5t-72.5 -63.5t-62.5 -73t-54 -87.5t-34.5 -101.5t-16.5 -121 t12.5 -139.5t40 -163q34 -103 92.5 -221t125.5 -227.5t153.5 -232t164.5 -224t172 -214t163 -191.5t148 -167q62 120 117 254t100 284t73 295t31 287.5t-21.5 261.5t-89 216.5t-165.5 153.5q-97 54 -213.5 168t-154.5 186z" />
<glyph unicode="z" horiz-adv-x="3767" d="M252 3998q19 -7 58.5 -40t80.5 -70.5t101.5 -79.5t115.5 -64q41 -17 86 -29t115.5 -22t135 -16t186 -13.5t225 -13t296 -15.5t356.5 -20q506 -29 714 -39t320 -10t184 11q109 16 258 59.5t216 81.5q-6 -99 -113 -346t-234 -449q-159 -252 -385 -568t-609 -814 q-101 -133 -214 -252.5t-203 -199t-167 -142t-128.5 -106t-65.5 -66.5q2 -1 39.5 -17t50 -20.5t58 -18.5t77.5 -19t93 -14t121 -11t145.5 -2t181.5 5q16 1 47 2q101 6 147.5 8.5t122 8t109.5 11t88 15t80.5 21.5t64 28.5t61.5 38.5t50.5 49.5t51.5 62.5q4 5 10 16 q46 64 66.5 93t52 70.5t48 60t40.5 41.5t45 35.5t45 23.5q28 -38 56 -204t33 -320q3 -112 -5.5 -238.5t-20 -211.5t-31 -216t-26.5 -186q-225 -13 -384.5 -16.5t-570.5 -7.5q-220 -2 -384.5 12t-266.5 35.5t-197 43.5t-233.5 38.5t-318.5 16.5q-171 1 -327.5 -14t-267 -37.5 t-197 -45.5t-156 -41.5t-107.5 -22.5q-1 27 0 68t8.5 108t21 136.5t39.5 151.5t61 156.5t90 148t121 127.5q61 50 172.5 135t206 159.5t213 175t246.5 226.5t252 268q146 165 268.5 307.5t214.5 253.5t165 203.5t123 160t85 121t53.5 88t26 59t6 37t-10.5 19.5 q-51 41 -185.5 64t-299.5 26t-333.5 -5.5t-306.5 -26.5q-300 -39 -516 -136.5t-294 -229.5q-96 -163 -170.5 -244t-146.5 -114q-16 53 -26 101t-19 138.5t-6 230.5t18 325q31 366 58.5 613.5t44.5 298.5z" />
<glyph unicode="{" horiz-adv-x="2368" d="M1429 1125q57 -338 418 -779q106 -130 353 -393q185 -199 237 -278q76 -116 5 -148q-23 -10 -62 -12q-170 -12 -317 2t-256.5 42t-212 84t-170.5 106t-144.5 135t-121.5 146t-113 161q-135 196 -236 523t-149 697t-36 715q7 190 -2.5 357t-26 287t-49.5 231.5t-60 179.5 t-73 144t-71.5 111t-73.5 96q-53 68 -78 102.5t-49 94.5t-25 126q-1 55 24 98.5t68 76.5t98.5 71.5t115.5 81t119 106.5t108.5 147.5t85 205.5t48 278.5t-2.5 366.5q-37 474 70 814t356 576q230 219 525.5 304t657.5 61q-165 -139 -303 -288t-253.5 -318t-190.5 -338 t-105.5 -351t-7.5 -358q202 -1479 -456 -1704q86 -84 141.5 -213t80.5 -291t36 -343.5t14 -396.5t7.5 -421.5t22.5 -447.5t54 -447z" />
<glyph unicode="|" horiz-adv-x="1312" d="M1194 -184q-89 22 -179 29.5t-164.5 0.5t-149 -17.5t-143.5 -20.5t-135 -14.5t-136 7t-135 40.5q34 101 44 326t2.5 544t-17 756t-14.5 963.5t10 1166.5q13 637 4 1087t-24 784.5t-29 560t-10.5 414t33.5 346.5q127 6 251 29.5t201 44t153 33t143.5 -0.5t135.5 -57 q-7 -159 -22 -442.5t-22 -485t-13.5 -570t-1.5 -920t21 -1313.5q16 -781 33.5 -1338.5t33.5 -893t38.5 -554.5t42.5 -317.5t49 -187.5z" />
<glyph unicode="}" horiz-adv-x="2429" d="M926 748q16 142 27 338t15.5 379t13.5 394t20.5 396t37.5 372.5t64 337t101 275t147 199.5q-35 84 -85.5 189.5t-87.5 181t-79.5 178.5t-71 192.5t-52 211.5t-30.5 248t1.5 288.5t35.5 344.5q16 110 -7.5 231.5t-75 232.5t-126 228t-156.5 218t-172 203t-165.5 181 t-143.5 155.5t-100 122.5q-65 91 20 131q99 47 323 7q295 -54 566 -221q169 -104 292 -235q162 -171 279 -414.5t168 -507.5t22 -491q-24 -194 -19.5 -353t29.5 -282t67 -222.5t94 -173t109.5 -133.5t114 -105.5t108 -88t90 -78.5t61 -80.5t21.5 -95.5q-1 -57 -30.5 -114 t-60.5 -94.5t-99 -109.5q-55 -59 -85.5 -92t-85.5 -103.5t-86.5 -128.5t-73 -152t-63.5 -188t-38 -221.5t-15 -268.5q1 -171 0 -318t-6.5 -332.5t-15.5 -342.5t-29.5 -327t-45.5 -305t-65.5 -258t-88.5 -205q-20 -32 -55 -95q-43 -75 -64.5 -110t-62.5 -94t-71 -84.5 t-81.5 -66t-104 -56.5t-127.5 -37t-163 -25.5t-201 -5.5t-249.5 7.5t-136.5 71.5q0 55 105 183q27 33 92 109q193 224 289 363q226 334 262 646z" />
<glyph unicode="~" horiz-adv-x="3950" d="M1672 3596q123 -21 242.5 -57.5t215 -77.5t188 -86t173.5 -85t157 -72.5t153.5 -51.5t149.5 -19q93 1 176 21t142.5 46.5t115.5 72.5t89.5 83t70 94.5t52 87.5t40.5 82q16 34 24.5 49t19.5 33.5t20.5 23.5t19.5 0q55 -21 84.5 -71t33 -120t-9 -165.5t-36.5 -197 t-53.5 -225t-58.5 -239t-52.5 -250t-33.5 -248.5q-10 -117 -45 -199.5t-85.5 -127.5t-126 -62t-150 -13t-174.5 30t-183 55.5t-191 73.5q-105 43 -208 101.5t-180 112t-157 109t-154.5 99.5t-156.5 77.5t-180 48t-209 4.5q-87 -7 -177 -42t-169 -88t-158.5 -120t-152 -139 t-142 -143.5t-135 -135.5t-125.5 -113.5t-119.5 -77.5t-110.5 -28q46 76 73.5 185t38 225t14.5 241.5t6.5 246.5t9.5 228t28 196.5t58 142.5q46 65 98 122.5t125 119t154.5 108.5t186.5 86t220 58.5t257.5 18t296.5 -27.5z" />
<glyph unicode="&#xa1;" horiz-adv-x="2042" d="M66 -30q15 52 41 143t94.5 358t123 518t105.5 570.5t64 565.5q18 346 32 719t24.5 561t34.5 385q73 40 182 54t225 4.5t235.5 -33.5t220.5 -56.5t175 -68.5q-73 -514 -106.5 -903.5t-30.5 -754.5t47 -691t132 -687q25 -102 68 -197.5t83.5 -159.5t78 -118t56.5 -96.5 t13 -71.5q-8 -36 -22.5 -64t-45 -56.5t-74.5 -47t-112 -29t-155 -9.5t-208 16.5t-267 46.5q-677 142 -1014 102zM1810 4957q-40 -707 -659 -662q-78 5 -158 32.5t-153.5 72.5t-137.5 111t-111.5 142t-73 170.5t-22.5 194.5q4 193 54 336t143.5 234.5t224 138t301.5 53.5 q105 3 197.5 -26t169.5 -94.5t130.5 -161.5t79 -235t15.5 -306z" />
<glyph unicode="&#xa2;" horiz-adv-x="3486" d="M2399 6094q66 -17 102.5 -71.5t44 -128.5t2.5 -161.5t-19.5 -175.5t-25 -163t-9.5 -131t20 -75q48 -43 106 -70t116 -35.5t120 -7t119 11.5t110.5 23t98 26t79 21.5t55.5 7t24 -14.5q15 -52 17 -157t-10 -237t-34 -277t-57 -282.5t-76.5 -247.5t-95.5 -177.5t-111 -67.5 q-29 0 -56.5 18t-57 56.5t-54.5 78t-65.5 103.5t-75.5 113q-161 226 -452 323q-180 62 -360 19.5t-416 -208.5q-105 -74 -179 -168t-128.5 -227t-81 -312.5t-28.5 -414.5q-1 -135 8.5 -246.5t33 -218t62 -192t97 -162t137 -135t183 -105t233.5 -77.5q73 -17 140.5 -25.5 t122 -9.5t107.5 7t92.5 18t79.5 27.5t67 33t58 38.5t49.5 38t43 37t36.5 32q22 18 61 51.5t61.5 52t51 36t47.5 21.5q36 7 37 -16q0 -16 -36 -112q-85 -228 -129 -472q-54 -293 -71 -362q-43 -166 -115 -229q-84 -74 -264 -62q-90 5 -155.5 -6t-107.5 -38t-70.5 -65t-50 -87 t-41 -101.5t-48.5 -112t-67.5 -116.5t-104.5 -116.5t-152 -108.5q-110 -12 -238 22.5t-243 103t-206.5 171.5t-129.5 219q136 89 192 211t33.5 262.5t-116 296t-251.5 315.5q-59 59 -107.5 132.5t-82.5 144t-60.5 151t-41.5 146.5t-26.5 137t-16 115.5t-7.5 88.5 q-4 76 -5 167t3 218t22 277t47 292q26 124 80 265t137.5 292t183.5 285.5t229 248.5t262 179q347 167 463 367q82 142 73 353q-4 76 -38 306q100 13 129 17t120 15t130.5 13.5t115 6.5t122.5 1.5t104 -9t105 -18.5z" />
<glyph unicode="&#xa3;" horiz-adv-x="4074" d="M3180 2544q-195 -34 -383.5 -45t-381.5 5.5t-353 63.5q0 -66 -0.5 -90t-3 -81t-8 -89.5t-16 -93t-26 -115.5t-39.5 -131.5t-56 -165.5q-51 -142 -132.5 -322t-189 -373t-200.5 -306q191 84 401 113.5t410 2.5q71 -10 155.5 -25.5t149.5 -30t140.5 -28t134 -21t123 -6.5 t115 13t102.5 40t92.5 72.5t78.5 112.5t68 158q43 130 101 256t111.5 211.5t99.5 136.5t67 46q40 -10 67.5 -56.5t37.5 -129.5t-3 -216t-51 -303q-16 -75 -14 -181t17.5 -211.5t34 -226.5t34.5 -227t21 -212t-8 -182q-31 -4 -104.5 -14t-98 -13t-84.5 -9.5t-90 -6t-89 0 t-106.5 5t-116.5 13t-145 20.5t-169 31q-107 21 -177 33.5t-187 31t-203 29t-205.5 21t-216.5 11.5t-215.5 -3.5t-222.5 -19t-216.5 -40t-216.5 -62.5q-180 -64 -330 -88t-261 -9.5t-190.5 55t-137.5 104.5q71 64 150 172t149 223t203.5 327t265.5 406q126 187 228 381 t166.5 360t107 322.5t58 276.5t11.5 213q-24 11 -63.5 11t-84 -7t-106 -20.5t-115.5 -27.5t-125 -32t-124 -29q-177 -38 -316.5 -54t-213 -9.5t-73.5 32.5v207.5t-1 195t0 151t2.5 126t4.5 70.5q13 92 677 51q102 -7 196 7t156.5 38.5t100.5 53t43 54.5q7 40 -4.5 114 t-31.5 156.5t-39 188t-29.5 207.5t-2 218.5t42.5 216.5q67 201 194.5 356.5t292.5 251.5t359.5 139t401.5 25q86 -8 170.5 -39.5t155.5 -78t139 -102t129 -111.5t116 -103.5t111 -82t103 -43.5q65 -13 132 -22t111 -12.5t86.5 -8t68 -9.5t46.5 -15.5t30 -28.5t10 -46 q2 -48 -35 -109.5t-103 -123t-158 -122.5t-196 -110t-223.5 -82.5t-233.5 -40.5q33 77 37.5 153.5t-15 143t-59 128.5t-93.5 112.5t-120.5 91.5t-138 68.5t-148 42t-149 12t-141.5 -23t-125 -58.5q-63 -42 -104 -115.5t-60.5 -156t-22 -195t4.5 -210t27 -228t37.5 -220.5 t44.5 -212q97 -40 232.5 -65.5t280.5 -34t281 -11t274.5 -6.5t219.5 -13q10 -90 4 -165.5t-21 -124t-34.5 -101.5t-36 -97t-25.5 -109.5t-4 -140.5z" />
<glyph unicode="&#xa5;" horiz-adv-x="5103" d="M1007 1054q9 20 26 54.5t27 57t21 57.5t16.5 79.5t5.5 101.5q0 81 -12 168.5t-34 194.5t-23 112q-7 37 16 56.5t84.5 25t161 -3t253.5 -29.5q361 -53 638 -6q-13 60 -27 106t-60.5 169t-108 255t-176 348t-261.5 463q-50 84 -141 237q-101 171 -148.5 251t-125.5 207.5 t-118.5 184.5t-104 143t-106.5 125.5t-100 88t-112 76t-116 46.5q-249 79 -358 156q-81 57 -24 84q62 28 131 48.5t176.5 37t233 20t301 -9t378.5 -42.5q232 -35 410 -50.5t277.5 -13t161.5 10.5t106.5 17.5t66.5 9.5q-23 -98 -88.5 -171t-195.5 -140q-39 -21 -65.5 -41 t-44.5 -49t-23.5 -61t-0.5 -80t21 -103t46.5 -132.5t70 -165t96.5 -205.5q284 -594 456 -748q159 164 346.5 442.5t318.5 529.5q232 445 256 638q17 138 -63 214q-49 47 -181 108q-12 5 -36 16l-60 27q-151 69 -271.5 152t-153.5 129q67 24 309 54.5t539.5 49t475.5 7.5 q257 -15 574 -33q263 -13 316.5 -20.5t110.5 -35.5q8 -3 12 -6q22 -11 8 -53q-22 -63 -99 -107q-55 -33 -129 -45q-67 -11 -129.5 -38.5t-140 -89t-155 -155.5t-172 -244.5t-195.5 -348.5q-402 -796 -704 -1252q-47 -71 -127 -189q-152 -225 -202 -324.5t-38 -195.5 q16 -120 42 -166.5t81 -53.5t150 9q43 5 68 7q220 24 403 51.5t434 79.5q47 -64 75 -133t42.5 -128.5t10 -139t-12 -134.5t-33.5 -148t-44 -146t-56 -160q-13 -36 -19 -53q-55 23 -145.5 61.5t-133.5 55.5t-125.5 41.5t-181.5 45.5q-82 17 -174 28t-188 11.5t-155 -16.5 q18 -271 57 -402q13 -48 32.5 -90t53.5 -93.5t79 -98.5t113 -97t152 -95q54 -28 98 -67t71.5 -77t48 -82t30.5 -77.5t16 -69t7.5 -51.5t1.5 -28q-13 -3 -40.5 -3t-50.5 5.5t-62 11t-79 13t-99 11.5t-121.5 6t-148 -2t-177.5 -14t-211 -29.5t-248 -46.5q-135 -29 -264.5 -47 t-229.5 -23t-201.5 -0.5t-169.5 12.5t-143 23t-111.5 25.5t-86.5 25.5q4 31 20.5 62t50.5 69.5t96.5 85t152.5 98.5q158 91 303.5 226.5t217.5 278.5q35 67 54 159.5t19 171t-13 141.5q-187 -5 -419 -69q-42 -12 -138.5 -41.5t-153 -43.5t-148.5 -32.5t-193.5 -24.5 t-220.5 -3z" />
<glyph unicode="&#xa6;" horiz-adv-x="1197" d="M119 -373q9 34 14 66.5t10 91t7.5 119t8 186t9.5 252.5t13 358.5t19 467.5q13 356 18 614t-0.5 430.5t-12 267t-21.5 226.5t-20 208q47 30 116 31.5t143.5 -15t168.5 -33.5t190.5 -23t210.5 16q28 -74 33.5 -183.5t-5 -250.5t-24.5 -292.5t-24.5 -360.5t-4.5 -407 q8 -283 19.5 -605.5t16.5 -464t2.5 -323t-15.5 -364.5q-84 -17 -165 -20.5t-155 3t-151 14.5t-182.5 7t-218.5 -16zM1053 6939q-25 -90 -35.5 -240.5t-29 -539.5t-45.5 -775q-21 -287 -28 -524.5t0 -421t15.5 -299t25 -272t22.5 -228.5q-78 -26 -164 -29t-161.5 8t-218 26 t-284.5 18q-28 74 -31.5 178.5t11.5 251.5t35 312.5t38 425t20 525.5q4 597 -14 1016t-58 541q82 18 176 19.5t178.5 -5.5t171.5 -14t185.5 -1.5t190.5 28.5z" />
<glyph unicode="&#xa8;" horiz-adv-x="2751" d="M2088 6156q-501 28 -471 466q4 56 23.5 113t51.5 109t78 98t101 79t121.5 51t138.5 18q137 -4 238.5 -40t166 -102t97.5 -158t37 -214q2 -74 -18 -140t-66.5 -121t-114.5 -93t-166 -56t-217 -10zM569 6220q-85 16 -155.5 42t-123.5 59t-92.5 73t-64 84t-36 92t-9 98 t17.5 102q27 92 66.5 163t95.5 121t127.5 76t161.5 28q86 2 197 -24q52 -12 100 -34t86 -52t71 -66t56.5 -77t42 -85t26 -88t9.5 -88q3 -44 -5 -86q-76 -432 -571 -338z" />
<glyph unicode="&#xa9;" horiz-adv-x="5964" d="M223 3649q29 256 87.5 492.5t138 435.5t183 379.5t220.5 329.5t251.5 280t273 235t291.5 192.5t300.5 155t304.5 118.5q227 76 464.5 112.5t461.5 33.5t447.5 -36.5t425.5 -95t388.5 -145t344.5 -183.5t288 -211q161 -139 296 -343.5t236 -455t165 -551t86 -623.5 t-4.5 -680.5t-103.5 -711.5q-63 -292 -156 -540.5t-217.5 -459.5t-282.5 -378.5t-351 -296t-423.5 -212.5t-498.5 -127t-577 -41.5t-659 47.5q-306 40 -579 129.5t-494 217t-411 292t-330.5 354.5t-255 405.5t-182 444t-109.5 469.5t-41.5 483t22.5 485zM5082 3698 q-18 171 -53 337t-91 336t-129 325t-174 300.5t-219.5 267t-270 220t-323 163t-380.5 93t-439 12.5q-171 -11 -340.5 -56.5t-321 -118t-295.5 -170t-269 -212.5t-237 -246t-203.5 -269.5t-165 -284t-124 -288.5t-79.5 -284t-33 -270q-7 -266 34 -517t120.5 -467 t195.5 -409.5t261 -349t317.5 -281t362.5 -212t397 -134.5t422 -54q216 -5 416 28t371 99t325 162.5t277.5 218.5t230.5 267.5t183 309t133.5 341t84 366t34 384.5t-17.5 393zM3940 5201q25 -34 25 -85t-14 -113t-37.5 -200t-36.5 -288q-10 -117 -23 -207.5t-26.5 -146 t-28 -90t-28 -45.5t-28.5 -7q-22 7 -34.5 20t-22 33t-19.5 43t-35.5 59t-63.5 72q-94 90 -199 149.5t-208 73.5q-63 8 -123.5 8t-125.5 -15t-126.5 -41.5t-127 -73.5t-129.5 -113q-39 -40 -69.5 -91t-50 -100.5t-34.5 -111.5t-21.5 -110.5t-11 -111.5t-5 -103t-0.5 -95 q0 -131 43 -291.5t116 -297.5q81 -153 187.5 -263.5t224.5 -157.5q97 -38 193 -57.5t210 -16t216 39.5q65 23 110.5 47t73.5 51.5t45 49t39 54t40 54.5q15 17 41 49.5t40.5 50.5t34 36t34.5 23q24 9 24 -4q0 -5 -25 -80q-64 -194 -63 -426q0 -66 4 -176q4 -78 2.5 -134 t-9 -92t-31.5 -51.5t-65 -13t-108 24.5q-43 13 -95.5 12.5t-109 -10.5t-138.5 -19.5t-183.5 -13t-243.5 9.5q-76 7 -131.5 15.5t-124 27.5t-129 47.5t-131.5 76t-146 112.5q-86 76 -160.5 175t-123.5 194.5t-79 171t-45 132.5q-17 67 -29 122t-27 147.5t-22.5 201.5 t-5.5 226q2 132 15.5 240t47 223t93 231.5t148.5 240.5q156 217 322.5 350.5t351.5 182.5q99 25 206 32.5t188.5 0t137.5 -27.5q322 -103 411 8q44 55 94.5 98.5t87.5 60t47 3.5z" />
<glyph unicode="&#xaa;" horiz-adv-x="3997" d="M716 1744q31 -166 74.5 -304.5t94.5 -241.5t112.5 -182.5t126 -130.5t137 -82.5t144 -42t148.5 -4.5q129 10 231 57t168.5 122.5t102 174t38.5 212.5q4 206 10.5 338t20.5 267t39 247.5t63 236.5t96 278q-66 17 -124 30.5t-132.5 28.5t-147 24.5t-152 16t-164.5 6 t-169 -7.5q-107 -10 -205 -46t-176 -93.5t-144 -134t-109 -165.5t-70.5 -188.5t-29 -204t16.5 -211.5zM3843 1459q38 -64 60 -118.5t28.5 -107.5t5 -97t-15.5 -105t-28.5 -112t-38 -136.5t-40.5 -160.5q-10 -41 -10 -108t6.5 -139t12 -157.5t9 -166t-4 -160.5t-25.5 -144 t-57.5 -115t-98.5 -75q-18 64 -40.5 117t-45 92t-54 69t-56 49.5t-63.5 33t-64.5 20.5t-71 10.5t-70.5 4t-75 0.5q-65 1 -99 2t-95.5 9t-100 22.5t-92.5 44.5t-93.5 72.5t-83.5 108.5t-80 151q-12 -50 -35 -95t-65.5 -90.5t-100.5 -83t-144 -69t-191.5 -51.5t-247 -28.5 t-306.5 -1.5q-167 7 -314 52t-263 120t-214 180t-170.5 228.5t-128.5 270t-91 299.5t-55 322q-29 241 -38.5 429t2.5 368t51 326.5t110 283.5t177 261q108 126 252.5 227t313.5 169.5t365 94t394 0.5q145 -19 325.5 -58.5t330.5 -75.5t218 -45q56 -8 144.5 10t178.5 46 t205.5 53.5t226 33.5t240.5 -16q-122 -99 -237 -271.5t-204.5 -379.5t-160.5 -436.5t-114 -454t-56 -421.5q-15 -177 -11 -330t24.5 -268.5t72.5 -189t134 -91.5q61 -13 115 -15t95.5 2t80 23.5t65 36.5t54 53t43.5 60.5t38 73.5t33 76.5t32 83.5q34 90 55 139.5t62.5 121.5 t89.5 123z" />
<glyph unicode="&#xab;" horiz-adv-x="4480" d="M1922 1989q282 200 536 364.5t414 261t316.5 193.5t318.5 214t344 271q55 47 126.5 122.5t125 135.5t117.5 117.5t116 82.5q-4 -80 -2.5 -171t9 -170.5t12 -178.5t5 -195t-12.5 -222t-39 -257q-18 5 -42.5 24t-48.5 42.5t-53 49t-62 43.5t-69.5 26t-81.5 -2.5t-91 -41.5 q-215 -143 -330 -219t-346 -222t-407 -246q311 -228 630.5 -414t580.5 -287q35 16 77.5 46t77 59t66.5 54t55.5 36t33.5 3q21 -18 36.5 -82t23.5 -159t1.5 -233.5t-30.5 -286.5q-16 -103 -17 -229t6 -201l7 -75q-38 13 -84 59t-92 105.5t-94 121.5t-105.5 120.5t-109.5 89.5 q-246 167 -595.5 387.5t-691.5 440t-631 423.5zM2489 1045q35 -53 69.5 -154.5t58 -209t43 -207.5t29.5 -164l11 -64q-121 324 -639 685q-511 357 -931.5 594.5t-989.5 494.5q536 218 989 459.5t1011 606.5q54 36 122 95.5t143.5 140t153 184t138.5 209.5q5 -102 5 -183 t-6 -155t-17 -133t-29.5 -115.5t-42 -103.5t-58.5 -97.5t-73.5 -96.5t-90.5 -103q-28 -30 -75 -68t-118.5 -87.5t-139 -93.5t-174 -109.5t-182 -112.5t-205.5 -126t-206 -125q181 -117 300 -195.5t240.5 -161.5t199.5 -141.5t153.5 -120t127 -115.5t97.5 -109.5t86 -117.5z " />
<glyph unicode="&#xac;" horiz-adv-x="5586" d="M1189 3932q-145 -11 -243.5 -26t-161.5 -36t-104 -45t-88 -60t-97 -71t-146 -86.5t-221 -103.5q13 144 17.5 305.5t2 284t-3 249.5t6.5 223.5t26 184t59 153t101 110.5q131 -33 263 -59.5t244.5 -46t243 -33.5t227 -24t231 -14t219 -7t228 -2.5t221 1t232.5 2.5 q47 1 71 2q16 0 48 1q363 5 532 7.5t438.5 11t411.5 20t353 31.5t369 48.5t351 69.5t402 96q-35 -174 -49.5 -418t-12 -496.5t11.5 -524t17 -522.5t8.5 -467.5t-18.5 -383.5t-59 -247q-26 -53 -59.5 -101.5t-79.5 -96t-97 -83.5t-116 -58t-134 -24.5t-152 22.5t-169 77 q26 80 37 263t8.5 406.5t-22 465.5t-52 442t-84 333.5t-113.5 143.5q-213 31 -382 54.5t-337 42t-292 31t-274.5 19t-255 10t-263 0.5t-269 -7.5t-302.5 -16.5t-333 -22t-390 -28z" />
<glyph unicode="&#xad;" horiz-adv-x="4023" d="M205 2701q-12 42 -46 282t-51 399q-20 219 0 420t66 318q48 1 96 -8t107 -27t135 -41t203 -50.5t286.5 -54.5t410 -55.5t550.5 -50.5q219 -16 416.5 -18t349.5 6.5t287 26.5t232 40.5t181 50t139 53.5t100 53t68 45.5t41 35.5t22 19q-13 -67 -11 -154t18.5 -178 t35.5 -192t40 -197t32.5 -192.5t12.5 -178.5t-19.5 -155.5t-64.5 -123.5q-38 -43 -85 -48t-123 18.5t-202.5 56.5t-320.5 65t-480.5 44.5t-681.5 -5.5q-290 -15 -537 -33t-417.5 -36.5t-302.5 -36.5t-219.5 -34.5t-138.5 -28.5t-87.5 -23t-41.5 -12z" />
<glyph unicode="&#xae;" horiz-adv-x="5951" d="M5784 3506q22 -243 23 -485t-42 -483.5t-110 -470t-181 -443.5t-254.5 -405.5t-331.5 -354.5t-411 -291.5t-493.5 -217t-578.5 -129.5q-349 -46 -659 -47.5t-578.5 41.5t-498.5 127t-423 212.5t-350.5 296t-283 378.5t-217.5 459.5t-155 538.5q-77 356 -104.5 713.5 t-5 680t86.5 623t165.5 551.5t236.5 454.5t295 343.5q130 113 288 212.5t344.5 182.5t388.5 144.5t425 94.5t447.5 36.5t463 -33t464.5 -112.5q156 -52 303.5 -118t300 -154.5t291.5 -192.5t274 -236t251.5 -280t220 -328.5t182.5 -379.5t138 -435.5t88 -492.5zM925 3555 q-25 -197 -17 -393t34.5 -384.5t84 -367t133.5 -341t182.5 -308t230.5 -267.5t278 -219t324 -163t371 -98.5t416 -27.5t422.5 53.5t397 134.5t361.5 211.5t317.5 281.5t261.5 349.5t195.5 409t119.5 466.5t34 516q-3 129 -32 270.5t-79 285t-124 289t-165 284t-204.5 269.5 t-237 246.5t-268 212.5t-295.5 169.5t-320.5 118t-340.5 56.5q-230 15 -439.5 -13t-381 -93t-322.5 -163.5t-270.5 -219.5t-220 -266.5t-173.5 -300.5t-129 -325.5t-91 -336t-53 -336.5zM2589 4367l4 -8q65 -180 83 -395q22 -249 24 -461q110 3 222 48.5t190 125.5 q79 81 107.5 162.5t21.5 176.5q-4 86 -34.5 161t-85.5 123q-62 53 -124 74.5t-165 17.5q-51 -2 -89.5 -5.5t-88 -10.5t-65.5 -9zM2274 4968q261 -40 454 -90t428 -140q485 -187 683 -550q31 -57 48.5 -121.5t20.5 -140.5t-21.5 -158.5t-74.5 -160.5q-39 -60 -103 -119.5 t-126 -102.5t-118 -77t-90 -52l-36 -17q36 -10 55 -15.5t47.5 -17t48 -25.5t43.5 -36.5t46 -52.5q46 -61 59.5 -115.5t17.5 -133.5q8 -159 3 -267q-5 -172 43 -369q20 -77 57.5 -169t72 -164t100.5 -205q40 -80 68.5 -132t55.5 -96.5t47 -69t49 -49.5t53 -41t66 -40 q48 -27 109.5 -31.5t103.5 4.5t63 21q31 17 57.5 66.5t40.5 120.5q8 40 5.5 95.5t0.5 56.5q1 1 7.5 1t21 -1.5t31 -5.5t40.5 -13.5t49 -23.5q59 -35 95.5 -80.5t59.5 -117.5q24 -77 12.5 -160t-53.5 -146q-31 -46 -104.5 -71.5t-258.5 -70.5q-120 -29 -198.5 -41 t-156.5 -9.5t-161 23.5l-51 13.5t-47 15t-49 22t-47 30.5t-51.5 43t-52 58t-58.5 77q-131 192 -216 346.5t-151 326.5q-79 208 -122.5 360.5t-61.5 333.5q-18 184 -61 288.5t-119 178.5q-65 62 -129.5 88t-107.5 26q0 -7 2 -160q2 -187 28 -335q17 -99 40.5 -158t93.5 -179 q22 -37 43.5 -71.5t32.5 -53t21 -34t14.5 -24.5t6.5 -15q5 -18 -5 -29t-43 -10q-10 0 -32 5t-74 8.5t-139 1.5q-145 -3 -221 -15t-206 -51q-177 -52 -288 -52q-48 0 -89 18t-40 49q0 15 4.5 32t20 54t33 75.5t56.5 124.5t77 174q42 94 67.5 162.5t47 152.5t32 162t16 194 t4 247t-8.5 321q-7 199 -26 352.5t-54 276.5t-70.5 209.5t-92.5 196.5q-43 84 -90 165t-69 119t-23 51q52 3 158.5 -11t335.5 -50z" />
<glyph unicode="&#xaf;" horiz-adv-x="3120" d="M2995 3826q-77 25 -206 36.5t-465 30t-669 45.5q-248 21 -452 27t-362.5 -1t-258 -15t-234 -25t-197.5 -22q-22 78 -24.5 164t6.5 161.5t22 218t15 285.5q64 28 154 31t217 -12.5t270.5 -35t366.5 -37.5t453 -20q514 -4 875.5 14t466.5 58q15 -82 17 -175.5t-4.5 -178.5 t-12 -172t-2 -186.5t23.5 -190.5z" />
<glyph unicode="&#xb0;" horiz-adv-x="2548" d="M105 5273q15 130 48.5 246t80 209.5t107 174t127 142.5t143 113.5t150.5 87.5t155 62q154 52 319.5 57.5t310.5 -30t269.5 -95.5t216.5 -139q78 -67 145.5 -164t121.5 -224t85 -267.5t31 -307.5t-36 -333q-50 -230 -160.5 -400.5t-277.5 -278.5t-393.5 -147t-500.5 -3 q-110 13 -208.5 43.5t-180 73t-153.5 98t-128 119.5t-103 136.5t-78.5 150.5t-55.5 161t-33 169.5t-11.5 173t9.5 172.5zM1843 5305q-16 115 -57 215t-96 172.5t-123 125t-140 80t-144 31.5q-77 4 -161.5 -23.5t-162.5 -77.5t-148 -119.5t-121.5 -149t-83.5 -168.5t-34 -172 q-2 -113 30.5 -207t92 -159.5t142.5 -108.5t182 -61t211 -12q145 8 266 55.5t205 128t123 196.5t19 254z" />
<glyph unicode="&#xb1;" horiz-adv-x="3513" d="M1783 2124q205 9 389.5 26t310 35.5t235 38t181.5 34.5t132.5 24t106 7t83.5 -16q75 -28 109.5 -65t39.5 -89.5t-4.5 -124t-24 -168t-18 -224.5t14.5 -291q-84 -9 -150 -6.5t-144.5 10.5t-147.5 22t-158 28.5t-176 28.5t-202 24t-234.5 14t-274.5 -1.5t-325 -22.5 q-177 -17 -379 -48.5t-339.5 -57t-287 -44t-259.5 -16.5q-2 94 -20 188t-43.5 209t-38.5 226q-22 185 6 295.5t101 180.5q16 15 47.5 13.5t77.5 -17.5t113 -39t154 -51t199.5 -53t250.5 -44.5t306.5 -27t368.5 1.5zM207 3904q3 137 39 221t109 121.5t184.5 29.5t270.5 -57 q187 -59 366 -74.5t367 3.5q8 152 -11 340.5t-51 325.5q-23 97 -52 169t-59.5 121.5t-61 92.5t-67 106.5t-65.5 138.5q27 30 78.5 46.5t149 27.5t313.5 27q306 22 381 15q85 -8 101 -49q13 -34 -10 -135q-40 -185 -52 -267q-3 -27 -7 -53q-13 -120 -13.5 -256.5t6.5 -232.5 t18 -217t13 -178q71 -5 382 -21.5t428 -35.5q5 -1 16 -2q79 -13 113.5 -19t87.5 -16.5t71.5 -19t46 -23.5t33 -31.5t12.5 -41.5t2.5 -54t-14.5 -70q-21 -88 -41 -159.5t-40 -121.5t-39 -88t-36.5 -58t-35 -32.5t-34 -12.5t-31.5 3q-52 17 -155 57.5t-175 64t-172.5 51.5 t-205.5 37t-214 3q-1 -13 -9.5 -94t-10 -98t-8 -85.5t-8.5 -91.5t-7 -81t-6 -89.5t-3 -79t-2.5 -88t-0.5 -81.5q0 -55 16 -245q12 -148 -11 -208q-35 -91 -169 -104q-104 -10 -285 21q-74 13 -124.5 25t-96 28t-71.5 33t-46 45t-25.5 59.5t-3.5 77.5t13.5 98.5t32.5 125.5 q88 308 130 516t51 305q-187 -5 -324 -15t-264.5 -30t-219.5 -39.5t-250 -57.5q-21 -5 -51.5 8.5t-65.5 51t-64 92t-47.5 140t-15.5 185.5z" />
<glyph unicode="&#xb2;" horiz-adv-x="4052" d="M3048 3285q-178 -289 -321 -543t-285 -542.5t-269.5 -602.5t-242.5 -662q116 -31 220 -49t192.5 -25.5t183 -1t171 18t176.5 39t180.5 53.5t201.5 68q112 39 217 111t166 149q13 -105 51 -230.5t81.5 -239t106.5 -309t115 -400.5q114 -447 39 -553q-34 -48 -90 -13 q-13 8 -25 20q-44 44 -85 80t-111.5 89.5t-141 95.5t-169 86.5t-200 72.5t-230 45t-262.5 13q-187 -5 -411 -25.5t-406 -44.5t-401.5 -43.5t-414.5 -26.5t-427 8.5t-456 59.5q97 93 185 232t198 363.5t224 471t317.5 668.5t421.5 843q145 281 299 552.5t267 455.5t221 360 t178.5 297.5t122 234.5t68 206t2.5 179q-17 103 -59 202t-102 184t-139 154.5t-168 117t-191 66.5t-205.5 7.5t-215 -63t-216.5 -142.5q-99 -86 -182 -184.5t-139 -190.5t-103 -183t-80 -171.5t-61.5 -148t-58 -120.5t-58.5 -81q-98 -91 -180 7q-90 108 -122 388 q-21 184 -7 401q3 60 -3.5 123t-18 116t-36 120t-43.5 112.5t-54.5 115t-55.5 107.5t-61 108q-9 15 -11 23q49 23 121.5 34.5t151 14t189.5 12.5t228.5 26t278 58.5t326.5 106.5q189 73 373.5 109.5t344 37t309 -25.5t272.5 -74.5t230.5 -115t188 -143t140.5 -159.5 q386 -549 356 -1092q-21 -367 -239 -802q-101 -204 -334 -580h-1v-1l-1 -1v-1l-1 -1l-1 -1v-1l-2 -1v-1l-1 -1v-1l-1 -1h-1v-2l-1 -1v-1l-1 -1v-1l-1 -1l-1 -1v-1l-1 -1v-1l-1 -1v-1h-1l-1 -2v-1l-3 -1v-1v-1v-1l-1 -1l-1 -1v-1z" />
<glyph unicode="&#xb3;" horiz-adv-x="4110" d="M108 6197q29 10 56 15.5t45 8.5t54 4t55 1h79.5h96.5q76 0 212 33.5t374 106.5q15 4 45 14q90 28 134.5 41.5t118.5 33t127 26.5t128 14.5t156.5 7t179.5 -7.5q153 -10 276 -32.5t219 -60.5t167.5 -79.5t149.5 -100.5q257 -196 410 -490.5t198 -659.5q35 -280 3.5 -579.5 t-121.5 -541.5q-44 -119 -103 -216t-131.5 -171t-155.5 -130t-185 -105q115 -33 210 -70t164 -72t138 -83t115.5 -87t112.5 -100q150 -137 263 -296t182 -322t105 -323.5t44 -323.5q8 -177 -19.5 -370.5t-83.5 -377.5t-147.5 -345.5t-205.5 -261.5q-98 -85 -187.5 -154 t-177 -124.5t-168 -97.5t-164.5 -73t-159.5 -52.5t-162 -32.5t-163.5 -17t-173 -4.5t-180.5 6.5t-194.5 13q-144 12 -276 43.5t-228.5 68t-188 71.5t-195 59.5t-211.5 26.5q-88 2 -161.5 8t-138.5 17.5t-114 30t-83 43.5t-50.5 56.5t-13 71.5t27.5 89q233 466 443.5 774 t444.5 498q53 -81 86 -158.5t45.5 -138.5t17.5 -119t7 -109t9.5 -99t31 -100t64.5 -101q81 -99 203 -166.5t257.5 -97t283 -24.5t282.5 43.5t255.5 115.5t200.5 182q121 161 175 366t39.5 417t-95.5 427t-221 400q-422 557 -784 419q-156 -60 -332 -72t-355 31 q38 130 58.5 250t15.5 254q-3 80 5.5 145t22.5 108.5t43.5 78t52 53t63 34.5t62.5 22t63 14q15 3 24 5q229 50 376.5 107.5t250.5 140.5q84 67 154 162.5t115 194.5t76 202t43.5 190t8.5 157q-8 168 -80 332t-191 288t-262 186q-113 49 -220 72t-194.5 21.5t-156 -15.5 t-126.5 -40q-117 -52 -211 -108t-155.5 -107t-105.5 -103t-66.5 -96t-30.5 -87q-15 -69 -37.5 -133t-46.5 -109t-48.5 -76.5t-46.5 -43.5t-38 -3q-106 162 -175.5 274t-143 246t-119.5 245.5t-84 240t-58 261.5z" />
<glyph unicode="&#xb4;" horiz-adv-x="2263" d="M1800 7664q36 -42 115.5 -114t142 -133t76.5 -93q15 -36 21.5 -64t7.5 -79t-13 -127q-12 -62 -46 -182q-40 -144 -82 -238t-115 -204t-206 -272q-204 -250 -399.5 -390t-430.5 -194q-99 -22 -291 -36t-334 -16l-142 -4q85 26 188.5 87t198 137t186 161t159 157t109.5 126 q132 168 226 294t174 248t133 214t111 215t101.5 230t109.5 277z" />
<glyph unicode="&#xb5;" horiz-adv-x="4284" d="M1980 3113q-538 -101 -397 -1088q37 -254 73 -441.5t79.5 -328t90 -231.5t106.5 -147t125.5 -78.5t149.5 -22.5q80 0 153.5 14t142.5 45t128 78t110 115.5t90 155t67 199t41 244t10.5 294t-21.5 346.5q-24 235 -53 421.5t-55.5 314.5t-63.5 226t-65 154.5t-73 102 t-73.5 65.5t-79.5 49q-15 9 -29 16t-33 18q-35 18 -50 27t-37 22.5t-27 19.5t-10 15t3.5 14t23 11.5t39 11t60.5 9.5q102 15 278 15t353 -10t348 -28q184 -18 382.5 -18t328 9.5t208.5 23.5q-13 -38 -31 -69t-50 -66.5t-85 -63.5t-123 -47q-77 -21 -133 -70.5t-104.5 -155 t-76.5 -267.5t-41 -409t-8 -578q4 -281 -9.5 -503.5t-48.5 -413.5t-93 -339t-145.5 -271.5t-201.5 -218.5t-263 -174q-112 -59 -221 -98t-191 -56.5t-173.5 -23.5t-146.5 -4.5t-133 6.5t-112 6q-3 -79 23.5 -161.5t74.5 -162t99.5 -155t108.5 -168t89 -174.5 q-100 -26 -288 -46t-383.5 -30t-379.5 -9t-282 13q150 127 208 267q73 170 68 482q-4 270 -84 951q-13 108 -37 316q-40 343 -80 610t-79.5 471t-83 354t-87 253t-96.5 171.5t-105.5 105.5t-121.5 61q-78 27 -149 65.5t-116 75t-77.5 68.5t-46 51.5t-9.5 20.5q1 0 74.5 7.5 t145.5 12.5t185 10t255 0.5t295 -17.5q162 -13 299 -18.5t229 -4.5t193.5 8.5t157.5 14.5t155.5 20.5t157.5 19.5q-7 -63 -37 -127.5t-86.5 -117t-122.5 -65.5z" />
<glyph unicode="&#xb7;" horiz-adv-x="1552" d="M89 3875q44 784 731 735q87 -7 175.5 -37t169.5 -80.5t152 -122.5t123.5 -157.5t81 -190t26.5 -215.5q-5 -214 -60.5 -372t-159 -259.5t-248.5 -153t-335 -58.5q-116 -4 -218.5 28t-188 104.5t-144.5 179t-87.5 260.5t-17.5 339z" />
<glyph unicode="&#xb8;" horiz-adv-x="1845" d="M713 -521q23 -7 50 -29t50.5 -49.5t57 -58t66.5 -54t80 -37.5t98 -9q46 4 80.5 16t59 29t41.5 43.5t26.5 52t14.5 63t6.5 67.5t1.5 74q0 81 -15 142.5t-51.5 111t-100 81t-155.5 43.5q-73 9 -134 7t-116.5 -13t-94 -23t-65 -20.5t-29.5 -8.5q-17 280 -43 537 q81 16 121.5 23t99 14t98.5 4t75 -16q2 -120 10 -214q202 35 382 -39q104 -43 171 -104t110.5 -156.5t64.5 -237.5q12 -82 13 -162t-9.5 -157.5t-36 -147.5t-63.5 -130.5t-94.5 -109t-126.5 -78.5q-82 -36 -177.5 -54t-193 -14.5t-187.5 38.5t-150 100q-10 11 -34.5 12 t-55 -5.5t-68.5 -13.5t-76.5 -13.5t-77.5 -4.5t-71.5 13t-60 40t-41.5 74q101 43 275 161.5t275 212.5z" />
<glyph unicode="&#xb9;" horiz-adv-x="2578" d="M1955 602q15 -67 53.5 -136t101 -134t155.5 -122t207 -95q-43 -40 -90.5 -71t-125 -57.5t-180.5 -43.5t-256 -26.5t-352 -9.5q-138 0 -318.5 -2.5t-290 -4t-240.5 0t-214.5 8t-162.5 21.5t-132 39q28 60 114.5 135t197.5 140t216 104q105 40 129 211t31 743 q11 817 38 1453q27 622 114 1242q38 273 41 339q2 100 -41 131q-38 27 -151 24q-255 -8 -470 104q-148 77 -206 171q-55 90 3 144q22 20 57 31q120 39 219 82.5t207.5 111t212 159t222.5 219.5t248 296q36 47 68 83t66.5 65.5t62 50t67 37.5t69 28t79 23t86.5 19t102 18 q42 8 55 -57q18 -98 -38 -429q-3 -21 -11 -61q-5 -34 -8 -48q-44 -256 -70 -655.5t-52 -1357.5q-11 -384 -12 -705t7.5 -588.5t24 -486.5t41.5 -421t56 -369.5t70 -352.5z" />
<glyph unicode="&#xba;" horiz-adv-x="2548" d="M105 5273q15 130 48.5 246t80 209.5t107 174t127 142.5t143 113.5t150.5 87.5t155 62q154 52 319.5 57.5t310.5 -30t269.5 -95.5t216.5 -139q78 -67 145.5 -164t121.5 -224t85 -267.5t31 -307.5t-36 -333q-50 -230 -160.5 -400.5t-277.5 -278.5t-393.5 -147t-500.5 -3 q-110 13 -208.5 43.5t-180 73t-153.5 98t-128 119.5t-103 136.5t-78.5 150.5t-55.5 161t-33 169.5t-11.5 173t9.5 172.5zM1843 5305q-16 115 -57 215t-96 172.5t-123 125t-140 80t-144 31.5q-77 4 -161.5 -23.5t-162.5 -77.5t-148 -119.5t-121.5 -149t-83.5 -168.5t-34 -172 q-2 -113 30.5 -207t92 -159.5t142.5 -108.5t182 -61t211 -12q145 8 266 55.5t205 128t123 196.5t19 254z" />
<glyph unicode="&#xbb;" horiz-adv-x="5247" d="M2299 3477q-40 64 -82 186.5t-71.5 252t-52.5 250t-35 197.5l-11 77q148 -392 769 -827q617 -432 1125.5 -718t1195.5 -599q-648 -263 -1194.5 -553.5t-1220.5 -733.5q-66 -43 -148 -115.5t-173.5 -168.5t-184.5 -221t-166 -255q-7 123 -7 222.5t7.5 187.5t20 160t36 140 t51.5 125t69.5 118.5t88.5 116.5t109 123q35 37 92 83t143.5 105t167.5 112.5t209 133t220 136t248.5 151.5t248.5 152q-191 124 -320.5 209t-264.5 176t-224.5 155.5t-180.5 135t-152 125.5t-120.5 116.5t-105 120t-87.5 124.5zM3059 2309q-274 -194 -599.5 -406.5 t-581 -372t-574.5 -364t-562 -369.5q-64 -37 -132.5 -107.5t-126.5 -145t-113 -147t-110.5 -127t-103.5 -71.5q1 13 4 37t7 96.5t5.5 141.5t-3.5 162.5t-18 172.5q-28 179 -36 345.5t2 282t29 192t44 98.5q12 11 39.5 -2.5t66.5 -44t81 -65.5t94 -71t93 -56 q315 123 700.5 348t761.5 499q-164 93 -340.5 201t-380 241t-296 194.5t-291.5 192.5q-57 38 -111 51t-98 3t-83.5 -32t-74 -52.5t-64.5 -58.5t-58.5 -51.5t-51.5 -29.5q-31 158 -46.5 310t-15 268t5.5 236.5t14 216t12 205.5t-3 208q63 -30 140 -100.5t141 -142.5 t150.5 -163t153.5 -148q220 -185 415.5 -327t384.5 -260t382.5 -234t500 -314.5t647.5 -439.5z" />
<glyph unicode="&#xbf;" horiz-adv-x="3484" d="M2141 -581q-888 -143 -1409 197q-135 88 -247.5 229.5t-189 309.5t-122.5 353.5t-56 371.5q-7 112 8.5 229t55 245.5t102 251t157.5 246t213 231.5q106 94 185.5 186t140 192.5t94 210t41.5 230.5q3 48 -10.5 115t-34.5 131t-42 134.5t-35.5 128.5t-12 110t26.5 84 q25 12 51 10.5t70.5 -13t88.5 -29t105.5 -37.5t121 -37.5t135.5 -29.5t149 -13q104 -1 191 3.5t165.5 16t121 20t121.5 25.5q-22 -179 -87.5 -373.5t-159.5 -373.5t-210 -349.5t-241.5 -313t-250.5 -252.5q-78 -67 -141 -148t-104.5 -158t-70 -161t-43.5 -158t-21 -151 t-4.5 -136.5t7.5 -117.5q13 -132 32.5 -231t51 -182t76.5 -141.5t107.5 -101t144.5 -69.5q136 -44 285 -59.5t313.5 8t300.5 90.5q104 52 175.5 123t112 162t56 193.5t10.5 228.5q-4 108 -24.5 193.5t-53 138.5t-75 86t-89.5 41t-97 0.5t-98 -32t-91 -61.5t-77 -81 q-20 94 -31.5 173t-14 144.5t-1 117t16.5 94t28 73.5t43.5 58.5t53.5 46t67 38t76.5 32t87.5 31.5q112 37 213 43.5t180 -13t149.5 -61.5t123.5 -98t97 -126t74.5 -139.5t54.5 -146t37.5 -140t22.5 -125.5q20 -146 20.5 -299.5t-18 -305t-64.5 -289.5t-115 -233 q-43 -61 -109 -126.5t-163 -139.5t-207 -136.5t-252.5 -113.5t-288.5 -75zM1377 3871q-131 97 -219 201.5t-127.5 204.5t-40.5 198t34.5 185.5t103.5 163.5q111 125 226.5 193t241.5 81.5t264 -37.5t286 -167q91 -72 151 -168t83.5 -197.5t20 -205.5t-35 -198.5 t-83.5 -169.5q-351 -492 -905 -84z" />
<glyph unicode="&#xc0;" horiz-adv-x="3991" d="M2013 1423q-113 -3 -238.5 -30t-153.5 -57q-57 -61 -48 -225q4 -73 8.5 -118t16.5 -116t30 -126t50.5 -122t77.5 -130q33 -46 63 -84t49 -60.5t43 -46.5t32 -31t29 -24t24 -19q34 -29 11 -82q-8 -18 -51 -35t-107 -28q-90 -16 -373.5 -26t-505.5 4q-204 15 -351.5 34.5 t-238.5 44t-138 43t-97 46.5q-8 4 -12.5 27.5t-0.5 68t19 98.5t52.5 126t94 144t144.5 175t139.5 165.5t113 159.5t104.5 200q113 270 223 583t171 569q217 920 206 1401q-1 43 -3 80t-7.5 68.5t-10.5 56t-15.5 47.5t-18 39.5t-23 35.5t-25 30.5t-31.5 29t-35 28t-40 31.5 q-4 3 -5 4q-50 38 -112.5 69t-138.5 59.5t-94 37.5q-39 18 -72.5 42t-48.5 43.5t-8 28.5q13 18 28 32.5t48.5 35.5t75.5 34t112 23t156 10q129 0 210 3.5t191 15.5t203.5 34.5t215 64t259.5 101.5q153 67 263.5 102.5t175.5 40t101 -8t57 -41.5q43 -56 85.5 -308.5 t71.5 -635.5q65 -871 232 -1960q43 -284 88 -518t107.5 -486.5t146.5 -492t189 -463.5q42 -90 104.5 -183.5t118 -161.5t129 -159.5t120.5 -158.5q16 -23 7.5 -50.5t-33.5 -35.5q-43 -13 -122.5 -16t-143 1t-160.5 13t-125 12q-266 17 -472 -4.5t-506 -85.5 q-81 -17 -192.5 -53.5t-170.5 -59.5q-35 -13 -88 -19.5t-74 3.5q-62 40 36 183l193 278q270 400 269 882q-1 222 -20 428.5t-45 317.5q-132 22 -245.5 26.5t-293.5 0.5zM2378 3499q-105 -31 -223.5 -226.5t-201.5 -484.5q-60 -207 -111.5 -398t-73.5 -279l-23 -87 q204 0 367 3q257 5 374 25q-15 241 -55 722.5t-53 724.5zM708 6480q-31 -28 -100.5 -74t-123.5 -84.5t-67 -60.5t-18 -40t-6.5 -51t10.5 -81.5t40 -115.5q36 -92 72 -152.5t99.5 -131t179.5 -174.5q177 -159 346.5 -249t374.5 -123q86 -13 253 -23t292 -12l123 -1 q-74 16 -163.5 55.5t-172 87.5t-162.5 102t-138 100.5t-95 80.5q-115 107 -196.5 188t-151 158.5t-116 137.5t-96.5 139t-88.5 147.5t-95.5 176.5z" />
<glyph unicode="&#xc1;" horiz-adv-x="3986" d="M2013 1423q-113 -3 -238.5 -30t-153.5 -57q-57 -61 -48 -225q4 -73 8.5 -118t16.5 -116t30 -126t50.5 -122t77.5 -130q33 -46 63 -84t49 -60.5t43 -46.5t32 -31t29 -24t24 -19q34 -29 11 -82q-8 -18 -51 -35t-107 -28q-90 -16 -373.5 -26t-505.5 4q-204 15 -351.5 34.5 t-238.5 44t-138 43t-97 46.5q-8 4 -12.5 27.5t-0.5 68t19 98.5t52.5 126t94 144t144.5 175t139.5 165.5t113 159.5t104.5 200q113 270 223 583t171 569q217 920 206 1401q-1 43 -3 80t-7.5 68.5t-10.5 56t-15.5 47.5t-18 39.5t-23 35.5t-25 30.5t-31.5 29t-35 28t-40 31.5 q-4 3 -5 4q-50 38 -112.5 69t-138.5 59.5t-94 37.5q-39 18 -72.5 42t-48.5 43.5t-8 28.5q13 18 28 32.5t48.5 35.5t75.5 34t112 23t156 10q129 0 210 3.5t191 15.5t203.5 34.5t215 64t259.5 101.5q153 67 263.5 102.5t175.5 40t101 -8t57 -41.5q43 -56 85.5 -308.5 t71.5 -635.5q65 -871 232 -1960q43 -284 88 -518t107.5 -486.5t146.5 -492t189 -463.5q42 -90 104.5 -183.5t118 -161.5t129 -159.5t120.5 -158.5q16 -23 7.5 -50.5t-33.5 -35.5q-43 -13 -122.5 -16t-143 1t-160.5 13t-125 12q-266 17 -472 -4.5t-506 -85.5 q-81 -17 -192.5 -53.5t-170.5 -59.5q-35 -13 -88 -19.5t-74 3.5q-62 40 36 183l193 278q270 400 269 882q-1 222 -20 428.5t-45 317.5q-132 22 -245.5 26.5t-293.5 0.5zM2378 3499q-105 -31 -223.5 -226.5t-201.5 -484.5q-60 -207 -111.5 -398t-73.5 -279l-23 -87 q204 0 367 3q257 5 374 25q-15 241 -55 722.5t-53 724.5zM2331 6478q23 -28 74 -74t91.5 -84.5t48.5 -59.5q10 -22 14.5 -41t4.5 -51t-9 -80.5t-29 -115.5q-27 -92 -53 -153t-73 -131t-132 -175q-130 -159 -255.5 -249t-275.5 -123q-63 -13 -185.5 -22.5t-214.5 -11.5 l-91 -2q54 16 120.5 55.5t126.5 88t119.5 102.5t102 99.5t69.5 80.5q85 107 145 188t110.5 159t85.5 138t71.5 138.5t64.5 147t70 176.5z" />
<glyph unicode="&#xc2;" horiz-adv-x="3986" d="M2013 1423q-113 -3 -238.5 -30t-153.5 -57q-57 -61 -48 -225q4 -73 8.5 -118t16.5 -116t30 -126t50.5 -122t77.5 -130q33 -46 63 -84t49 -60.5t43 -46.5t32 -31t29 -24t24 -19q34 -29 11 -82q-8 -18 -51 -35t-107 -28q-90 -16 -373.5 -26t-505.5 4q-204 15 -351.5 34.5 t-238.5 44t-138 43t-97 46.5q-8 4 -12.5 27.5t-0.5 68t19 98.5t52.5 126t94 144t144.5 175t139.5 165.5t113 159.5t104.5 200q113 270 223 583t171 569q217 920 206 1401q-1 43 -3 80t-7.5 68.5t-10.5 56t-15.5 47.5t-18 39.5t-23 35.5t-25 30.5t-31.5 29t-35 28t-40 31.5 q-4 3 -5 4q-50 38 -112.5 69t-138.5 59.5t-94 37.5q-39 18 -72.5 42t-48.5 43.5t-8 28.5q13 18 28 32.5t48.5 35.5t75.5 34t112 23t156 10q129 0 210 3.5t191 15.5t203.5 34.5t215 64t259.5 101.5q153 67 263.5 102.5t175.5 40t101 -8t57 -41.5q43 -56 85.5 -308.5 t71.5 -635.5q65 -871 232 -1960q43 -284 88 -518t107.5 -486.5t146.5 -492t189 -463.5q42 -90 104.5 -183.5t118 -161.5t129 -159.5t120.5 -158.5q16 -23 7.5 -50.5t-33.5 -35.5q-43 -13 -122.5 -16t-143 1t-160.5 13t-125 12q-266 17 -472 -4.5t-506 -85.5 q-81 -17 -192.5 -53.5t-170.5 -59.5q-35 -13 -88 -19.5t-74 3.5q-62 40 36 183l193 278q270 400 269 882q-1 222 -20 428.5t-45 317.5q-132 22 -245.5 26.5t-293.5 0.5zM2378 3499q-105 -31 -223.5 -226.5t-201.5 -484.5q-60 -207 -111.5 -398t-73.5 -279l-23 -87 q204 0 367 3q257 5 374 25q-15 241 -55 722.5t-53 724.5zM1208 5373q-86 -9 -253 -14.5t-292 -7.5l-124 -1q93 13 189.5 38t176 55t143.5 61t103 60q12 9 36 26q137 99 202.5 146t170.5 120t179.5 120.5t174.5 108.5t210 123q80 -46 151.5 -88.5t143.5 -91t123.5 -83.5 t128.5 -93.5t121 -92.5t138 -108t145.5 -113t209 -92.5t353.5 -94.5q-105 -2 -186.5 -2t-154.5 2t-132.5 7t-114 12.5t-105.5 19t-100 26t-105 34.5q-297 104 -613 297q-116 -67 -202.5 -115t-170 -89t-149 -68t-133 -48.5t-130 -33.5t-134.5 -20z" />
<glyph unicode="&#xc3;" horiz-adv-x="3986" d="M2013 1423q-113 -3 -238.5 -30t-153.5 -57q-57 -61 -48 -225q4 -73 8.5 -118t16.5 -116t30 -126t50.5 -122t77.5 -130q33 -46 63 -84t49 -60.5t43 -46.5t32 -31t29 -24t24 -19q34 -29 11 -82q-8 -18 -51 -35t-107 -28q-90 -16 -373.5 -26t-505.5 4q-204 15 -351.5 34.5 t-238.5 44t-138 43t-97 46.5q-8 4 -12.5 27.5t-0.5 68t19 98.5t52.5 126t94 144t144.5 175t139.5 165.5t113 159.5t104.5 200q113 270 223 583t171 569q217 920 206 1401q-1 43 -3 80t-7.5 68.5t-10.5 56t-15.5 47.5t-18 39.5t-23 35.5t-25 30.5t-31.5 29t-35 28t-40 31.5 q-4 3 -5 4q-50 38 -112.5 69t-138.5 59.5t-94 37.5q-39 18 -72.5 42t-48.5 43.5t-8 28.5q13 18 28 32.5t48.5 35.5t75.5 34t112 23t156 10q129 0 210 3.5t191 15.5t203.5 34.5t215 64t259.5 101.5q153 67 263.5 102.5t175.5 40t101 -8t57 -41.5q43 -56 85.5 -308.5 t71.5 -635.5q65 -871 232 -1960q43 -284 88 -518t107.5 -486.5t146.5 -492t189 -463.5q42 -90 104.5 -183.5t118 -161.5t129 -159.5t120.5 -158.5q16 -23 7.5 -50.5t-33.5 -35.5q-43 -13 -122.5 -16t-143 1t-160.5 13t-125 12q-266 17 -472 -4.5t-506 -85.5 q-81 -17 -192.5 -53.5t-170.5 -59.5q-35 -13 -88 -19.5t-74 3.5q-62 40 36 183l193 278q270 400 269 882q-1 222 -20 428.5t-45 317.5q-132 22 -245.5 26.5t-293.5 0.5zM2378 3499q-105 -31 -223.5 -226.5t-201.5 -484.5q-60 -207 -111.5 -398t-73.5 -279l-23 -87 q204 0 367 3q257 5 374 25q-15 241 -55 722.5t-53 724.5zM1733 6152q78 -9 155.5 -23.5t138 -31.5t120 -35.5t111 -35.5t100.5 -30t98.5 -20.5t94.5 -7.5q60 0 113.5 8.5t91.5 19t74 29.5t57 34.5t44.5 38.5t33.5 35.5t27 33.5q11 13 15.5 20t11.5 14t13 9t13 1 q36 -9 54.5 -29.5t20.5 -49t-5.5 -67.5t-23 -81t-35 -92.5t-37.5 -97.5t-33 -102.5t-21 -101.5q-7 -48 -29.5 -81.5t-54.5 -52t-80.5 -25.5t-96 -5.5t-111.5 12t-117.5 23t-122.5 29.5q-67 17 -133 41.5t-115 46t-100 44.5t-99.5 41t-100.5 32t-115 19.5t-133 2.5 q-56 -3 -113.5 -17.5t-108.5 -36t-102 -49.5t-97 -57t-90.5 -58.5t-86.5 -56t-80 -46.5t-76 -31.5t-72 -11.5q29 31 47 76t24.5 92t9.5 98.5t4.5 101.5t6.5 93.5t18.5 80t36.5 58.5q29 27 62 50.5t80 48.5t98.5 44.5t119.5 35t141 24t164 8t190 -11.5z" />
<glyph unicode="&#xc4;" horiz-adv-x="3991" d="M2578 5389q-501 28 -469 468q4 55 23 111.5t51.5 109t78.5 98t100.5 78.5t121.5 51.5t138 16.5q137 -3 238 -38.5t166.5 -102t98.5 -159t37 -213.5q2 -75 -18.5 -140.5t-66.5 -120t-114.5 -92.5t-167 -56t-217.5 -11zM1169 5205q-85 16 -155 42t-122.5 59t-93 73t-64 84 t-35 92.5t-10 98.5t16.5 101q27 93 67.5 163.5t96 120.5t127 76t160.5 28q86 2 198 -22q52 -12 99.5 -34.5t86 -52t72 -66.5t56.5 -77.5t41 -84.5t26 -88.5t10.5 -89t-6.5 -84.5q-77 -433 -571 -339zM2018 1386q-113 -3 -239 -30t-153 -56q-57 -61 -48 -226q4 -73 8 -118.5 t15.5 -116t30 -125t51 -122t78.5 -130.5q33 -46 63 -84t49 -60.5t43 -46t32 -31t29 -24.5t23 -20q34 -29 11 -81q-8 -18 -50.5 -35t-106.5 -29q-90 -16 -374 -25.5t-506 3.5q-204 15 -352 35.5t-238.5 44.5t-137 42.5t-96.5 45.5q-8 4 -13 28t-1 68t19 98t53 126.5t94 144.5 t144.5 175t140 165.5t112.5 159t105 200.5q113 270 223.5 583t170.5 569q217 920 206 1401q-1 43 -3.5 79.5t-8 68t-10 56t-15 48t-18 39.5t-23.5 35.5t-25.5 30.5t-31.5 29t-35 28.5t-40 31.5l-4 3q-50 38 -113 69.5t-138.5 60t-94.5 37.5q-39 18 -72 41.5t-48.5 43.5 t-8.5 29q13 18 28 33t48.5 35.5t75 33.5t112 22.5t157.5 10.5q129 0 209 4q135 5 191 15q196 35 203 35q103 4 285 39q103 20 230 76q153 67 262.5 102.5t175 39t101.5 -8.5q40 -13 58 -41q16 -24 46 -257q51 -395 71 -637q74 -925 232 -1960q43 -284 88 -517.5t107.5 -486 t147 -492t189.5 -463.5q42 -90 105 -184t117.5 -161t128.5 -159.5t120 -158.5q16 -23 7.5 -50.5t-33.5 -36.5q-43 -13 -121.5 -15.5t-142.5 1.5t-161 13t-127 11q-266 17 -471.5 -4t-504.5 -85q-81 -17 -193 -53.5t-170 -59.5q-35 -13 -88 -19.5t-75 3.5q-62 40 37 183 l193 277q270 400 269 883q-1 222 -20 429t-44 317q-132 22 -246 26.5t-294 0.5zM2382 3463q-105 -31 -223.5 -227.5t-200.5 -484.5q-60 -207 -112 -398q-52 -190 -74 -279l-21 -88q204 0 365 5q257 5 375 23q-15 241 -55.5 723.5t-53.5 725.5z" />
<glyph unicode="&#xc5;" horiz-adv-x="3991" d="M898 6006q10 76 30 146t47 125t63 103t76 85t85 68t89 52t92 37q92 30 191 33t185 -17t160 -56t128 -84q48 -40 88 -97t72 -132t50 -160t18 -184t-20 -197q-30 -138 -96 -239t-165 -165t-234 -88t-299 -2q-64 10 -123 27t-107 42t-91 58t-77 71t-61 82t-46 90t-33 96 t-20 101t-7 102t5 103zM1932 6024q-10 68 -34 128t-56 103t-74 75t-84 48t-84 18q-48 2 -98 -14t-96 -45t-87 -71t-73 -89t-50 -100t-20 -103q0 -68 19 -123t54 -94t85 -65t108 -37t126 -7q86 4 158 33t122 76t73 116t11 151zM2013 1423q-113 -3 -238.5 -30t-153.5 -57 q-57 -61 -48 -225q4 -73 8.5 -118t16.5 -116t30 -126t50.5 -122t77.5 -130q33 -46 63 -84t49 -60.5t43 -46.5t32 -31t29 -24t24 -19q34 -29 11 -82q-8 -18 -51 -35t-107 -28q-90 -16 -373.5 -26t-505.5 4q-204 15 -351.5 34.5t-238.5 44t-138 43t-97 46.5q-8 4 -12.5 27.5 t-0.5 68t19 98.5t52.5 126t94 144t144.5 175t139.5 165.5t113 159.5t104.5 200q113 270 223 583t171 569q217 920 206 1401q-1 43 -3 80t-7.5 68.5t-10.5 56t-15.5 47.5t-18 39.5t-23 35.5t-25 30.5t-31.5 29t-35 28t-40 31.5q-4 3 -5 4q-50 38 -112.5 69t-138.5 59.5 t-94 37.5q-39 18 -72.5 42t-48.5 43.5t-8 28.5q13 18 28 32.5t48.5 35.5t75.5 34t112 23t156 10q129 0 210 3.5t191 15.5t203.5 34.5t215 64t259.5 101.5q153 67 263.5 102.5t175.5 40t101 -8t57 -41.5q43 -56 85.5 -308.5t71.5 -635.5q65 -871 232 -1960q43 -284 88 -518 t107.5 -486.5t146.5 -492t189 -463.5q42 -90 104.5 -183.5t118 -161.5t129 -159.5t120.5 -158.5q16 -23 7.5 -50.5t-33.5 -35.5q-43 -13 -122.5 -16t-143 1t-160.5 13t-125 12q-266 17 -472 -4.5t-506 -85.5q-81 -17 -192.5 -53.5t-170.5 -59.5q-35 -13 -88 -19.5t-74 3.5 q-62 40 36 183l193 278q270 400 269 882q-1 222 -20 428.5t-45 317.5q-132 22 -245.5 26.5t-293.5 0.5zM2378 3499q-105 -31 -223.5 -226.5t-201.5 -484.5q-60 -207 -111.5 -398t-73.5 -279l-23 -87q204 0 367 3q257 5 374 25q-15 241 -55 722.5t-53 724.5z" />
<glyph unicode="&#xc6;" horiz-adv-x="6323" d="M5968 5168q23 0 44 -14q31 -21 52 -83t46.5 -241t57.5 -520q16 -179 26 -320.5t13 -236.5t-0.5 -165.5t-8.5 -109t-16.5 -65t-19.5 -36.5t-22 -20q-13 -9 -37.5 27.5t-83.5 131t-122 175.5q-20 26 -46 48t-51 39.5t-62.5 33.5t-65.5 27t-76 23t-78.5 19t-89.5 16.5 t-91 14.5t-99.5 15t-101.5 15q-163 25 -416.5 34.5t-519 -1.5t-422.5 -45q5 -94 29 -277t41.5 -370t15.5 -353q200 -51 393 -54t315 46q79 31 146.5 76t105 82.5t66.5 70t47.5 45.5t32.5 3q22 -15 34 -66t14 -144t0 -191t-10 -251q-8 -150 -6 -287.5t8 -202.5t7.5 -137 t-7.5 -91q-8 -30 -89 17q-24 13 -82 51q-175 110 -267 143q-33 12 -61 19q-318 71 -619 71q-7 -145 3 -323t23.5 -319t21.5 -325.5t1 -342.5q8 -2 22 -8q66 -21 104 -31t119 -24.5t163 -19.5t215 -4.5t296 11.5q140 9 258.5 37t209.5 70t167 99t130.5 121t98.5 140 q92 162 193 241q76 60 102 27q2 -3 5 -8q28 -66 40.5 -166t9 -225t-11 -223t-21.5 -228q-10 -89 -34.5 -219t-48 -237.5t-42 -241t-18.5 -239.5q-55 -8 -156 -25.5t-156.5 -26t-176.5 -15t-250 -0.5t-342.5 25t-488.5 53q-50 7 -138.5 19t-135.5 18t-127 13.5t-135.5 9 t-137.5 -0.5t-156.5 -10.5t-168.5 -25.5t-197 -41q-60 -13 -147 -34.5t-140.5 -34.5t-125.5 -30t-118 -25t-100 -17t-88.5 -9.5t-67.5 2.5t-52.5 14.5t-29.5 29.5q-9 21 -9.5 38t10.5 37.5t26 38.5t38 40t46 41.5t50.5 44.5t51 47t48 50t41.5 54q23 35 41.5 65t38.5 69 t35.5 79t29.5 87t22.5 99.5t13.5 112t4.5 129t-6.5 146.5q-18 225 -48 430.5t-56 321.5q-309 50 -630 42q-113 -3 -238.5 -30.5t-153.5 -55.5q-57 -61 -47 -226q4 -73 8 -118.5t16 -116.5t29.5 -124.5t50 -122t78.5 -130.5q34 -46 63.5 -84t48.5 -61t43 -46t32 -30.5 t29.5 -24t23.5 -20.5q34 -29 11 -82q-8 -18 -51 -35t-107 -28q-90 -16 -373.5 -25.5t-505.5 3.5q-204 15 -351.5 35t-239.5 44.5t-138 43t-96 45.5q-8 4 -12.5 28.5t-0.5 68t19 97.5t53 126t93.5 144t144 175t140 166t113.5 159.5t104 199.5q113 270 223.5 583t170.5 569 q217 920 206 1403q-1 43 -3 79t-7.5 67.5t-11 56t-15.5 48t-17 39.5t-23 35t-26 30.5t-31.5 30t-34 28t-39.5 30.5l-6 4q-50 38 -112.5 69t-138 60t-95.5 38q-39 18 -72 41.5t-48 43.5q-15 21 -8 29q13 18 28 33t48.5 35t75 33.5t111.5 23t157 9.5q71 0 211 -2.5t229 -1.5 t218.5 8t263 28.5t278.5 56.5q148 37 277.5 57t227 28.5t196.5 -2t162.5 -22t152 -43.5t135 -52.5t139.5 -63.5q12 -5 17 -9q197 -92 365.5 -138t349 -61t445.5 -6q94 3 177.5 9t147.5 12.5t124 19t100.5 21t84.5 26.5t68 28t59 31.5t49.5 31.5t49 35t48.5 33q25 17 63 54 t68 66t67.5 53.5t66.5 24.5zM2499 3569q-389 -209 -549 -651q-47 -128 -85 -254t-60 -213.5t-36.5 -157.5t-19.5 -105l-6 -35q202 0 366 5q57 1 170 1t189.5 1.5t104.5 5.5q-22 298 -43.5 773.5t-30.5 629.5z" />
<glyph unicode="&#xc7;" horiz-adv-x="3869" d="M3644 5380q33 -44 39.5 -99t-8 -144.5t-36.5 -192.5t-51 -292q-30 -186 -47 -394q-16 -192 -37.5 -338.5t-43 -237.5t-45.5 -147t-46.5 -75t-46.5 -12q-36 11 -56 32.5t-35 54.5l-32 71q-17 37 -59 96q-42 57 -105 117q-156 149 -325 245q-172 97 -340 120 q-88 12 -168.5 12.5t-168 -11t-172.5 -40t-172 -73.5t-175.5 -114t-174.5 -159q-50 -51 -91.5 -113t-72 -124.5t-54 -136t-39.5 -138.5t-26.5 -144.5t-17 -140.5t-10 -138t-4.5 -127.5t-1 -117.5q0 -215 71 -477.5t190 -486.5q133 -249 306.5 -429.5t367.5 -257.5 q116 -46 233.5 -74.5t248 -43t266.5 1.5q136 15 262 59q89 31 157 66t109 66t76.5 69.5t55.5 69.5l50 72q30 43 56 75l67 81l67 84q25 29 56.5 58.5t56.5 38.5q38 13 39 -6q0 -12 -32 -105q-106 -309 -112 -661q-1 -31 -1 -63q1 -108 7 -288q7 -127 4.5 -219t-15.5 -150.5 t-52 -84t-106 -20.5t-176 40q-72 23 -157 22q-85 -2 -178 -18.5t-226 -32t-299 -21.5q-129 -5 -298 7q-20 -62 -34 -116q202 -36 344 -167q82 -76 125 -156t51 -185.5t-21 -245.5q-17 -81 -44 -156t-63 -144.5t-84 -127t-104.5 -101.5t-126 -69.5t-146.5 -30.5 q-90 -5 -186 11t-185.5 52.5t-162 100.5t-107.5 146q-5 13 -28 22.5t-54 14t-69 11.5l-75 13q-38 7 -74 22t-63.5 36.5t-43.5 58t-14 85.5q110 5 314 56t332 105q20 -13 37 -43.5t30 -65t33.5 -74t44 -73t62.5 -62.5t89 -43q43 -12 80.5 -12.5t66 7.5t54 26.5t42.5 39.5 t35 54t30 62q12 27 27 69q28 76 34 139t-10.5 122.5t-65.5 110.5t-130 94q-65 34 -124 52t-114.5 27.5t-96 11.5t-68.5 2.5t-31 1.5l104 366l-12 2q-80 16 -148 38t-147 56t-153.5 78t-159 106t-172.5 138q-114 100 -217 228t-174.5 248t-130.5 245t-93 217q-33 89 -52 164 q-30 120 -47 200q-19 88 -44.5 238.5t-37.5 328.5t-9 370q3 172 17 315t47.5 297t88.5 297.5t141 299.5q86 155 203 318q256 355 527 574q272 219 576 297q162 40 336.5 52.5t307.5 0t224 -40.5q279 -86 435 -83q163 3 238 94q74 90 155.5 160.5t141.5 98.5t76 5z" />
<glyph unicode="&#xc8;" horiz-adv-x="4048" d="M3724 5185q46 -28 90.5 -246.5t90.5 -683.5q91 -906 -38 -990q-13 -8 -37.5 25.5t-83.5 121t-122 162.5q-40 48 -87 88t-94 70t-116.5 63t-129.5 57.5t-158 61.5q-163 61 -447.5 122t-578.5 92.5t-449 8.5q39 -152 54 -564q3 -73 6.5 -208.5t6 -240t5.5 -140.5 q94 -22 202.5 -25t207 10.5t181 33t148.5 44.5q79 29 146 70.5t104.5 76t66.5 64.5t47.5 42t33.5 3q23 -16 42.5 -65.5t30 -125t0 -186.5t-44.5 -232q-32 -111 -38 -225t6.5 -201.5t29.5 -160t28.5 -126.5t5.5 -77q-2 -11 -14 -12t-31 6.5t-44 20.5t-56 31t-63.5 37t-70 39 t-73.5 37.5t-75 31.5t-73 21q-110 23 -239.5 33.5t-211 10.5t-176 -3t-97.5 -3q-7 -71 -19 -203t-21 -229.5t-26.5 -234t-38.5 -245.5t-55.5 -231.5t-76.5 -223.5q84 -24 236.5 -31t348 0t513.5 26q98 6 197.5 36.5t184.5 76t167.5 106t148.5 123t126 130t102.5 124.5 t74.5 110q93 149 194 223q78 57 103 24q2 -3 3 -6q29 -61 41 -154t8.5 -209t-11 -206.5t-21.5 -211.5q-4 -34 -15 -116.5t-17 -136t-13 -137.5t-5.5 -151t7 -145t23.5 -151t46 -139q-195 -25 -360.5 -33.5t-499.5 1t-888 43.5q-677 42 -1057.5 44.5t-603.5 -33.5 q-204 -33 -268 5q-26 16 -15 41q22 52 77.5 173.5t100 220.5t106.5 259t110 311t95 352.5t77 406.5q52 361 56.5 820t-44.5 909t-144 741q-12 37 -29.5 82t-57.5 129.5t-89 171t-127 202.5t-168 229q159 0 363 -15t581 -58q456 -53 702 -79t691 -67q101 -10 191 -12.5 t161 -1t138.5 10.5t115 17.5t98.5 26t81.5 29.5t71 34.5t60 34.5t56.5 36q13 8 20 13q18 12 42 32t45 39t45 39.5t46.5 35.5t44.5 25t44 10t42 -12zM1473 6704q-27 -28 -86.5 -75t-106.5 -85t-57 -60q-11 -22 -16 -40t-6.5 -51t9.5 -82t34 -115q30 -92 62 -153t86.5 -131 t155.5 -174q153 -160 298 -248q149 -91 323 -124q65 -13 218 -24q161 -11 250 -12h108q-64 16 -142 56t-148.5 87t-139.5 102t-119 101t-81 80q-99 108 -169.5 189t-130.5 158t-100.5 137t-83.5 139t-75.5 148t-82.5 177z" />
<glyph unicode="&#xc9;" horiz-adv-x="4054" d="M3724 5185q46 -28 90.5 -246.5t90.5 -683.5q91 -906 -38 -990q-13 -8 -37.5 25.5t-83.5 121t-122 162.5q-40 48 -87 88t-94 70t-116.5 63t-129.5 57.5t-158 61.5q-163 61 -447.5 122t-578.5 92.5t-449 8.5q39 -152 54 -564q3 -73 6.5 -208.5t6 -240t5.5 -140.5 q94 -22 202.5 -25t207 10.5t181 33t148.5 44.5q79 29 146 70.5t104.5 76t66.5 64.5t47.5 42t33.5 3q23 -16 42.5 -65.5t30 -125t0 -186.5t-44.5 -232q-32 -111 -38 -225t6.5 -201.5t29.5 -160t28.5 -126.5t5.5 -77q-2 -11 -14 -12t-31 6.5t-44 20.5t-56 31t-63.5 37t-70 39 t-73.5 37.5t-75 31.5t-73 21q-110 23 -239.5 33.5t-211 10.5t-176 -3t-97.5 -3q-7 -71 -19 -203t-21 -229.5t-26.5 -234t-38.5 -245.5t-55.5 -231.5t-76.5 -223.5q84 -24 236.5 -31t348 0t513.5 26q98 6 197.5 36.5t184.5 76t167.5 106t148.5 123t126 130t102.5 124.5 t74.5 110q93 149 194 223q78 57 103 24q2 -3 3 -6q29 -61 41 -154t8.5 -209t-11 -206.5t-21.5 -211.5q-4 -34 -15 -116.5t-17 -136t-13 -137.5t-5.5 -151t7 -145t23.5 -151t46 -139q-195 -25 -360.5 -33.5t-499.5 1t-888 43.5q-677 42 -1057.5 44.5t-603.5 -33.5 q-204 -33 -268 5q-26 16 -15 41q22 52 77.5 173.5t100 220.5t106.5 259t110 311t95 352.5t77 406.5q52 361 56.5 820t-44.5 909t-144 741q-12 37 -29.5 82t-57.5 129.5t-89 171t-127 202.5t-168 229q159 0 363 -15t581 -58q456 -53 702 -79t691 -67q101 -10 191 -12.5 t161 -1t138.5 10.5t115 17.5t98.5 26t81.5 29.5t71 34.5t60 34.5t56.5 36q13 8 20 13q18 12 42 32t45 39t45 39.5t46.5 35.5t44.5 25t44 10t42 -12zM2872 6801q27 -30 87.5 -80.5t107.5 -92t58 -64.5q12 -24 16.5 -45t5.5 -56t-10 -87.5t-35 -126.5q-32 -101 -62.5 -167 t-85.5 -142t-156 -191q-154 -173 -301 -271q-154 -102 -326 -135q-74 -14 -219 -24t-253 -12l-107 -2q64 17 142.5 60t149.5 96t140 112t120 108.5t83 87.5q100 117 171 205t131 173t100.5 149.5t84 151t76.5 161.5t82 192z" />
<glyph unicode="&#xca;" horiz-adv-x="4044" d="M3724 5185q46 -28 90.5 -246.5t90.5 -683.5q91 -906 -38 -990q-13 -8 -37.5 25.5t-83.5 121t-122 162.5q-40 48 -87 88t-94 70t-116.5 63t-129.5 57.5t-158 61.5q-163 61 -447.5 122t-578.5 92.5t-449 8.5q39 -152 54 -564q3 -73 6.5 -208.5t6 -240t5.5 -140.5 q94 -22 202.5 -25t207 10.5t181 33t148.5 44.5q79 29 146 70.5t104.5 76t66.5 64.5t47.5 42t33.5 3q23 -16 42.5 -65.5t30 -125t0 -186.5t-44.5 -232q-32 -111 -38 -225t6.5 -201.5t29.5 -160t28.5 -126.5t5.5 -77q-2 -11 -14 -12t-31 6.5t-44 20.5t-56 31t-63.5 37t-70 39 t-73.5 37.5t-75 31.5t-73 21q-110 23 -239.5 33.5t-211 10.5t-176 -3t-97.5 -3q-7 -71 -19 -203t-21 -229.5t-26.5 -234t-38.5 -245.5t-55.5 -231.5t-76.5 -223.5q84 -24 236.5 -31t348 0t513.5 26q98 6 197.5 36.5t184.5 76t167.5 106t148.5 123t126 130t102.5 124.5 t74.5 110q93 149 194 223q78 57 103 24q2 -3 3 -6q29 -61 41 -154t8.5 -209t-11 -206.5t-21.5 -211.5q-4 -34 -15 -116.5t-17 -136t-13 -137.5t-5.5 -151t7 -145t23.5 -151t46 -139q-195 -25 -360.5 -33.5t-499.5 1t-888 43.5q-677 42 -1057.5 44.5t-603.5 -33.5 q-204 -33 -268 5q-26 16 -15 41q22 52 77.5 173.5t100 220.5t106.5 259t110 311t95 352.5t77 406.5q52 361 56.5 820t-44.5 909t-144 741q-12 37 -29.5 82t-57.5 129.5t-89 171t-127 202.5t-168 229q159 0 363 -15t581 -58q456 -53 702 -79t691 -67q101 -10 191 -12.5 t161 -1t138.5 10.5t115 17.5t98.5 26t81.5 29.5t71 34.5t60 34.5t56.5 36q13 8 20 13q18 12 42 32t45 39t45 39.5t46.5 35.5t44.5 25t44 10t42 -12zM981 5543q-99 -11 -291 -18q-191 -7 -334 -8l-142 -1q107 15 218 44.5t202 65t164 71.5q86 44 119 71q13 11 40 31 q157 117 233 172t196.5 141t205.5 142.5t200.5 129t241.5 144.5q93 -54 175 -105t164.5 -107t141.5 -98.5t147.5 -111t139 -108.5t159.5 -127.5t167 -134t239.5 -108.5t406.5 -111q-120 -3 -214 -3t-178 2t-152.5 8.5t-130.5 14.5t-121 22.5t-115 31.5t-120 39 q-343 123 -706 352q-133 -79 -232 -135.5t-194.5 -105.5t-171 -80.5t-153.5 -56t-150.5 -39.5t-154.5 -24z" />
<glyph unicode="&#xcb;" horiz-adv-x="4038" d="M3724 5185q46 -28 90.5 -246.5t90.5 -683.5q91 -906 -38 -990q-13 -8 -37.5 25.5t-83.5 121t-122 162.5q-40 48 -87 88t-94 70t-116.5 63t-129.5 57.5t-158 61.5q-163 61 -447.5 122t-578.5 92.5t-449 8.5q39 -152 54 -564q3 -73 6.5 -208.5t6 -240t5.5 -140.5 q94 -22 202.5 -25t207 10.5t181 33t148.5 44.5q79 29 146 70.5t104.5 76t66.5 64.5t47.5 42t33.5 3q23 -16 42.5 -65.5t30 -125t0 -186.5t-44.5 -232q-32 -111 -38 -225t6.5 -201.5t29.5 -160t28.5 -126.5t5.5 -77q-2 -11 -14 -12t-31 6.5t-44 20.5t-56 31t-63.5 37t-70 39 t-73.5 37.5t-75 31.5t-73 21q-110 23 -239.5 33.5t-211 10.5t-176 -3t-97.5 -3q-7 -71 -19 -203t-21 -229.5t-26.5 -234t-38.5 -245.5t-55.5 -231.5t-76.5 -223.5q84 -24 236.5 -31t348 0t513.5 26q98 6 197.5 36.5t184.5 76t167.5 106t148.5 123t126 130t102.5 124.5 t74.5 110q93 149 194 223q78 57 103 24q2 -3 3 -6q29 -61 41 -154t8.5 -209t-11 -206.5t-21.5 -211.5q-4 -34 -15 -116.5t-17 -136t-13 -137.5t-5.5 -151t7 -145t23.5 -151t46 -139q-195 -25 -360.5 -33.5t-499.5 1t-888 43.5q-677 42 -1057.5 44.5t-603.5 -33.5 q-204 -33 -268 5q-26 16 -15 41q22 52 77.5 173.5t100 220.5t106.5 259t110 311t95 352.5t77 406.5q52 361 56.5 820t-44.5 909t-144 741q-12 37 -29.5 82t-57.5 129.5t-89 171t-127 202.5t-168 229q159 0 363 -15t581 -58q456 -53 702 -79t691 -67q101 -10 191 -12.5 t161 -1t138.5 10.5t115 17.5t98.5 26t81.5 29.5t71 34.5t60 34.5t56.5 36q13 8 20 13q18 12 42 32t45 39t45 39.5t46.5 35.5t44.5 25t44 10t42 -12zM2389 5321q-501 28 -471 467q4 55 23.5 112t51.5 109.5t78 98t101 78.5t121.5 51.5t138.5 17.5q137 -3 238.5 -39 t166 -102.5t97.5 -158.5t37 -213q2 -75 -18 -141t-66.5 -120.5t-114.5 -92.5t-166 -56t-217 -11zM870 5385q-85 16 -155.5 42t-123.5 59t-92.5 73t-64 84t-36 92.5t-9 98.5t17.5 101q27 93 66.5 163.5t95.5 121t127.5 76t161.5 27.5q86 2 197 -23q52 -12 100 -34t86 -52 t71 -66.5t56.5 -77t42 -85t26 -88.5t9.5 -88q3 -44 -5 -85q-76 -433 -571 -339z" />
<glyph unicode="&#xcc;" horiz-adv-x="2502" d="M688 5925q-31 -28 -100 -74.5t-123.5 -85t-67.5 -59.5q-13 -22 -19 -40.5t-7 -51t12 -81.5t39 -116q36 -92 72 -152t99.5 -130.5t180.5 -175.5q177 -159 347 -248.5t375 -123.5q86 -13 253 -22.5t290 -11.5l125 -2q-74 16 -164.5 55.5t-172.5 88t-161.5 102.5t-138 100 t-95.5 80q-115 107 -197.5 188.5t-151 159t-115 137t-97 138.5t-88.5 148t-95 177zM377 4163q111 -8 200 -20.5t132.5 -23.5t109 -21.5t129 -12t191.5 3.5q464 26 950 139q150 42 196.5 23t27.5 -147q-40 -259 -349 -663q-119 -156 -196.5 -516t-82.5 -835q0 -218 -2.5 -390 t7.5 -316.5t20 -254.5t34.5 -204.5t51.5 -165t72 -136.5t94 -119.5t119 -112.5q108 -94 150.5 -187.5t18.5 -164.5q-226 -11 -375 -14.5t-541 -11.5q-223 -3 -461 -17t-371 -23.5t-172 -3.5q-26 3 -46.5 7t-41 11.5t-31.5 16t-15.5 20.5t3.5 27t29 35q60 53 97.5 89.5t92 97 t114 142.5t131.5 196q64 100 111.5 196.5t93 238t72.5 303t39 385t4 489.5q-9 261 -29.5 461.5t-43.5 327.5t-70 255.5t-80 195.5t-104 196q-9 16 -14 26q-34 62 -68 115.5t-60 87.5t-50 64.5t-40.5 50t-29.5 39t-18.5 36.5t-5.5 38t7 47z" />
<glyph unicode="&#xcd;" horiz-adv-x="2502" d="M1886 5925q31 -28 100.5 -74.5t123.5 -85t67 -59.5q13 -22 19 -40.5t7 -51t-12 -81.5t-39 -116q-36 -92 -72 -152t-100 -130.5t-179 -175.5q-177 -159 -347.5 -248.5t-375.5 -123.5q-86 -13 -253 -22.5t-290 -11.5l-125 -2q74 16 164 55.5t172.5 88t162 102.5t138 100 t95.5 80q115 107 197 188.5t151 159t115.5 137t97 138.5t88.5 148t95 177zM377 4163q111 -8 200 -20.5t132.5 -23.5t109 -21.5t129 -12t191.5 3.5q464 26 950 139q150 42 196.5 23t27.5 -147q-40 -259 -349 -663q-119 -156 -196.5 -516t-82.5 -835q0 -218 -2.5 -390 t7.5 -316.5t20 -254.5t34.5 -204.5t51.5 -165t72 -136.5t94 -119.5t119 -112.5q108 -94 150.5 -187.5t18.5 -164.5q-226 -11 -375 -14.5t-541 -11.5q-223 -3 -461 -17t-371 -23.5t-172 -3.5q-26 3 -46.5 7t-41 11.5t-31.5 16t-15.5 20.5t3.5 27t29 35q60 53 97.5 89.5t92 97 t114 142.5t131.5 196q64 100 111.5 196.5t93 238t72.5 303t39 385t4 489.5q-9 261 -29.5 461.5t-43.5 327.5t-70 255.5t-80 195.5t-104 196q-9 16 -14 26q-34 62 -68 115.5t-60 87.5t-50 64.5t-40.5 50t-29.5 39t-18.5 36.5t-5.5 38t7 47z" />
<glyph unicode="&#xce;" horiz-adv-x="2502" d="M572 4690q-67 -13 -202 -22.5t-234 -11.5l-99 -2q75 21 152 61.5t141 88t114 97.5q46 44 83 96q10 13 28 42q110 158 162.5 234t136.5 193t144 193t140 174t169 198q65 -73 122 -142t114 -146t99 -134t103 -151t96.5 -148t111 -173t116.5 -182.5t167.5 -148t283.5 -150.5 q-85 -3 -150 -3t-123.5 3t-106.5 11t-91 19.5t-84.5 30.5t-80.5 42t-83 54q-239 168 -492 478q-93 -108 -162.5 -184.5t-136 -143t-119 -109.5t-107 -77t-105 -54.5t-107.5 -32.5zM377 4163q111 -8 200 -20.5t132.5 -23.5t109 -21.5t129 -12t191.5 3.5q464 26 950 139 q150 42 196.5 23t27.5 -147q-40 -259 -349 -663q-119 -156 -196.5 -516t-82.5 -835q0 -218 -2.5 -390t7.5 -316.5t20 -254.5t34.5 -204.5t51.5 -165t72 -136.5t94 -119.5t119 -112.5q108 -94 150.5 -187.5t18.5 -164.5q-226 -11 -375 -14.5t-541 -11.5q-223 -3 -461 -17 t-371 -23.5t-172 -3.5q-26 3 -46.5 7t-41 11.5t-31.5 16t-15.5 20.5t3.5 27t29 35q60 53 97.5 89.5t92 97t114 142.5t131.5 196q64 100 111.5 196.5t93 238t72.5 303t39 385t4 489.5q-9 261 -29.5 461.5t-43.5 327.5t-70 255.5t-80 195.5t-104 196q-9 16 -14 26 q-34 62 -68 115.5t-60 87.5t-50 64.5t-40.5 50t-29.5 39t-18.5 36.5t-5.5 38t7 47z" />
<glyph unicode="&#xcf;" horiz-adv-x="2502" d="M1981 4852q-501 28 -471 469q4 55 23.5 111.5t51.5 109t79 97.5t101 78.5t121.5 52t137.5 16.5q137 -3 238.5 -38.5t166.5 -102t98 -159t37 -213.5q2 -75 -18.5 -140.5t-66.5 -120.5t-114.5 -92.5t-166.5 -56t-217 -11.5zM540 4688q-85 16 -155 42t-123 59t-93 73 t-64 84.5t-35 92.5t-9 97.5t17 100.5q27 93 66.5 163.5t95.5 121.5t127.5 76t160.5 29q86 2 199 -23q52 -12 99 -34t85.5 -52t71.5 -67t56.5 -77.5t41 -84.5t26 -88.5t10.5 -88.5t-6 -85q-77 -433 -571 -339zM377 4163q111 -8 200 -20.5t132.5 -23.5t109 -21.5t129 -12 t191.5 3.5q464 26 950 139q150 42 196.5 23t27.5 -147q-40 -259 -349 -663q-119 -156 -196.5 -516t-82.5 -835q0 -218 -2.5 -390t7.5 -316.5t20 -254.5t34.5 -204.5t51.5 -165t72 -136.5t94 -119.5t119 -112.5q108 -94 150.5 -187.5t18.5 -164.5q-226 -11 -375 -14.5 t-541 -11.5q-223 -3 -461 -17t-371 -23.5t-172 -3.5q-26 3 -46.5 7t-41 11.5t-31.5 16t-15.5 20.5t3.5 27t29 35q60 53 97.5 89.5t92 97t114 142.5t131.5 196q64 100 111.5 196.5t93 238t72.5 303t39 385t4 489.5q-9 261 -29.5 461.5t-43.5 327.5t-70 255.5t-80 195.5 t-104 196q-9 16 -14 26q-34 62 -68 115.5t-60 87.5t-50 64.5t-40.5 50t-29.5 39t-18.5 36.5t-5.5 38t7 47z" />
<glyph unicode="&#xd0;" horiz-adv-x="4057" d="M94 5286q15 38 55.5 63t93 37.5t124.5 14.5t144.5 -3t160.5 -17t163 -25.5t163 -32t148 -32.5l130 -31l101 -23q444 -100 1131 -353q295 -108 500 -239q207 -131 352 -297t263 -400q114 -227 185 -467q71 -241 97 -470t17.5 -459.5t-50 -439t-108 -403.5t-154.5 -361 q-87 -165 -190 -300q-125 -164 -254 -298t-250 -233.5t-251 -177.5t-249.5 -130.5t-254.5 -91t-255.5 -60.5t-261.5 -39q-609 -67 -1365 -201q-98 -16 -148.5 -5t-62 44t6.5 75.5t57 87.5q38 44 89 81q69 50 122 97t113 124t108 170t94.5 229.5t84.5 305.5q25 115 30 396 t-3 745l-3 113q-114 -5 -189 -12q-79 -6 -186.5 -19t-157.5 -18q-17 62 -19 130t5.5 127.5t17 172t13.5 224.5q51 22 122.5 25t173 -9.5t215.5 -28.5q0 37 1 83v253q0 122 -4.5 246.5t-12.5 240t-26 234t-43.5 230.5t-64.5 227.5t-90 225.5q-75 159 -149.5 285t-123.5 189 t-89 106.5t-55.5 62.5t-10.5 31zM1778 3921q-31 -145 -50 -271q-21 -132 -33.5 -306t-18.5 -298l-9 -218q255 2 447 11q288 14 371 46q12 -65 13.5 -138.5t-4 -141.5t-9.5 -136.5t-0.5 -146t18.5 -150.5q-62 20 -164.5 28.5t-370.5 22.5q-145 8 -323 21q-3 -89 -2 -138 q1 -54 3 -143t7.5 -147.5t14.5 -125.5q8 -66 21 -120q80 -326 201 -497q123 -174 262 -176q86 -1 172 29t160 82t145 123.5t129 150.5t110 166.5t90 167.5t66 156q47 125 56 368q8 244 -16.5 517.5t-79.5 558.5t-129 491q-42 117 -120 209q-78 93 -170.5 146.5t-195 83 t-200 23.5t-179.5 -32t-139 -83t-73 -133z" />
<glyph unicode="&#xd1;" horiz-adv-x="4995" d="M2262 5154q7 11 15.5 16.5t32.5 11.5t54 9t94 6t135.5 5.5t194.5 5.5q343 8 799.5 -31t904.5 -114q-1 -3 -12.5 -56t-14 -63.5t-15 -60.5t-21.5 -74.5t-26 -76.5t-35 -95t-44 -103.5t-57 -124.5q-66 -138 -115 -268t-95.5 -307t-73 -370t-38.5 -448t-1 -549 q15 -421 36.5 -721t56 -569.5t89.5 -469.5t133 -358q24 -49 58.5 -103.5t70 -104.5t74 -101.5t73.5 -96t66.5 -86.5t55 -76.5t36 -61.5t11 -45t-17.5 -24q-38 -13 -84 -16.5t-111 1t-145 8.5t-214.5 0t-288.5 -20q-350 -38 -568.5 -47.5t-352.5 3.5q13 103 20 200t8 211.5 t-8 221t-31.5 223t-57 223t-89 216.5t-126.5 206q-102 139 -200 302.5t-198 359.5t-182 371t-194 425q-121 -278 -136 -816q-5 -206 1.5 -348.5t31 -278t71.5 -251t123 -244.5q36 -60 86.5 -125.5t97.5 -115.5t88.5 -91t66.5 -63l26 -23q-341 -115 -684 -175t-802 -73 q-661 -18 -655 78q1 16 21 37q18 17 66.5 58t94.5 80t107.5 103.5t114 132.5t105 165.5t87.5 203.5q46 137 70.5 212.5t61.5 212t54 237t35.5 251.5t20 293t-9 325.5t-36.5 381.5q-111 839 -431 1236q-61 75 -171 162t-310 231q241 67 501.5 110.5t587.5 58.5q46 2 139 6 q103 5 155.5 7.5t148 5t149.5 0.5t137 -7t134 -15t115 -28t107 -43t84 -59t68 -78q64 -100 109 -218t68 -229.5t40 -246t25 -249t23.5 -258.5t36.5 -255q40 -228 92 -390t143 -340.5t254 -432.5q27 168 33 433t-1 621q-2 209 -10.5 379.5t-26 310t-30 215.5t-34.5 198 q-7 34 -10 50q-97 516 -434 889q-76 85 -148 155t-116.5 108t-79.5 65t-47.5 39.5t-9.5 17.5zM2228 6582q86 -11 170 -31t151.5 -43.5t132 -47t121.5 -46t110.5 -39.5t107 -27t104.5 -10q66 0 124.5 10.5t100 25t80.5 40.5t63 45.5t49 50.5t36 47.5t30 45.5q11 18 16.5 25.5 t13.5 18t14.5 13t13.5 0.5q38 -11 59 -39.5t23.5 -65.5t-6 -89t-25.5 -107.5t-38 -121.5t-40.5 -129.5t-36.5 -136.5t-24 -135q-7 -63 -32 -107t-60 -69t-88.5 -33.5t-105.5 -7.5t-122 15.5t-129 31.5q-118 33 -133 38q-74 23 -146.5 56t-126 62t-109.5 59t-109 54 t-110.5 42t-126.5 26q-56 6 -146 2q-61 -3 -124 -22.5t-118.5 -48t-111.5 -64.5t-106.5 -75t-100 -78.5t-95 -73.5t-88 -61.5t-92 -34.5t-68.5 -23q31 40 50.5 100t27 122.5t10.5 131t4.5 134t6 123t19.5 106.5t41 76q32 36 68.5 68t88 64.5t108.5 58t131 46.5t155 32 t180.5 11t207.5 -15z" />
<glyph unicode="&#xd2;" horiz-adv-x="3462" d="M1227 3427q-17 -94 -31 -190.5t-21 -193.5t-11 -169t-4.5 -173t-0.5 -147t1.5 -148t2.5 -125q5 -446 393 -724q78 -56 169.5 -95.5t193 -55t200.5 -6.5t198 52.5t180 118.5q82 77 143.5 166.5t102 183t67 208t38.5 229t17 256.5q1 30 4.5 130.5t4.5 128t3 112t1 113.5 t-3 101.5t-6.5 107.5t-10.5 97.5t-16 107.5t-23 102t-29 112q-40 136 -83 237.5t-87.5 168.5t-82.5 108t-88 82q-46 36 -114.5 59t-156.5 30.5t-196.5 -12.5t-215.5 -69q-97 -44 -174.5 -109.5t-133 -145.5t-100 -184.5t-75 -214.5t-56.5 -249zM1732 5356q97 10 182.5 9.5 t148.5 -7.5t128.5 -24t110.5 -33t106 -42q75 -31 137 -63.5t135.5 -80t144.5 -113.5t136 -148q142 -177 221 -322t159 -388q42 -129 65 -205.5t49.5 -188.5t39.5 -215t23.5 -248.5t13.5 -327.5q9 -477 -22.5 -770.5t-130.5 -694.5q-43 -177 -91.5 -311.5t-113.5 -255.5 t-149 -217t-194 -180t-253 -158q-174 -90 -440 -129t-658 -27q-265 9 -472 110.5t-423 318.5q-89 89 -181.5 239t-152 289.5t-74.5 226.5q-59 330 -78.5 664.5t-1.5 815.5q13 379 66 678t146 562q88 248 221 452t350 407q89 84 173.5 144.5t160.5 100t162.5 66t167 41 t188.5 25.5zM1521 7050q-36 -27 -116 -72t-142 -83.5t-77 -59.5t-22 -40t-8 -51t14 -80t45 -114q40 -90 82.5 -151t115.5 -129.5t205 -172.5q204 -159 399.5 -247t430.5 -122q99 -14 291 -23q57 -3 334 -9l143 -3q-85 16 -189 55t-198 87t-186 101t-158.5 99t-109.5 79 q-132 106 -226 186t-173.5 157t-133 136.5t-111 138t-101 145t-109.5 173.5z" />
<glyph unicode="&#xd3;" horiz-adv-x="3465" d="M1227 3427q-17 -94 -31 -190.5t-21 -193.5t-11 -169t-4.5 -173t-0.5 -147t1.5 -148t2.5 -125q5 -446 393 -724q78 -56 169.5 -95.5t193 -55t200.5 -6.5t198 52.5t180 118.5q82 77 143.5 166.5t102 183t67 208t38.5 229t17 256.5q1 30 4.5 130.5t4.5 128t3 112t1 113.5 t-3 101.5t-6.5 107.5t-10.5 97.5t-16 107.5t-23 102t-29 112q-40 136 -83 237.5t-87.5 168.5t-82.5 108t-88 82q-46 36 -114.5 59t-156.5 30.5t-196.5 -12.5t-215.5 -69q-97 -44 -174.5 -109.5t-133 -145.5t-100 -184.5t-75 -214.5t-56.5 -249zM1732 5356q97 10 182.5 9.5 t148.5 -7.5t128.5 -24t110.5 -33t106 -42q75 -31 137 -63.5t135.5 -80t144.5 -113.5t136 -148q142 -177 221 -322t159 -388q42 -129 65 -205.5t49.5 -188.5t39.5 -215t23.5 -248.5t13.5 -327.5q9 -477 -22.5 -770.5t-130.5 -694.5q-43 -177 -91.5 -311.5t-113.5 -255.5 t-149 -217t-194 -180t-253 -158q-174 -90 -440 -129t-658 -27q-265 9 -472 110.5t-423 318.5q-89 89 -181.5 239t-152 289.5t-74.5 226.5q-59 330 -78.5 664.5t-1.5 815.5q13 379 66 678t146 562q88 248 221 452t350 407q89 84 173.5 144.5t160.5 100t162.5 66t167 41 t188.5 25.5zM2267 6993q38 -13 122 -30.5t149 -34t82 -29.5t26 -27t13.5 -39t-4.5 -67t-32 -102q-29 -81 -64 -139.5t-99.5 -130.5t-182.5 -186q-183 -174 -365.5 -289.5t-410.5 -196.5q-96 -35 -284 -86q-55 -15 -328 -85l-140 -35q82 32 180 87.5t185 116t172 124 t145 115.5t99 88q118 116 202 201.5t153.5 165.5t115.5 140t94 136t83.5 139t88.5 164z" />
<glyph unicode="&#xd4;" horiz-adv-x="3466" d="M1227 3427q-17 -94 -31 -190.5t-21 -193.5t-11 -169t-4.5 -173t-0.5 -147t1.5 -148t2.5 -125q5 -446 393 -724q78 -56 169.5 -95.5t193 -55t200.5 -6.5t198 52.5t180 118.5q82 77 143.5 166.5t102 183t67 208t38.5 229t17 256.5q1 30 4.5 130.5t4.5 128t3 112t1 113.5 t-3 101.5t-6.5 107.5t-10.5 97.5t-16 107.5t-23 102t-29 112q-40 136 -83 237.5t-87.5 168.5t-82.5 108t-88 82q-46 36 -114.5 59t-156.5 30.5t-196.5 -12.5t-215.5 -69q-97 -44 -174.5 -109.5t-133 -145.5t-100 -184.5t-75 -214.5t-56.5 -249zM1732 5356q97 10 182.5 9.5 t148.5 -7.5t128.5 -24t110.5 -33t106 -42q75 -31 137 -63.5t135.5 -80t144.5 -113.5t136 -148q142 -177 221 -322t159 -388q42 -129 65 -205.5t49.5 -188.5t39.5 -215t23.5 -248.5t13.5 -327.5q9 -477 -22.5 -770.5t-130.5 -694.5q-43 -177 -91.5 -311.5t-113.5 -255.5 t-149 -217t-194 -180t-253 -158q-174 -90 -440 -129t-658 -27q-265 9 -472 110.5t-423 318.5q-89 89 -181.5 239t-152 289.5t-74.5 226.5q-59 330 -78.5 664.5t-1.5 815.5q13 379 66 678t146 562q88 248 221 452t350 407q89 84 173.5 144.5t160.5 100t162.5 66t167 41 t188.5 25.5zM894 5693q-90 -12 -264 -19t-303 -9l-129 -1q98 18 198 51t183 73t149.5 82t107.5 80q13 12 38 35q143 134 211.5 197.5t178 162t187 163t182 146t219.5 166.5q85 -61 159.5 -119.5t149 -123.5t128.5 -112.5t134 -126t125.5 -124t145 -145.5t152.5 -153.5 t217 -124t369 -127.5q-110 -3 -195 -2.5t-161 3t-138.5 8.5t-119 16t-110 26t-104.5 35.5t-110 45.5q-310 140 -640 402q-121 -92 -211 -155.5t-177 -119.5t-155 -93t-139 -65.5t-137 -44.5t-141 -27z" />
<glyph unicode="&#xd5;" horiz-adv-x="3465" d="M1227 3427q-17 -94 -31 -190.5t-21 -193.5t-11 -169t-4.5 -173t-0.5 -147t1.5 -148t2.5 -125q5 -446 393 -724q78 -56 169.5 -95.5t193 -55t200.5 -6.5t198 52.5t180 118.5q82 77 143.5 166.5t102 183t67 208t38.5 229t17 256.5q1 30 4.5 130.5t4.5 128t3 112t1 113.5 t-3 101.5t-6.5 107.5t-10.5 97.5t-16 107.5t-23 102t-29 112q-40 136 -83 237.5t-87.5 168.5t-82.5 108t-88 82q-46 36 -114.5 59t-156.5 30.5t-196.5 -12.5t-215.5 -69q-97 -44 -174.5 -109.5t-133 -145.5t-100 -184.5t-75 -214.5t-56.5 -249zM1732 5356q97 10 182.5 9.5 t148.5 -7.5t128.5 -24t110.5 -33t106 -42q75 -31 137 -63.5t135.5 -80t144.5 -113.5t136 -148q142 -177 221 -322t159 -388q42 -129 65 -205.5t49.5 -188.5t39.5 -215t23.5 -248.5t13.5 -327.5q9 -477 -22.5 -770.5t-130.5 -694.5q-43 -177 -91.5 -311.5t-113.5 -255.5 t-149 -217t-194 -180t-253 -158q-174 -90 -440 -129t-658 -27q-265 9 -472 110.5t-423 318.5q-89 89 -181.5 239t-152 289.5t-74.5 226.5q-59 330 -78.5 664.5t-1.5 815.5q13 379 66 678t146 562q88 248 221 452t350 407q89 84 173.5 144.5t160.5 100t162.5 66t167 41 t188.5 25.5zM1729 6668q78 -12 155 -32t137.5 -42.5t120.5 -47t111.5 -45.5t100.5 -38.5t98 -27.5t95 -10q60 0 113.5 10.5t91.5 25t73.5 39.5t57 45t44.5 51q29 39 33 47q10 17 27 44q11 18 16 26.5t12 18.5t13 12.5t12 0.5q36 -11 55 -38.5t21.5 -65.5t-6 -89.5 t-23.5 -105.5t-34 -121.5t-37.5 -130t-33.5 -135.5t-22 -135q-7 -63 -29.5 -107t-54.5 -68.5t-80 -34t-95.5 -7.5t-112 16.5t-117.5 30.5t-123 40q-67 22 -132.5 54t-115 61t-100.5 59t-98.5 54t-100.5 42t-115.5 25.5t-133.5 2.5q-56 -4 -113 -23t-108 -47.5t-102 -65 t-97 -75t-90.5 -77t-87 -73t-80.5 -62t-76 -42t-71 -14.5q29 41 47 99.5t24.5 121.5t9 131t4 133t6 123.5t18 106.5t37.5 76q29 35 63.5 67t80.5 64t98 58.5t119.5 47.5t140.5 31t164 10t190 -14z" />
<glyph unicode="&#xd6;" horiz-adv-x="3463" d="M2654 5543q-501 28 -471 468q4 55 24 112t52 109t78 97.5t101 78.5t121.5 51.5t138.5 17.5q137 -3 238 -39t165.5 -102t98.5 -158.5t37 -213.5q2 -75 -18 -140.5t-67 -120.5t-114 -93t-166 -56t-218 -11zM750 5491q-85 16 -155.5 42t-123 59t-93 73t-64 84.5t-35 92.5 t-9.5 98t16 101q27 93 67.5 163.5t96 121t127 75.5t161.5 28q86 2 197 -22q52 -12 100 -34.5t86 -52.5t71.5 -66.5t56.5 -77t41 -85t26 -88t10.5 -88t-6.5 -84.5q-76 -434 -570 -340zM1227 3427q-17 -94 -31 -190.5t-21 -193.5t-11 -169t-4.5 -173t-0.5 -147t1.5 -148 t2.5 -125q5 -446 393 -724q78 -56 169.5 -95.5t193 -55t200.5 -6.5t198 52.5t180 118.5q82 77 143.5 166.5t102 183t67 208t38.5 229t17 256.5q1 30 4.5 130.5t4.5 128t3 112t1 113.5t-3 101.5t-6.5 107.5t-10.5 97.5t-16 107.5t-23 102t-29 112q-40 136 -83 237.5 t-87.5 168.5t-82.5 108t-88 82q-46 36 -114.5 59t-156.5 30.5t-196.5 -12.5t-215.5 -69q-97 -44 -174.5 -109.5t-133 -145.5t-100 -184.5t-75 -214.5t-56.5 -249zM1732 5356q97 10 182.5 9.5t148.5 -7.5t128.5 -24t110.5 -33t106 -42q75 -31 137 -63.5t135.5 -80 t144.5 -113.5t136 -148q142 -177 221 -322t159 -388q42 -129 65 -205.5t49.5 -188.5t39.5 -215t23.5 -248.5t13.5 -327.5q9 -477 -22.5 -770.5t-130.5 -694.5q-43 -177 -91.5 -311.5t-113.5 -255.5t-149 -217t-194 -180t-253 -158q-174 -90 -440 -129t-658 -27 q-265 9 -472 110.5t-423 318.5q-89 89 -181.5 239t-152 289.5t-74.5 226.5q-59 330 -78.5 664.5t-1.5 815.5q13 379 66 678t146 562q88 248 221 452t350 407q89 84 173.5 144.5t160.5 100t162.5 66t167 41t188.5 25.5z" />
<glyph unicode="&#xd7;" horiz-adv-x="5282" d="M3016 5637q269 -144 525.5 -239.5t669.5 -200.5q63 -16 157.5 -31.5t172 -25.5t166.5 -29t155 -43.5t121.5 -67.5t80.5 -101q5 -12 -4 -22.5t-38.5 -25t-66 -29.5t-101 -45t-128.5 -65q-39 -21 -78 -46t-84 -61.5t-79.5 -65t-89 -81t-86.5 -83.5t-97 -99.5t-96.5 -102 t-110 -117.5t-113.5 -121q-271 -290 -495 -607t-358 -617q51 -105 85.5 -172.5t99 -181t136.5 -223t185 -270t256 -350.5q116 -154 268 -327t275 -301.5t230.5 -243t161.5 -183t41 -89.5q-33 -53 -278 -94t-623 -56q-120 -4 -261.5 -21t-245.5 -33t-198.5 -29t-153 -12 t-75.5 21q-7 8 1.5 28.5t28.5 57t42.5 81t46 113.5t36.5 142q9 53 8.5 110t-5 106.5t-20 113t-28.5 107t-38.5 112.5t-40.5 106t-44 109q-11 26 -16 39q-13 33 -42 103t-44.5 108.5t-41 98.5t-42 97.5t-37 80.5t-37 71.5t-29.5 46.5q-34 -63 -58.5 -113t-59.5 -139t-61 -181 t-53 -225t-45 -284q-18 -164 -2.5 -288.5t48 -223t67.5 -162.5t57.5 -106.5t14.5 -55.5q-33 -64 -145 -73.5t-450 35.5q-17 2 -306 43q-217 29 -671 30q-313 1 -385 12q-60 9 -58 28q0 3 2 7q93 172 210 340t229 301t216 251.5t203 237t159 212.5q259 399 399.5 637 t209.5 393q-64 154 -150 287.5t-290 400.5q-559 732 -956 1011q-131 91 -243.5 164.5t-169 106.5t-97.5 57.5t-53 34.5t-11 23q1 18 19.5 33.5t120 62t266 115t506.5 207.5q415 168 626.5 250.5t272.5 102.5t102 26q0 -16 -13.5 -54.5t-45 -133.5t-61.5 -210 q-25 -92 -27.5 -185t11 -178t49 -188.5t76 -193.5t103.5 -217q64 -129 137.5 -245.5t153.5 -231t117 -177.5q9 18 56.5 117t64.5 138t62 146t76 192t77 221.5t92 288.5q40 139 59 281t15.5 251.5t-18.5 210.5t-33.5 164t-38.5 106z" />
<glyph unicode="&#xd8;" horiz-adv-x="3468" d="M2716 5600q104 -36 210.5 -59t174 -32.5t132 -24.5t114.5 -46t92 -86q-33 -73 -74 -158t-70.5 -143t-85 -168.5t-83.5 -165.5q62 -99 112 -211.5t103 -274.5q43 -129 65.5 -205.5t49 -188t39.5 -214.5t23.5 -248t13.5 -328q8 -477 -23 -770.5t-130 -695.5 q-43 -175 -91 -310.5t-113.5 -256.5t-149.5 -216.5t-194 -179.5t-253 -158q-173 -90 -439.5 -129.5t-658.5 -26.5q-50 1 -97 6q-56 -187 -76 -292.5t-23 -190.5q-88 62 -187 102.5t-182.5 60.5t-164.5 40t-158 56.5t-137 93.5q47 53 102.5 164.5t127.5 293.5q-49 44 -100 96 q-89 89 -180.5 238.5t-152 289t-75.5 226.5q-59 329 -78.5 664t-1.5 816q14 378 67 677.5t146 561.5q88 248 220.5 452.5t350.5 407.5q89 84 173 144.5t160 100t163 66t167 41t189 25.5q97 10 182 9.5t148 -7.5t129 -24t110.5 -33.5t106.5 -41.5q76 -33 137 -64 q91 197 170 317zM2131 4501q-182 1 -364 -83q-97 -44 -174.5 -110t-133.5 -145.5t-101 -184.5t-75 -215t-56 -249q-18 -95 -31 -190t-20 -192.5t-11.5 -169.5t-5 -172.5t-0.5 -147.5t2 -148.5t2 -124.5q2 -168 60 -315l359 873l641 1568q-44 6 -92 6zM2753 3929 q-303 -682 -658 -1624l-292 -784q119 -37 237 -38t239 42.5t218 133.5q82 77 144 166t102 183.5t66.5 208.5t39 228.5t16.5 256.5q1 30 5 130.5t4.5 127.5t2.5 111.5t1 114.5t-2.5 101.5t-6 107t-11 98t-16.5 107.5t-23 101.5t-29 112.5q-18 61 -37 115z" />
<glyph unicode="&#xd9;" horiz-adv-x="4408" d="M541 6711q-32 -29 -100 -76t-121 -87t-66 -61q-14 -22 -18.5 -40.5t-5 -51t13 -81t42.5 -116.5q38 -91 75 -150.5t101.5 -128.5t184.5 -171q180 -156 351 -242t377 -116q86 -12 253 -18t290 -6h124q-74 15 -164.5 53t-173.5 84.5t-164 99.5t-139.5 97.5t-97.5 78.5 q-117 106 -200.5 185t-154 155t-118.5 134.5t-100 136.5t-91 145.5t-98 175.5zM46 4740q18 4 29 2t37.5 -4t52 -6.5t72.5 -4.5t99.5 2t134 12t173 26t219.5 44.5t271 66.5q912 244 1147 199q112 -22 45 -112q-24 -33 -67 -89t-69 -91t-65 -89.5t-64.5 -96.5t-56 -100 t-51.5 -110.5t-40 -117t-31 -131.5q-56 -317 -84 -626.5t-23.5 -643t48.5 -638t141.5 -605.5t245.5 -549q46 -76 116.5 -128t150 -71.5t164 -2t150.5 73.5q43 37 76 79.5t67 119.5t55.5 180.5t40 265t25.5 370t-10 344t-32 492.5q-22 542 -53.5 918t-80.5 621t-108 382 t-142 216q-63 60 -118 116t-116 124.5t-91.5 128t-4.5 59.5q54 0 161.5 52.5t241.5 58.5t284 -1t283.5 -24t237.5 -41q131 -29 291.5 -40.5t331 -19.5t285.5 -23q-72 -42 -119.5 -81t-93 -96t-78.5 -135t-61 -188q-34 -135 -52.5 -220t-44 -229.5t-40.5 -285t-29 -348.5 t-21 -457q-4 -151 3 -314t2 -324.5t-13 -395.5t-19.5 -411t-26.5 -332t-37.5 -292.5t-61.5 -281.5t-90 -266t-125.5 -236t-165.5 -201q-82 -78 -207 -150t-272.5 -123.5t-298 -81t-299 -23.5t-260.5 52q-116 47 -214 128.5t-188 213.5t-166 315t-143 433.5t-124 566.5 q-97 542 -160 870t-131.5 623t-134.5 508t-157 451q-27 69 -93.5 166t-134 178t-164.5 196.5t-149 182.5z" />
<glyph unicode="&#xda;" horiz-adv-x="4438" d="M2106 6806q31 -28 100.5 -74.5t123.5 -85.5q55 -38 67 -58q13 -22 18.5 -41t6.5 -51.5t-11 -81t-40 -116.5q-36 -92 -72 -152.5t-99.5 -130.5t-179.5 -175q-177 -159 -346.5 -248.5t-375.5 -123.5q-86 -13 -252.5 -22.5t-291.5 -10.5l-124 -3q74 16 164 56t172.5 87.5 t162.5 102t138 100.5t96 81q115 107 196 188t150.5 159t116 137t96.5 138t88.5 148t95.5 177zM50 4500q18 4 29 2t37.5 -4.5t52 -6.5t73.5 -4t100 1.5t133.5 11.5t173.5 26t219 44.5t270 67.5q912 244 1148 198q112 -22 44 -112q-24 -33 -67 -89t-69 -90.5t-65 -89.5 t-64.5 -97t-55.5 -100t-51.5 -110.5t-40.5 -117t-31 -130.5q-56 -317 -83.5 -626.5t-23.5 -644t46 -518t139.5 -484.5t245.5 -549q46 -76 116.5 -128t150 -71.5t164 -2t150.5 73.5q43 37 76 79.5t67 119.5t55.5 180.5t40 265t25.5 370t7 377.5t-14 526q-22 542 -54.5 918 t-80.5 621.5t-107 382t-143 214.5q-63 60 -118.5 116.5t-116 125t-87.5 119t-9 67.5q49 49 159 78t244.5 35t284.5 -1t283 -24.5t239 -40.5q131 -29 291 -41t331 -19.5t286 -24.5q-72 -42 -120.5 -80.5t-94 -95.5t-78 -135.5t-59.5 -187.5q-34 -135 -52.5 -220t-44.5 -229.5 t-41 -285t-29 -348t-20 -457.5q-4 -151 -12.5 -467.5t-15.5 -358t-15 -275.5t-19.5 -411t-26.5 -332t-37.5 -292.5t-61.5 -281.5t-90 -266t-125.5 -236t-165.5 -201q-82 -78 -207 -150t-272.5 -123.5t-298 -81t-299 -23.5t-260.5 52q-116 47 -214 128.5t-188 213.5t-166 315 t-143 433.5t-124 566.5q-97 542 -158 749.5t-129 502.5t-134.5 508t-157.5 451q-27 69 -93 166.5t-134 178t-165 196.5t-149 183z" />
<glyph unicode="&#xdb;" horiz-adv-x="4458" d="M1111 5427q-77 -39 -232 -101.5t-272 -103.5l-117 -42q83 46 164.5 107.5t144 123t110.5 118.5t73 105q9 14 25 42q89 163 132 240t113 198.5t121.5 201.5t122 185.5t149.5 215.5q94 -28 178.5 -55t171.5 -60.5t150 -59t159 -69t150.5 -69.5t174 -82.5t183 -86.5t233 -40 t372.5 4q-99 -37 -175.5 -63t-146 -48.5t-128.5 -35.5t-113 -22t-107 -12.5t-104.5 -3t-112.5 5.5q-324 26 -699 152q-83 -118 -146 -203t-124.5 -161.5t-112.5 -130t-106.5 -100.5t-111 -82.5t-119.5 -67.5zM63 4529q18 4 29 1.5t38 -4.5t52.5 -6.5t73.5 -4.5t100 1.5 t133.5 12t173 26t219 45t270.5 67.5q912 244 1147 197q112 -22 45 -112q-24 -33 -66.5 -88.5t-69.5 -90t-65.5 -90t-64 -97t-56 -99.5t-51.5 -110.5t-39.5 -117t-31.5 -131.5q-56 -317 -83.5 -626t-23.5 -643.5t39 -532.5t132.5 -499t245.5 -549q46 -76 116.5 -128 t150 -71.5t164 -2t150.5 73.5q43 37 76 79.5t67 119.5t55.5 180.5t40 265t25.5 370t14 391.5t-7 540q-22 542 -54.5 918t-80.5 622t-107 382.5t-143 214.5q-63 60 -118 116.5t-116 124.5t-88 118.5t-8 69.5q49 49 158.5 77t244 34.5t284.5 -1t283.5 -25t238.5 -40.5 q131 -29 291 -40.5t330.5 -19t286.5 -23.5q-72 -42 -120 -81t-93 -96.5t-78.5 -135.5t-60.5 -187q-34 -135 -53 -220t-44.5 -230t-41 -285.5t-29 -348t-19.5 -457.5q-4 -151 -16 -428.5t-21.5 -362.5t-15 -357.5t-20.5 -420.5t-30 -303t-37.5 -292.5t-61.5 -281.5t-90 -266 t-125.5 -236t-165.5 -201q-82 -78 -207 -150t-272.5 -123.5t-298 -81t-299 -23.5t-260.5 52q-116 47 -214 128.5t-188 213.5t-166 315t-143 433.5t-124 566.5q-97 542 -151 763.5t-122 517t-134.5 509t-157.5 449.5q-27 69 -93 167t-134 179t-165.5 196.5t-149.5 182.5z" />
<glyph unicode="&#xdc;" horiz-adv-x="4438" d="M2292 5852q-502 28 -472 468q4 55 24 111.5t52 109t78 98t101 78.5t121 51.5t138 16.5q138 -3 239 -38.5t166 -102t98 -159t37 -213.5q2 -75 -18 -140.5t-67 -120.5t-115 -92.5t-166 -55.5t-216 -11zM858 5301q-85 16 -155.5 42t-123.5 59t-92.5 73t-64 84.5t-36 92.5 t-9 98t17.5 101q27 93 66.5 163t95.5 121t127.5 76t161.5 28q86 2 199 -22q52 -12 99 -34.5t85 -52t71 -66.5t56.5 -78t42 -84.5t26 -88t9.5 -88.5t-6 -85q-76 -433 -570 -339zM51 4517q18 4 29 2t38 -4t52.5 -7t73.5 -5t100 1.5t133.5 12t173 26t218.5 45t271 67.5 q912 244 1147 197q112 -22 45 -112q-24 -33 -66.5 -88.5t-69.5 -90t-65.5 -90t-64 -96.5t-56 -99.5t-51.5 -111t-40 -117t-30 -131.5q-56 -317 -84.5 -626t-24 -643.5t45.5 -526.5t138.5 -493t245.5 -549q46 -76 116.5 -128t150 -71.5t164 -2t150.5 73.5q43 37 76 79.5 t67 119.5t55.5 180.5t40 265t25.5 370t8 385.5t-13 534q-22 542 -54 919t-80.5 622t-108 381t-142.5 215q-63 60 -118 116.5t-116 125t-88 118.5t-9 69q49 49 159 77t244 34t284.5 -1t284 -24.5t237.5 -40.5q131 -29 291.5 -40.5t331 -19t286.5 -24.5q-72 -42 -120 -80.5 t-93 -96t-78.5 -135.5t-60.5 -187q-34 -135 -52.5 -220t-44.5 -230t-41.5 -285.5t-29 -347.5t-20.5 -458q-4 -151 -12 -467.5t-16 -366t-16 -283.5t-19.5 -411t-26.5 -332t-37.5 -292.5t-61.5 -281.5t-90 -266t-125.5 -236t-165.5 -201q-82 -78 -207 -150t-272.5 -123.5 t-298 -81t-299 -23.5t-260.5 52q-116 47 -214 128.5t-188 213.5t-166 315t-143 433.5t-124 566.5q-97 542 -157 757.5t-128.5 511t-134.5 509t-157 449.5q-27 69 -93.5 167t-134 179t-165 196.5t-149.5 182.5z" />
<glyph unicode="&#xdd;" horiz-adv-x="5245" d="M2764 6778q39 -15 123 -36t151 -39.5t83 -32.5q18 -14 26.5 -27.5t15 -38.5t-1 -65.5t-27.5 -98.5q-26 -79 -58 -134t-92.5 -122.5t-174.5 -174.5q-175 -162 -351.5 -266.5t-400.5 -172.5q-94 -29 -279 -72t-323 -69l-139 -28q81 28 176.5 78t180 104.5t165.5 113.5 t139.5 106.5t93.5 83.5q113 108 192.5 187t145.5 154.5t110 131.5t88.5 128t76.5 132.5t80 157.5zM2829 5272q132 40 281 58.5t309 15.5t316.5 -18t339.5 -44q260 -42 483.5 -64t338.5 -24t199 -2.5t112.5 -7t32.5 -30.5q13 -64 -91.5 -158.5t-319.5 -206.5 q-40 -22 -106 -53t-117 -55.5t-121 -61.5t-127.5 -72t-128.5 -86t-131 -105t-128 -127t-127 -154.5t-121.5 -185t-116.5 -219.5q-76 -162 -127.5 -275t-109 -246t-94.5 -232.5t-75 -215t-59.5 -212.5t-41 -208t-26 -218.5t-6.5 -226.5q0 -120 9 -248q65 -911 482 -1137 q180 -98 265.5 -191.5t51.5 -147.5q-13 -20 -57 -26.5t-138 -8t-214.5 -6t-326 -28.5t-433.5 -68q-399 -76 -825 -94.5t-544 38.5q49 78 99 144t91.5 113t100.5 102.5t102.5 92t123.5 105t139 119.5q56 50 104 115.5t82 136t60.5 149t41.5 154.5t23 150.5t7.5 139 t-8.5 117.5q-18 133 -47 250.5t-72 223t-87.5 195t-110.5 198.5t-125.5 200.5t-149.5 233t-165 266.5q-43 72 -124 207q-85 142 -125.5 209.5t-110.5 183t-105.5 170t-93 142t-91 129.5t-81 102.5t-81 90t-75 63.5t-78 51.5t-76.5 27.5q-227 57 -355 142q-100 65 -71 103 q5 7 15 12q26 13 72 18.5t128 8.5t190.5 10.5t297.5 35t409 72.5q168 35 313.5 49.5t246 12t181.5 -15.5t130 -32.5t82 -41.5t45.5 -38t13.5 -27q1 -15 -1 -26.5t-14.5 -35t-36 -48t-70.5 -61t-115 -79.5q-38 -24 -65 -47.5t-46.5 -52t-30 -57t-11.5 -66.5t4 -76t22 -90.5 t37.5 -104.5t54 -124.5t69.5 -143.5t86 -166q46 -88 86.5 -162t76 -132.5t63 -102t57 -82.5t46.5 -61t44.5 -49.5l37.5 -37.5t38.5 -35.5t36.5 -31.5q150 528 294.5 865.5t355.5 602.5q12 15 33.5 42.5t34.5 43t31 42t25.5 45.5t14.5 47t3.5 51.5t-14.5 55t-34 61.5 t-58 66.5t-84 74.5q-135 106 -220.5 185.5t-124.5 150.5z" />
<glyph unicode="&#xde;" horiz-adv-x="3967" d="M1654 3472q30 -241 45.5 -440.5t22 -322.5t16.5 -192q355 30 580 102q100 31 190 73.5t175 99.5t149.5 123t108.5 148.5t57 172.5q23 165 -7 340t-104.5 320.5t-177.5 220.5q-187 135 -441.5 211.5t-552.5 95.5q-118 8 -148 -99q-25 -91 10 -337q8 -53 27 -172 q35 -219 50 -344zM2252 54q-47 -20 -76 -30.5t-74 -25t-83.5 -23t-94.5 -18t-117 -13.5t-140 -7t-175 -2.5t-212 3.5q-163 5 -292 21.5t-200.5 33t-146 29t-170 12t-228.5 -20.5q27 65 66 126.5t82.5 114.5t88.5 108.5t96 130.5t92 159q76 152 123.5 297.5t77 326t34.5 417 t-6 534t-42 712.5q-29 386 -71 689.5t-89 513.5t-112.5 380t-128 280t-148.5 223q-180 235 -206 290q-20 42 10 52q13 4 57 5q34 0 124.5 -15t204 -34t318.5 -40t433 -31q1057 -47 1618 -372q246 -143 429.5 -333t323.5 -435q121 -213 170 -386t51 -369q0 -99 -16 -191 t-43 -170.5t-69 -154.5t-89.5 -139t-110.5 -126t-123 -114t-136 -104.5t-142 -96t-149 -89.5q-55 -33 -115 -62t-129 -54t-127 -45t-139 -41t-134.5 -34.5t-144 -31.5t-137 -27t-144.5 -27t-136 -24q0 -436 49.5 -752t153.5 -546q35 -77 152 -255.5t142 -218.5z" />
<glyph unicode="&#xdf;" horiz-adv-x="4437" d="M2212 -388q-11 107 -44.5 223.5t-77 213.5t-92 204t-89.5 197t-70.5 190t-33.5 185q86 53 206.5 124.5t221 129.5t223 131.5t223 137t208.5 139t191 143.5t159 143.5t124.5 146.5t76.5 146.5t25 147.5q-2 53 -35.5 112t-88 115t-134.5 116t-165.5 114t-190.5 112.5 t-201.5 107.5t-205.5 101.5t-195 92.5t-179 83.5t-149 71.5q27 76 73 151t89 129.5t114 123.5t113.5 106t121.5 104q69 59 103.5 88t90 83t81 88.5t56.5 86t37.5 95t1.5 97.5t-28 110q-24 54 -82.5 110.5t-140.5 107.5t-185 101t-215.5 90.5t-231 77t-232.5 59.5 t-220.5 38.5t-194 14t-152.5 -13.5q16 -69 48 -163.5t62 -186.5t66 -221.5t67 -305t57.5 -397.5t44 -537t20.5 -690q2 -232 0 -429t-11 -368t-20 -311.5t-31.5 -266t-41 -226t-52.5 -197.5t-62 -173.5t-75 -162t-85.5 -155t-96.5 -158.5q-206 -325 -415 -483 q-162 -121 -258 -93q-92 27 -87 181q5 153 110 395q2 4 6 15q26 61 41.5 96.5t43.5 111t46 139t44 161.5t42.5 199t35.5 230.5t28.5 277t17.5 319t7.5 375t-7.5 425.5q-21 591 -48.5 991t-75 701t-103.5 506t-147 438q-166 425 -198 557q-31 133 15 168q39 28 170 8 q38 -7 129 -24q318 -62 543 -77q136 -9 272 -7q287 5 776 -100.5t997 -302.5q204 -79 360 -171.5t258.5 -190.5t162 -206.5t74.5 -220t-9 -229t-83.5 -235.5t-152.5 -239.5t-214 -240.5t-268 -238q215 -89 519.5 -265.5t476.5 -316.5q50 -40 82 -96.5t44 -116t11 -128.5 t-12 -133.5t-32 -133.5t-42.5 -126t-48.5 -112q-94 -204 -229.5 -392.5t-280 -335.5t-312.5 -279.5t-321 -227.5t-313 -174q-34 -16 -53.5 -47.5t-27.5 -72.5t-11 -90.5t-8 -106.5t-14 -117t-32 -124.5t-59 -125.5t-98.5 -124.5t-147.5 -117.5z" />
<glyph unicode="&#xe0;" horiz-adv-x="4001" d="M716 1744q31 -166 74.5 -304.5t94.5 -241.5t112.5 -182.5t126 -130.5t137 -82.5t144 -42t148.5 -4.5q129 10 231 57t168.5 122.5t102 174t38.5 212.5q4 206 10.5 338t20.5 267t39 247.5t63 236.5t96 278q-66 17 -124 30.5t-132.5 28.5t-147 24.5t-152 16t-164.5 6 t-169 -7.5q-107 -10 -205 -46t-176 -93.5t-144 -134t-109 -165.5t-70.5 -188.5t-29 -204t16.5 -211.5zM3843 1459q38 -64 60 -118.5t28.5 -107.5t5 -97t-15.5 -105t-28.5 -112t-38 -136.5t-40.5 -160.5q-10 -41 -10 -108t6.5 -139t12 -157.5t9 -166t-4 -160.5t-25.5 -144 t-57.5 -115t-98.5 -75q-18 64 -40.5 117t-45 92t-54 69t-56 49.5t-63.5 33t-64.5 20.5t-71 10.5t-70.5 4t-75 0.5q-65 1 -99 2t-95.5 9t-100 22.5t-92.5 44.5t-93.5 72.5t-83.5 108.5t-80 151q-12 -50 -35 -95t-65.5 -90.5t-100.5 -83t-144 -69t-191.5 -51.5t-247 -28.5 t-306.5 -1.5q-167 7 -314 52t-263 120t-214 180t-170.5 228.5t-128.5 270t-91 299.5t-55 322q-29 241 -38.5 429t2.5 368t51 326.5t110 283.5t177 261q108 126 252.5 227t313.5 169.5t365 94t394 0.5q145 -19 325.5 -58.5t330.5 -75.5t218 -45q56 -8 144.5 10t178.5 46 t205.5 53.5t226 33.5t240.5 -16q-122 -99 -237 -271.5t-204.5 -379.5t-160.5 -436.5t-114 -454t-56 -421.5q-15 -177 -11 -330t24.5 -268.5t72.5 -189t134 -91.5q61 -13 115 -15t95.5 2t80 23.5t65 36.5t54 53t43.5 60.5t38 73.5t33 76.5t32 83.5q34 90 55 139.5t62.5 121.5 t89.5 123zM979 5711q-32 -32 -104 -83.5t-128.5 -94.5t-70 -67.5t-18.5 -45t-6.5 -57t10.5 -91.5q9 -40 42 -129q37 -103 74.5 -171t103.5 -147t187 -195q184 -178 360 -279q182 -104 390 -138q89 -14 263 -25q193 -13 303 -14l128 -1q-77 18 -170 62t-178.5 98t-169 114.5 t-143.5 112.5t-99 90q-120 120 -204.5 210.5t-157 177.5t-120.5 154t-100 155.5t-92 165.5t-100 198z" />
<glyph unicode="&#xe1;" horiz-adv-x="4001" d="M716 1744q31 -166 74.5 -304.5t94.5 -241.5t112.5 -182.5t126 -130.5t137 -82.5t144 -42t148.5 -4.5q129 10 231 57t168.5 122.5t102 174t38.5 212.5q4 206 10.5 338t20.5 267t39 247.5t63 236.5t96 278q-66 17 -124 30.5t-132.5 28.5t-147 24.5t-152 16t-164.5 6 t-169 -7.5q-107 -10 -205 -46t-176 -93.5t-144 -134t-109 -165.5t-70.5 -188.5t-29 -204t16.5 -211.5zM3843 1459q38 -64 60 -118.5t28.5 -107.5t5 -97t-15.5 -105t-28.5 -112t-38 -136.5t-40.5 -160.5q-10 -41 -10 -108t6.5 -139t12 -157.5t9 -166t-4 -160.5t-25.5 -144 t-57.5 -115t-98.5 -75q-18 64 -40.5 117t-45 92t-54 69t-56 49.5t-63.5 33t-64.5 20.5t-71 10.5t-70.5 4t-75 0.5q-65 1 -99 2t-95.5 9t-100 22.5t-92.5 44.5t-93.5 72.5t-83.5 108.5t-80 151q-12 -50 -35 -95t-65.5 -90.5t-100.5 -83t-144 -69t-191.5 -51.5t-247 -28.5 t-306.5 -1.5q-167 7 -314 52t-263 120t-214 180t-170.5 228.5t-128.5 270t-91 299.5t-55 322q-29 241 -38.5 429t2.5 368t51 326.5t110 283.5t177 261q108 126 252.5 227t313.5 169.5t365 94t394 0.5q145 -19 325.5 -58.5t330.5 -75.5t218 -45q56 -8 144.5 10t178.5 46 t205.5 53.5t226 33.5t240.5 -16q-122 -99 -237 -271.5t-204.5 -379.5t-160.5 -436.5t-114 -454t-56 -421.5q-15 -177 -11 -330t24.5 -268.5t72.5 -189t134 -91.5q61 -13 115 -15t95.5 2t80 23.5t65 36.5t54 53t43.5 60.5t38 73.5t33 76.5t32 83.5q34 90 55 139.5t62.5 121.5 t89.5 123zM3015 5668q33 -32 105 -83.5t128.5 -94.5t70 -67.5t18.5 -44.5t6.5 -57t-10.5 -92q-10 -40 -42 -129q-37 -103 -74.5 -171t-103.5 -147t-187 -195q-184 -178 -360 -279q-182 -104 -390 -138q-89 -14 -263 -25q-193 -13 -304 -14l-128 -1q77 18 170.5 62t179 98 t169 114.5t143.5 112.5t99 90q119 120 204 210.5t157 177.5t120.5 154t100.5 155.5t92 165.5t99 198z" />
<glyph unicode="&#xe2;" horiz-adv-x="3996" d="M716 1744q31 -166 74.5 -304.5t94.5 -241.5t112.5 -182.5t126 -130.5t137 -82.5t144 -42t148.5 -4.5q129 10 231 57t168.5 122.5t102 174t38.5 212.5q4 206 10.5 338t20.5 267t39 247.5t63 236.5t96 278q-66 17 -124 30.5t-132.5 28.5t-147 24.5t-152 16t-164.5 6 t-169 -7.5q-107 -10 -205 -46t-176 -93.5t-144 -134t-109 -165.5t-70.5 -188.5t-29 -204t16.5 -211.5zM3843 1459q38 -64 60 -118.5t28.5 -107.5t5 -97t-15.5 -105t-28.5 -112t-38 -136.5t-40.5 -160.5q-10 -41 -10 -108t6.5 -139t12 -157.5t9 -166t-4 -160.5t-25.5 -144 t-57.5 -115t-98.5 -75q-18 64 -40.5 117t-45 92t-54 69t-56 49.5t-63.5 33t-64.5 20.5t-71 10.5t-70.5 4t-75 0.5q-65 1 -99 2t-95.5 9t-100 22.5t-92.5 44.5t-93.5 72.5t-83.5 108.5t-80 151q-12 -50 -35 -95t-65.5 -90.5t-100.5 -83t-144 -69t-191.5 -51.5t-247 -28.5 t-306.5 -1.5q-167 7 -314 52t-263 120t-214 180t-170.5 228.5t-128.5 270t-91 299.5t-55 322q-29 241 -38.5 429t2.5 368t51 326.5t110 283.5t177 261q108 126 252.5 227t313.5 169.5t365 94t394 0.5q145 -19 325.5 -58.5t330.5 -75.5t218 -45q56 -8 144.5 10t178.5 46 t205.5 53.5t226 33.5t240.5 -16q-122 -99 -237 -271.5t-204.5 -379.5t-160.5 -436.5t-114 -454t-56 -421.5q-15 -177 -11 -330t24.5 -268.5t72.5 -189t134 -91.5q61 -13 115 -15t95.5 2t80 23.5t65 36.5t54 53t43.5 60.5t38 73.5t33 76.5t32 83.5q34 90 55 139.5t62.5 121.5 t89.5 123zM1115 4459q-94 -7 -276 -2q-226 6 -319 11l-135 8q103 13 210.5 44t197.5 70.5t163 82t119 84.5q14 13 42 37q160 141 236 208t198.5 171t209 171t202 153t241.5 172q82 -77 155 -147.5t146 -151t125 -138t129 -153.5t121 -152t138 -177t146 -185t217 -158.5 t374 -172.5q-115 5 -203.5 11.5t-167.5 15t-143.5 21t-122.5 28.5t-112.5 37.5t-106 47.5t-110.5 61q-311 184 -633 505q-134 -94 -233 -161t-194.5 -123t-169.5 -92.5t-150 -64t-145.5 -41t-148.5 -20.5z" />
<glyph unicode="&#xe3;" horiz-adv-x="4004" d="M716 1744q31 -166 74.5 -304.5t94.5 -241.5t112.5 -182.5t126 -130.5t137 -82.5t144 -42t148.5 -4.5q129 10 231 57t168.5 122.5t102 174t38.5 212.5q4 206 10.5 338t20.5 267t39 247.5t63 236.5t96 278q-66 17 -124 30.5t-132.5 28.5t-147 24.5t-152 16t-164.5 6 t-169 -7.5q-107 -10 -205 -46t-176 -93.5t-144 -134t-109 -165.5t-70.5 -188.5t-29 -204t16.5 -211.5zM3843 1459q38 -64 60 -118.5t28.5 -107.5t5 -97t-15.5 -105t-28.5 -112t-38 -136.5t-40.5 -160.5q-10 -41 -10 -108t6.5 -139t12 -157.5t9 -166t-4 -160.5t-25.5 -144 t-57.5 -115t-98.5 -75q-18 64 -40.5 117t-45 92t-54 69t-56 49.5t-63.5 33t-64.5 20.5t-71 10.5t-70.5 4t-75 0.5q-65 1 -99 2t-95.5 9t-100 22.5t-92.5 44.5t-93.5 72.5t-83.5 108.5t-80 151q-12 -50 -35 -95t-65.5 -90.5t-100.5 -83t-144 -69t-191.5 -51.5t-247 -28.5 t-306.5 -1.5q-167 7 -314 52t-263 120t-214 180t-170.5 228.5t-128.5 270t-91 299.5t-55 322q-29 241 -38.5 429t2.5 368t51 326.5t110 283.5t177 261q108 126 252.5 227t313.5 169.5t365 94t394 0.5q145 -19 325.5 -58.5t330.5 -75.5t218 -45q56 -8 144.5 10t178.5 46 t205.5 53.5t226 33.5t240.5 -16q-122 -99 -237 -271.5t-204.5 -379.5t-160.5 -436.5t-114 -454t-56 -421.5q-15 -177 -11 -330t24.5 -268.5t72.5 -189t134 -91.5q61 -13 115 -15t95.5 2t80 23.5t65 36.5t54 53t43.5 60.5t38 73.5t33 76.5t32 83.5q34 90 55 139.5t62.5 121.5 t89.5 123zM145 235q-8 4 -12.5 27.5t-0.5 68t19 98.5zM1590 5049q85 -10 169.5 -27.5t150.5 -37.5t131 -41.5t121 -42t109.5 -35.5t107.5 -24t103 -9q65 0 123.5 10t100 22.5t80.5 35t62 40.5t48.5 45.5t36.5 42t30 39.5q11 15 16 23.5t13 16.5t14.5 10.5t13.5 1.5 q40 -11 60 -35t22 -57.5t-6 -80t-25 -96t-38 -109t-41 -115t-36 -121t-23 -119.5q-8 -57 -32.5 -96.5t-59 -61t-87.5 -30t-105 -6.5t-121.5 14t-128 27t-133.5 35q-73 20 -145 49t-125.5 54.5t-109 52.5t-108.5 48t-109.5 37.5t-125 23t-145.5 3.5q-61 -4 -123.5 -21 t-118 -42.5t-111 -58.5t-106 -67t-99 -69t-94 -66t-87 -55t-83 -37.5t-78.5 -13.5q32 37 51.5 90t26.5 108.5t10.5 116.5t5 120t7 110t20 94t39.5 69q32 32 68 60t87 57.5t107.5 52.5t130.5 41t153.5 28t178.5 9.5t207 -13.5z" />
<glyph unicode="&#xe4;" horiz-adv-x="4000" d="M716 1744q31 -166 74.5 -304.5t94.5 -241.5t112.5 -182.5t126 -130.5t137 -82.5t144 -42t148.5 -4.5q129 10 231 57t168.5 122.5t102 174t38.5 212.5q4 206 10.5 338t20.5 267t39 247.5t63 236.5t96 278q-66 17 -124 30.5t-132.5 28.5t-147 24.5t-152 16t-164.5 6 t-169 -7.5q-107 -10 -205 -46t-176 -93.5t-144 -134t-109 -165.5t-70.5 -188.5t-29 -204t16.5 -211.5zM3843 1459q38 -64 60 -118.5t28.5 -107.5t5 -97t-15.5 -105t-28.5 -112t-38 -136.5t-40.5 -160.5q-10 -41 -10 -108t6.5 -139t12 -157.5t9 -166t-4 -160.5t-25.5 -144 t-57.5 -115t-98.5 -75q-18 64 -40.5 117t-45 92t-54 69t-56 49.5t-63.5 33t-64.5 20.5t-71 10.5t-70.5 4t-75 0.5q-65 1 -99 2t-95.5 9t-100 22.5t-92.5 44.5t-93.5 72.5t-83.5 108.5t-80 151q-12 -50 -35 -95t-65.5 -90.5t-100.5 -83t-144 -69t-191.5 -51.5t-247 -28.5 t-306.5 -1.5q-167 7 -314 52t-263 120t-214 180t-170.5 228.5t-128.5 270t-91 299.5t-55 322q-29 241 -38.5 429t2.5 368t51 326.5t110 283.5t177 261q108 126 252.5 227t313.5 169.5t365 94t394 0.5q145 -19 325.5 -58.5t330.5 -75.5t218 -45q56 -8 144.5 10t178.5 46 t205.5 53.5t226 33.5t240.5 -16q-122 -99 -237 -271.5t-204.5 -379.5t-160.5 -436.5t-114 -454t-56 -421.5q-15 -177 -11 -330t24.5 -268.5t72.5 -189t134 -91.5q61 -13 115 -15t95.5 2t80 23.5t65 36.5t54 53t43.5 60.5t38 73.5t33 76.5t32 83.5q34 90 55 139.5t62.5 121.5 t89.5 123zM2362 4251q-486 126 -367 551q14 53 44 105t72 97t96.5 80.5t114 57t129 26.5t138.5 -11q134 -30 226 -85t143 -133t65 -175t-6 -217q-12 -74 -45.5 -134t-89 -104.5t-130.5 -68t-175 -21.5t-215 32zM944 4349q-80 32 -143.5 71.5t-108.5 82t-76.5 90t-46 95 t-16 97.5t9.5 98.5t36 95.5q45 86 98.5 147t118 99t139.5 49.5t163 -3.5q92 -17 190 -61q48 -22 90 -53.5t74 -68t57.5 -79.5t40 -87t23.5 -91t8 -92t-7 -89t-23 -82q-161 -409 -627 -219z" />
<glyph unicode="&#xe5;" horiz-adv-x="3997" d="M1442 5008q9 77 29 146.5t47.5 125t63.5 103.5t75.5 85t85 67.5t89.5 51.5t92 38q92 30 190.5 33t185 -17.5t160 -56.5t128.5 -83q47 -40 87.5 -97t72.5 -132.5t49.5 -160t18 -183.5t-20.5 -198q-29 -137 -95.5 -238.5t-165.5 -165.5t-233.5 -87.5t-298.5 -1.5 q-65 9 -123.5 26.5t-107 42.5t-91.5 58t-76.5 71t-61 81.5t-46.5 90t-33 96t-19.5 100.5t-7 102.5t5.5 102.5zM2476 5027q-10 67 -34 127.5t-56.5 103.5t-74 74.5t-83.5 48t-85 18.5q-47 2 -97 -14t-96 -45.5t-87.5 -71.5t-73 -89t-50 -100t-19.5 -103q-1 -67 18 -122.5 t54 -94t85 -64.5t108.5 -37t125.5 -8q87 4 158.5 33t121.5 76.5t73.5 116.5t11.5 151zM716 1744q31 -166 74.5 -304.5t94.5 -241.5t112.5 -182.5t126 -130.5t137 -82.5t144 -42t148.5 -4.5q129 10 231 57t168.5 122.5t102 174t38.5 212.5q4 206 10.5 338t20.5 267t39 247.5 t63 236.5t96 278q-66 17 -124 30.5t-132.5 28.5t-147 24.5t-152 16t-164.5 6t-169 -7.5q-107 -10 -205 -46t-176 -93.5t-144 -134t-109 -165.5t-70.5 -188.5t-29 -204t16.5 -211.5zM3843 1459q38 -64 60 -118.5t28.5 -107.5t5 -97t-15.5 -105t-28.5 -112t-38 -136.5 t-40.5 -160.5q-10 -41 -10 -108t6.5 -139t12 -157.5t9 -166t-4 -160.5t-25.5 -144t-57.5 -115t-98.5 -75q-18 64 -40.5 117t-45 92t-54 69t-56 49.5t-63.5 33t-64.5 20.5t-71 10.5t-70.5 4t-75 0.5q-65 1 -99 2t-95.5 9t-100 22.5t-92.5 44.5t-93.5 72.5t-83.5 108.5 t-80 151q-12 -50 -35 -95t-65.5 -90.5t-100.5 -83t-144 -69t-191.5 -51.5t-247 -28.5t-306.5 -1.5q-167 7 -314 52t-263 120t-214 180t-170.5 228.5t-128.5 270t-91 299.5t-55 322q-29 241 -38.5 429t2.5 368t51 326.5t110 283.5t177 261q108 126 252.5 227t313.5 169.5 t365 94t394 0.5q145 -19 325.5 -58.5t330.5 -75.5t218 -45q56 -8 144.5 10t178.5 46t205.5 53.5t226 33.5t240.5 -16q-122 -99 -237 -271.5t-204.5 -379.5t-160.5 -436.5t-114 -454t-56 -421.5q-15 -177 -11 -330t24.5 -268.5t72.5 -189t134 -91.5q61 -13 115 -15t95.5 2 t80 23.5t65 36.5t54 53t43.5 60.5t38 73.5t33 76.5t32 83.5q34 90 55 139.5t62.5 121.5t89.5 123z" />
<glyph unicode="&#xe6;" horiz-adv-x="6279" d="M4259 3684q140 1 286.5 -21.5t269 -59t238.5 -85t201.5 -95t151.5 -93.5q177 -125 302 -249t195.5 -237.5t97.5 -227.5t16 -216.5t-58 -208t-115.5 -199.5t-164.5 -193q-131 -134 -329.5 -229.5t-461 -152t-569.5 -81.5t-681 -24q11 -60 28.5 -124.5t48 -144.5 t67.5 -151.5t90.5 -140t114 -116t141.5 -72.5t170 -16q195 18 324.5 34t267.5 44t230.5 59.5t200 86.5t189.5 119t186.5 163t203.5 213t228 274q61 -285 45 -778q-15 -476 -90 -787q-67 -279 -154 -272q-22 2 -45 23q-214 197 -434.5 263.5t-464.5 9.5q-457 -107 -891 -94 q-38 1 -124 3q-108 2 -169 3.5t-180.5 8t-197 15t-193 26t-195 39.5t-176 57t-164 78t-130 102t-102.5 129q-11 -50 -34.5 -95t-65.5 -90.5t-100.5 -83t-144 -69t-191.5 -51.5t-247 -28.5t-307 -1.5q-167 7 -313.5 52t-263 120t-214 180t-170 228.5t-128.5 269.5t-91 299.5 t-55 321.5q-24 201 -34.5 362.5t-7.5 318t24.5 286.5t62 253.5t104.5 234t153 213.5q108 126 252 227t313.5 169.5t365.5 94.5t393 0q146 -19 326 -58.5t330.5 -75t218.5 -45.5q54 -8 140 9t173.5 44.5t199.5 53t219.5 35.5t233.5 -9q296 151 654 153zM4419 3040 q-151 0 -290 -40q-148 -42 -258.5 -120t-175 -178t-96 -225t-30 -258.5t31.5 -280.5q566 -48 1059 31q457 72 658 227q204 158 78 360q-20 31 -48 64q-169 195 -418 307.5t-511 112.5zM2324 2691q-186 49 -372 77t-430 25q-98 -8 -187.5 -32t-165 -62t-141.5 -88.5 t-117.5 -110.5t-92 -128.5t-66 -144t-39 -154.5t-12.5 -161.5t16 -164.5q31 -166 74.5 -304.5t95 -241.5t112.5 -182.5t126 -131t137.5 -82.5t144 -41.5t148.5 -4.5q128 9 230.5 56.5t168.5 123t102 173.5t38 213q5 206 11.5 338t20 267t39 247.5t63 236.5t96.5 277z M2862 1576q-5 -74 -7.5 -120.5t-3.5 -142t4.5 -163.5t21.5 -160t42.5 -159t71 -133t103.5 -108q41 -7 80 -12q-111 202 -193 465.5t-119 532.5z" />
<glyph unicode="&#xe7;" horiz-adv-x="3104" d="M2901 3827q40 -40 48 -84.5t-6.5 -99t-32 -138t-27.5 -201t7 -288.5q11 -103 5 -183q-6 -81 -21.5 -143.5t-39.5 -108t-50.5 -76.5t-53 -48t-47.5 -23t-34 -3q-148 42 -254 311q-26 66 -79 119.5t-119 86.5t-139.5 49.5t-147.5 15.5q-108 -1 -203 -16t-200 -50 t-210.5 -101t-206.5 -161q-75 -72 -128.5 -159t-88 -208t-39 -262t27 -324t101.5 -390q44 -129 113.5 -239.5t151 -189.5t175.5 -141t189 -98t189.5 -55.5t178 -19t153.5 16t117 46.5q18 12 51 43l72 72l85 90l96 96l99 92q50 45 98 77t91 50t80 13.5t61 -34.5 q22 -27 19 -83.5t-20.5 -125.5t-33.5 -156t-19.5 -174t21.5 -182q75 -261 67 -394.5t-95 -156.5q-86 -22 -252 46q-78 32 -168 42.5t-181.5 4.5t-192 -18t-216.5 -22q-69 -6 -139 -9q3 -76 8 -140q202 35 382 -39q104 -43 171 -104t110.5 -156.5t64.5 -237.5q12 -82 13 -162 t-9.5 -157.5t-36 -147.5t-63.5 -130.5t-95 -108.5q-55 -48 -126 -79q-84 -36 -178 -54q-95 -18 -192.5 -14.5t-187.5 38.5t-150 100q-10 11 -34.5 12t-55 -5.5t-68.5 -13.5l-76 -14q-39 -6 -78 -4t-71.5 13t-60 40t-41.5 74q101 43 275 161.5t275 212.5q23 -7 50 -29 t50.5 -49.5t57 -58t66.5 -54t80 -37.5t98 -9q46 4 80.5 16t59 29t41.5 43.5t26.5 52t14.5 63t6.5 67.5t1.5 74q0 81 -15 142.5t-51.5 111t-100 81t-155.5 43.5q-73 9 -134 7t-116.5 -13t-94.5 -23l-64 -20q-27 -9 -30 -9q-16 263 -40 505q-136 19 -275 58 q-133 36 -247.5 105t-203 157.5t-162 203t-126 237.5t-93 265.5t-65.5 282.5q-23 128 -41 292q-23 210 -20 383q4 181 28 335t74 295.5t119.5 265.5t164.5 245q100 127 228.5 231.5t284 184.5t342.5 125t386 46q126 0 245 -13t194 -31t145 -32.5t114 -18.5t84 11.5t72 57.5 q51 67 116 118t113.5 69.5t63.5 3.5z" />
<glyph unicode="&#xe8;" horiz-adv-x="3524" d="M964 5668q-27 -28 -86.5 -74.5t-106.5 -85t-57 -60.5q-12 -22 -17 -40t-6 -50.5t10 -81.5t33 -116q30 -92 62 -152.5t87 -131t155 -174.5q153 -159 299 -248q149 -91 323 -124q64 -12 218 -23q160 -11 250 -12l107 -1q-63 16 -141 56t-149 87.5t-140 102t-118.5 100.5 t-81.5 81q-99 107 -169.5 188t-130.5 158.5t-100 137t-83 139t-75.5 148t-82.5 176.5zM848 1934q567 -48 1060 30q457 73 657 228q204 157 78 359q-20 32 -48 65q-107 123 -251 216.5t-304 144t-331 58.5t-332 -39q-149 -42 -259 -120t-175 -178.5t-96.5 -225t-30 -258 t31.5 -280.5zM885 1308q12 -60 29.5 -124.5t47.5 -145t67 -151.5t90.5 -139.5t114.5 -116t141.5 -72.5t169.5 -17q195 19 324.5 35t268 44t230.5 59.5t199.5 86t190 119t186.5 163.5t203.5 213t228.5 274q61 -285 45 -778q-15 -477 -90 -788q-67 -278 -155 -271 q-22 2 -44 23q-214 197 -434.5 263.5t-464.5 9.5q-81 -19 -144.5 -33t-151.5 -29.5t-160 -24t-160.5 -14t-164.5 -2t-161.5 15t-160 34t-151.5 58t-146 83.5q-134 95 -258.5 258t-217.5 355.5t-156.5 406t-85.5 413.5q-15 143 -23 266.5t-9 261.5t9.5 257t34.5 245 t62.5 233.5t97.5 215.5t136.5 198.5t182 174t230.5 150.5q144 76 304.5 116.5t308.5 45t300 -15t282.5 -56.5t252 -86.5t211 -98t158.5 -97.5q177 -125 302 -249t196 -237.5t98 -227.5t16 -216.5t-58 -208.5t-116 -199.5t-165 -192.5q-130 -134 -329 -229.5t-461 -152 t-569 -82t-682 -23.5z" />
<glyph unicode="&#xe9;" horiz-adv-x="3524" d="M2412 5677q27 -30 87.5 -80.5t107.5 -92t58 -64.5q12 -24 16.5 -45t5.5 -56t-10 -87.5t-35 -126.5q-32 -101 -62.5 -167t-85.5 -142t-156 -191q-154 -173 -301 -271q-154 -102 -326 -135q-74 -14 -219 -24t-253 -12l-107 -2q64 17 142.5 60t149.5 96t140 112t120 108.5 t83 87.5q100 117 171 205t131 173t100.5 149.5t84 151t76.5 161.5t82 192zM848 1934q567 -48 1060 30q457 73 657 228q204 157 78 359q-20 32 -48 65q-107 123 -251 216.5t-304 144t-331 58.5t-332 -39q-149 -42 -259 -120t-175 -178.5t-96.5 -225t-30 -258t31.5 -280.5z M885 1308q12 -60 29.5 -124.5t47.5 -145t67 -151.5t90.5 -139.5t114.5 -116t141.5 -72.5t169.5 -17q195 19 324.5 35t268 44t230.5 59.5t199.5 86t190 119t186.5 163.5t203.5 213t228.5 274q61 -285 45 -778q-15 -477 -90 -788q-67 -278 -155 -271q-22 2 -44 23 q-214 197 -434.5 263.5t-464.5 9.5q-81 -19 -144.5 -33t-151.5 -29.5t-160 -24t-160.5 -14t-164.5 -2t-161.5 15t-160 34t-151.5 58t-146 83.5q-134 95 -258.5 258t-217.5 355.5t-156.5 406t-85.5 413.5q-15 143 -23 266.5t-9 261.5t9.5 257t34.5 245t62.5 233.5t97.5 215.5 t136.5 198.5t182 174t230.5 150.5q144 76 304.5 116.5t308.5 45t300 -15t282.5 -56.5t252 -86.5t211 -98t158.5 -97.5q177 -125 302 -249t196 -237.5t98 -227.5t16 -216.5t-58 -208.5t-116 -199.5t-165 -192.5q-130 -134 -329 -229.5t-461 -152t-569 -82t-682 -23.5z" />
<glyph unicode="&#xea;" horiz-adv-x="3524" d="M977 4325q-85 1 -247 17t-283 33l-120 15q92 3 190 18.5t179.5 40t148.5 51.5q78 33 110 56q13 9 38 25q149 97 221 143t185.5 116t193 116t187 104t224.5 114q70 -65 132 -125.5t123.5 -125.5t105.5 -114.5t109 -128t101.5 -124t116 -145t122 -152.5t186.5 -136.5 t327 -159.5q-102 12 -181 23.5t-149.5 23t-127.5 26.5t-108 30.5t-98.5 36.5t-92.5 45t-95 54q-272 162 -546 433q-123 -63 -214.5 -107t-179 -81t-155.5 -59t-137 -37t-132 -21t-134 -5zM848 1934q567 -48 1060 30q457 73 657 228q204 157 78 359q-20 32 -48 65 q-107 123 -251 216.5t-304 144t-331 58.5t-332 -39q-149 -42 -259 -120t-175 -178.5t-96.5 -225t-30 -258t31.5 -280.5zM885 1308q12 -60 29.5 -124.5t47.5 -145t67 -151.5t90.5 -139.5t114.5 -116t141.5 -72.5t169.5 -17q195 19 324.5 35t268 44t230.5 59.5t199.5 86 t190 119t186.5 163.5t203.5 213t228.5 274q61 -285 45 -778q-15 -477 -90 -788q-67 -278 -155 -271q-22 2 -44 23q-214 197 -434.5 263.5t-464.5 9.5q-81 -19 -144.5 -33t-151.5 -29.5t-160 -24t-160.5 -14t-164.5 -2t-161.5 15t-160 34t-151.5 58t-146 83.5 q-134 95 -258.5 258t-217.5 355.5t-156.5 406t-85.5 413.5q-15 143 -23 266.5t-9 261.5t9.5 257t34.5 245t62.5 233.5t97.5 215.5t136.5 198.5t182 174t230.5 150.5q144 76 304.5 116.5t308.5 45t300 -15t282.5 -56.5t252 -86.5t211 -98t158.5 -97.5q177 -125 302 -249 t196 -237.5t98 -227.5t16 -216.5t-58 -208.5t-116 -199.5t-165 -192.5q-130 -134 -329 -229.5t-461 -152t-569 -82t-682 -23.5z" />
</font>
</defs>
</svg>
